<svg xmlns="http://www.w3.org/2000/svg" fill="none" width="594" height="566" viewBox="0 0 594 566"><path d="M450.449 510.432h-55.738v-1.186h55.738v1.186Zm117.78-114.578H348.434v-1.186h219.795v1.186Zm-86.551 4.751H342.927v-1.186h138.751v1.186Z" fill="#197EA9" fill-rule="evenodd" clip-rule="evenodd"/><path d="M481.673 400.713H42.082v-1.186h439.591v1.186Zm-169.223-5.831H112.105v-1.186H312.45v1.186Zm-71.117 105.674H102.582v-1.186h138.751v1.186Zm-10.673-5.926H91.908v-1.186H230.66v1.186Zm42.297-30.42h-93.291v-1.186h93.291v1.186Zm-5.929-6.716h-93.291v-1.186h93.291v1.186Zm30.043-8.297H203.78v-1.186h93.291v1.186Zm1.186-21.333h-93.292v-1.186h93.292v1.186Zm23.719-7.506h-93.292v-1.186h93.292v1.186Zm194.885-14.617H402.618v-1.186h114.243v1.186ZM470.61 513.988H412.5v-1.186h58.11v1.186Z" fill="#197EA9" fill-rule="evenodd" clip-rule="evenodd"/><path d="M25.548 35.4c0-5.236 4.248-9.48 9.488-9.48h224.162c5.239 0 9.487 4.244 9.487 9.48v170.568c0 5.237-4.248 9.482-9.487 9.482H35.036c-5.24 0-9.488-4.245-9.488-9.482V35.401Z" fill="#BAE8FF"/><path d="M259.198 26.891H35.036c-4.703 0-8.515 3.81-8.515 8.51v170.567c0 4.7 3.812 8.51 8.515 8.51h224.162c4.702 0 8.514-3.81 8.514-8.51V35.401c0-4.7-3.812-8.51-8.514-8.51ZM35.036 25.92c-5.24 0-9.488 4.245-9.488 9.482v170.567c0 5.237 4.248 9.482 9.488 9.482h224.162c5.239 0 9.487-4.245 9.487-9.482V35.401c0-5.237-4.248-9.482-9.487-9.482H35.036Z" fill="#197EA9" fill-rule="evenodd" clip-rule="evenodd" opacity=".2"/><path d="M74.702 68.685c9.886 0 17.94 8.07 17.94 17.975 0 9.905-8.054 17.976-17.94 17.976-9.977 0-18.032-8.07-18.032-17.975 0-9.905 8.055-17.976 18.032-17.976Z" fill="#F9EDCF" fill-rule="evenodd" clip-rule="evenodd"/><path d="M65.826 87.984c-.472-.508-.378-1.32.095-1.828a1.231 1.231 0 0 1 1.7.101l4.348 5.283 10.396-11.276a1.14 1.14 0 0 1 1.702 0c.378.508.472 1.32 0 1.727L72.725 94.18c0 .102 0 .102-.094.102-.473.508-1.229.406-1.607-.102l-5.198-6.197Z" fill="#1F9ED3"/><path d="m242.255 58.847-48.95 77.043-35.387-33.982-44.264 63.391-23.73-19.17-33.872 41.132-.305-.251 34.12-41.435 23.706 19.151 44.285-63.423 35.372 33.968 48.691-76.636.334.212Z" fill="#fff" fill-rule="evenodd" clip-rule="evenodd"/><path d="M89.895 145.852 55.9 187.136l-13.835 15.605v7.309h200.024V58.741l-48.82 76.839-35.38-33.975-44.274 63.408-23.719-19.161Z" fill="url(#a)"/><path d="M93.058 146.05a3.161 3.161 0 0 1-3.162 3.16 3.161 3.161 0 1 1 3.162-3.16Zm24.113 19.358a3.16 3.16 0 0 1-3.162 3.16 3.16 3.16 0 1 1 0-6.321 3.16 3.16 0 0 1 3.162 3.161Zm43.484-63.605a3.162 3.162 0 0 1-3.163 3.16 3.161 3.161 0 1 1 3.163-3.16Zm35.182 34.37a3.162 3.162 0 0 1-6.325 0 3.162 3.162 0 0 1 3.163-3.16 3.161 3.161 0 0 1 3.162 3.16Zm48.623-77.827a3.162 3.162 0 0 1-3.163 3.16 3.161 3.161 0 1 1 3.163-3.16Z" fill="#197EA9"/><path d="M247.755 161.958c0-.53.429-.959.959-.959h125.985a.96.96 0 0 1 .959.959v182.643H247.755V161.958Z" fill="#99D2EB"/><path d="M264.459 180.399c0-.132.107-.239.239-.239h22.776a.24.24 0 0 1 .24.239v164.77h-23.255v-164.77Zm34.51 0c0-.132.107-.239.239-.239h22.776a.24.24 0 0 1 .24.239v164.77h-23.255v-164.77Z" fill="#1F9ED3" opacity=".5"/><path d="M333.23 180.399a.24.24 0 0 1 .24-.239h22.775a.24.24 0 0 1 .24.239v164.77H333.23v-164.77Z" fill="#62C4EE"/><path d="M216.616 345.799V233.081h.24v112.718h-.24Z" fill="#135F7F" fill-rule="evenodd" clip-rule="evenodd" opacity=".5"/><path d="M426.245 434.062s-23.983 35.481-24.023 52.926c0 11.6 2.959 21.475 18.274 21.82 15.315.345 35.276.217 35.276.217s21.587-4.928 11.37-31.479c-9.023-23.447-22.859-43.365-22.859-43.365l-18.038-.119Z" fill="#C1A96B"/><path d="M421.554 484.573v-17.749h7.007c1.341 0 2.486.24 3.434.72.954.473 1.679 1.146 2.176 2.019.503.866.755 1.886.755 3.059 0 1.179-.255 2.193-.763 3.042-.509.843-1.246 1.49-2.212 1.941-.959.451-2.121.676-3.486.676h-4.691v-3.016h4.084c.717 0 1.313-.098 1.787-.294.474-.197.826-.492 1.058-.884.237-.393.355-.881.355-1.465 0-.589-.118-1.086-.355-1.491-.232-.404-.587-.71-1.067-.918-.474-.214-1.072-.321-1.795-.321h-2.532v14.681h-3.755Zm9.591-8.077 4.414 8.077h-4.145l-4.319-8.077h4.05Zm6.365 13.068v-18.303h3.642v2.236h.165c.161-.358.396-.722.702-1.092a3.718 3.718 0 0 1 1.214-.936c.503-.254 1.127-.381 1.873-.381.971 0 1.867.254 2.688.763.821.502 1.477 1.262 1.969 2.279.491 1.011.737 2.279.737 3.804 0 1.485-.24 2.739-.72 3.762-.474 1.016-1.121 1.788-1.942 2.313-.816.52-1.729.78-2.741.78-.716 0-1.326-.118-1.829-.355a3.779 3.779 0 0 1-1.223-.893 4.503 4.503 0 0 1-.728-1.1h-.113v7.123h-3.694Zm3.616-11.647c0 .792.11 1.482.329 2.071.22.59.538 1.049.954 1.378.416.324.922.486 1.518.486.601 0 1.11-.165 1.526-.494.416-.336.731-.798.945-1.387.22-.595.33-1.28.33-2.054 0-.768-.107-1.444-.321-2.028-.214-.583-.529-1.04-.945-1.369-.417-.329-.928-.494-1.535-.494-.601 0-1.11.159-1.526.477-.411.317-.726.768-.946 1.352-.219.583-.329 1.271-.329 2.062Z" fill="#F1D386"/><path d="M454.075 411.168c-.256-1.735-2.366-2.494-4.122-2.464-6.154.098-11.449 5.341-17.603 5.026-3.866-.187-7.229-2.553-10.779-4.09a7.308 7.308 0 0 0-2.702-.72 2.968 2.968 0 0 0-2.476 1.104c-.867 1.222-.325 2.908.247 4.297 2.85 6.801 7.574 13.552 10.996 20.096l17.8.73a32.671 32.671 0 0 1 7.101-20.569c.809-1.006 1.726-2.139 1.538-3.41Z" fill="#C1A96B"/><path d="M428.099 455.164c-.033-1.009.03-2.019.188-3.016a129.524 129.524 0 0 1 2.376-14.37c.171-1.008.435-1.998.789-2.957a18.322 18.322 0 0 1-.434 2.957c-.345 1.971-.769 4.445-1.232 7.165-.464 2.72-.829 5.184-1.144 7.185a18.738 18.738 0 0 1-.543 3.036Zm12.653-9.501a25.547 25.547 0 0 1-1.065-4.997 25.937 25.937 0 0 1-.572-5.076 24.85 24.85 0 0 1 1.036 4.997c.37 1.667.572 3.368.601 5.076Zm-14.408-24.374a30.54 30.54 0 0 1 4.369 5.106 31.549 31.549 0 0 1 3.59 5.686c-.129.079-1.805-2.404-4.004-5.381-2.2-2.976-4.054-5.312-3.955-5.411Zm5.503-4.888c.292.748.507 1.524.641 2.316.394 1.626.848 3.518 1.361 5.618.512 2.099 1.045 3.942 1.469 5.588a12.1 12.1 0 0 1 .542 2.346 10.407 10.407 0 0 1-.887-2.238 81.736 81.736 0 0 1-1.627-5.568c-.562-2.198-.986-4.209-1.213-5.677a10.092 10.092 0 0 1-.286-2.385Z" fill="#1F9ED3"/><path d="m425.772 435.994-.651.453a13.81 13.81 0 0 0 5.158.986 97.273 97.273 0 0 1-1.203 11.098 124.633 124.633 0 0 0 4.152-11.068c3.751.503 7.569.017 11.074-1.41a170.952 170.952 0 0 0-18.53-.059Z" fill="#917F50" opacity=".3"/><path d="m444.83 431.585-19.852-.118a2.357 2.357 0 0 0-2.371 2.342l-.002.414a2.355 2.355 0 0 0 2.343 2.369l19.851.118a2.356 2.356 0 0 0 2.371-2.342l.002-.413a2.356 2.356 0 0 0-2.342-2.37Z" fill="#135F7F"/><path d="m416.246 121.516-.786-32.024a5.14 5.14 0 0 0 .307 1.61c.206.578.504 1.119.88 1.602 2.89 3.714 10.966 6.087 24.071 7.085l.786 32.024c-13.105-.999-21.18-3.372-24.07-7.085a5.534 5.534 0 0 1-.881-1.602 4.738 4.738 0 0 1-.307-1.61Z" fill="#0F7099"/><path d="M416.805 116.948c.004.789-.083 1.576-.26 2.345a10.271 10.271 0 0 0-.274 2.237l-.811-32.038a9.713 9.713 0 0 1 .282-2.233c.167-.77.254-1.555.26-2.344l.803 32.033Z" fill="#135F7F"/><path d="m416.027 84.93.778 32.019a5.24 5.24 0 0 0-.366-1.83 6.494 6.494 0 0 0-.892-1.544c-3.01-3.847-11.21-6.041-24.95-6.662l-.786-32.023c13.739.62 21.94 2.814 24.945 6.67.37.469.671.988.892 1.543.234.582.362 1.2.379 1.827Z" fill="#197EA9"/><path d="m390.811 71.661-1.525.037 4.284 124.301 1.526-.037-4.285-124.301Z" fill="#263238"/><path d="M528.72 251.863H379.394l-50.303-81.777h149.325l50.304 81.777Z" fill="#135F7F" fill-rule="evenodd" clip-rule="evenodd"/><path d="M478.585 169.982a.2.2 0 0 0-.169-.094H329.091a.196.196 0 0 0-.168.301l50.303 81.778a.198.198 0 0 0 .168.094H528.72a.198.198 0 0 0 .168-.301l-50.303-81.778Zm-.279.301 50.06 81.383H379.505l-50.061-81.383h148.862Z" fill="#0C3F54" fill-rule="evenodd" clip-rule="evenodd"/><path d="M278.492 251.863v142.42h100.803v-142.42l-50.402-81.777-50.401 81.777Z" fill="#197EA9" fill-rule="evenodd" clip-rule="evenodd"/><path d="M528.72 251.863H379.295v142.42H528.72v-142.42Z" fill="#C7E7F4" fill-rule="evenodd" clip-rule="evenodd"/><path d="M453.216 278.333h-20.16V328.9h20.16v-50.567Z" fill="#FBFAF1" fill-rule="evenodd" clip-rule="evenodd"/><path d="M454.205 278.333a.988.988 0 0 0-.989-.988h-20.16a.988.988 0 0 0-.988.988V328.9c0 .546.442.988.988.988h20.16a.988.988 0 0 0 .989-.988v-50.567Zm-1.977.987v48.593h-18.184V279.32h18.184Z" fill="#1F9ED3" fill-rule="evenodd" clip-rule="evenodd"/><path d="M422.383 278.333h-19.765V328.9h19.765v-50.567Z" fill="#FBFAF1" fill-rule="evenodd" clip-rule="evenodd"/><path d="M423.371 278.333a.988.988 0 0 0-.988-.988h-19.765a.988.988 0 0 0-.989.988V328.9c0 .546.443.988.989.988h19.765a.988.988 0 0 0 .988-.988v-50.567Zm-1.976.987v48.593h-17.789V279.32h17.789Z" fill="#1F9ED3" fill-rule="evenodd" clip-rule="evenodd"/><path d="M510.14 278.333h-38.344v79.012h38.344v-79.012Z" fill="#F4DC9F" fill-rule="evenodd" clip-rule="evenodd"/><path d="M345.594 377.943H270.19v17.575h.239c2.116 7.641 18.082 13.58 37.463 13.58s35.347-5.939 37.464-13.58h.238v-17.575Z" fill="#C1A96B" fill-rule="evenodd" clip-rule="evenodd"/><path d="M341.864 400.435v-18.498h-2.665v20.384c.993-.6 1.885-1.23 2.665-1.886Zm-9.059 4.844v-23.342h-2.665v24.212c.921-.274 1.81-.564 2.665-.87Zm-9.06 2.404v-25.746h-2.664v26.198a74.944 74.944 0 0 0 2.664-.452Zm-9.059 1.167v-26.913h-2.664v27.07c.898-.04 1.786-.092 2.664-.157Zm-9.059.221v-27.134h-2.664v27.031c.879.047 1.767.081 2.664.103Zm-9.059-.676v-26.458h-2.664v26.072c.872.142 1.761.271 2.664.386Zm-9.059-1.725v-24.733h-2.664v23.968c.859.27 1.748.525 2.664.765Zm-9.059-3.319v-21.414h-2.664v19.88a27.343 27.343 0 0 0 2.664 1.534Z" fill="#F1D386" fill-rule="evenodd" clip-rule="evenodd" opacity=".5"/><path d="M345.594 379.141c0 8.457-16.88 15.312-37.702 15.312s-37.702-6.855-37.702-15.312c0-8.456 16.88-15.311 37.702-15.311s37.702 6.855 37.702 15.311Z" fill="#F1D386"/><path d="M337.601 378.076c0 6.103-13.301 11.051-29.709 11.051-16.407 0-29.708-4.948-29.708-11.051s13.301-11.05 29.708-11.05c16.408 0 29.709 4.947 29.709 11.05Z" fill="#F7E5B6"/><path d="M348.974 354.296h-75.403v17.574h.238c2.117 7.642 18.082 13.581 37.463 13.581 19.382 0 35.347-5.939 37.464-13.581h.238v-17.574Z" fill="#C1A96B" fill-rule="evenodd" clip-rule="evenodd"/><path d="M345.244 376.788V358.29h-2.664v20.383a20.875 20.875 0 0 0 2.664-1.885Zm-9.059 4.844V358.29h-2.664v24.212c.921-.274 1.81-.564 2.664-.87Zm-9.059 2.403V358.29h-2.664v26.198a77.273 77.273 0 0 0 2.664-.453Zm-9.059 1.168V358.29h-2.665v27.07c.898-.04 1.787-.092 2.665-.157Zm-9.059.221V358.29h-2.665v27.031c.879.047 1.768.081 2.665.103Zm-9.059-.676V358.29h-2.665v26.072c.873.142 1.762.271 2.665.386Zm-9.059-1.725V358.29h-2.665v23.968c.86.27 1.749.525 2.665.765Zm-9.059-3.319V358.29h-2.665v19.88a27.159 27.159 0 0 0 2.665 1.534Z" fill="#F1D386" fill-rule="evenodd" clip-rule="evenodd" opacity=".5"/><path d="M348.974 355.494c0 8.456-16.88 15.311-37.702 15.311s-37.702-6.855-37.702-15.311 16.88-15.311 37.702-15.311 37.702 6.855 37.702 15.311Z" fill="#F1D386"/><path d="M340.981 354.429c0 6.103-13.301 11.051-29.709 11.051-16.407 0-29.708-4.948-29.708-11.051s13.301-11.051 29.708-11.051c16.408 0 29.709 4.948 29.709 11.051Z" fill="#F7E5B6"/><path d="M353.715 329.305h-75.404v17.574h.238c2.117 7.641 18.083 13.58 37.464 13.58s35.346-5.939 37.463-13.58h.239v-17.574Z" fill="#C1A96B" fill-rule="evenodd" clip-rule="evenodd"/><path d="M349.984 351.797v-18.498h-2.664v20.383a20.875 20.875 0 0 0 2.664-1.885Zm-9.059 4.844v-23.342h-2.664v24.212c.921-.274 1.81-.564 2.664-.87Zm-9.059 2.403v-25.745h-2.664v26.198a77.687 77.687 0 0 0 2.664-.453Zm-9.059 1.168v-26.913h-2.664v27.07c.898-.04 1.786-.092 2.664-.157Zm-9.059.22v-27.133h-2.664v27.031c.879.047 1.767.081 2.664.102Zm-9.059-.675v-26.458h-2.665v26.072c.873.142 1.762.271 2.665.386Zm-9.059-1.726v-24.732h-2.665v23.968c.86.27 1.749.525 2.665.764Zm-9.059-3.318v-21.414h-2.665v19.88a27.363 27.363 0 0 0 2.665 1.534Z" fill="#F1D386" fill-rule="evenodd" clip-rule="evenodd" opacity=".5"/><path d="M353.715 330.503c0 8.456-16.88 15.311-37.702 15.311s-37.702-6.855-37.702-15.311 16.88-15.311 37.702-15.311 37.702 6.855 37.702 15.311Z" fill="#F1D386"/><path d="M345.722 329.438c0 6.103-13.301 11.051-29.709 11.051-16.407 0-29.708-4.948-29.708-11.051s13.301-11.051 29.708-11.051c16.408 0 29.709 4.948 29.709 11.051Z" fill="#F7E5B6"/><path d="M354.686 304.692h-75.404v17.575h.239c2.117 7.641 18.082 13.58 37.463 13.58s35.347-5.939 37.464-13.58h.238v-17.575Z" fill="#C1A96B" fill-rule="evenodd" clip-rule="evenodd"/><path d="M350.956 327.184v-18.498h-2.665v20.384c.994-.6 1.885-1.23 2.665-1.886Zm-9.059 4.844v-23.342h-2.665v24.212c.921-.274 1.81-.564 2.665-.87Zm-9.059 2.404v-25.746h-2.665v26.198a75.392 75.392 0 0 0 2.665-.452Zm-9.059 1.167v-26.913h-2.665v27.07c.898-.04 1.787-.092 2.665-.157Zm-9.059.221v-27.134h-2.665v27.031c.879.047 1.768.081 2.665.103Zm-9.06-.676v-26.458h-2.664v26.073c.873.141 1.761.27 2.664.385Zm-9.059-1.725v-24.733h-2.664v23.968c.859.27 1.748.525 2.664.765Zm-9.059-3.318v-21.415h-2.664v19.88a27.345 27.345 0 0 0 2.664 1.535Z" fill="#F1D386" fill-rule="evenodd" clip-rule="evenodd" opacity=".5"/><path d="M354.686 305.89c0 8.457-16.88 15.312-37.702 15.312s-37.702-6.855-37.702-15.312c0-8.456 16.88-15.311 37.702-15.311s37.702 6.855 37.702 15.311Z" fill="#F1D386"/><path d="M346.693 304.825c0 6.103-13.301 11.051-29.709 11.051-16.407 0-29.708-4.948-29.708-11.051s13.301-11.05 29.708-11.05c16.408 0 29.709 4.947 29.709 11.05Z" fill="#F7E5B6"/><path d="M296.593 397.526h-75.816v17.671h.24c2.128 7.683 18.181 13.654 37.668 13.654 19.488 0 35.54-5.971 37.669-13.654h.239v-1.719l.001-.022-.001-.022v-15.908Z" fill="#C1A96B" fill-rule="evenodd" clip-rule="evenodd"/><path d="M292.843 420.141v-18.599h-2.679v20.495a21.141 21.141 0 0 0 2.679-1.896Zm-9.109 4.871v-23.47h-2.679v24.344c.926-.275 1.82-.567 2.679-.874Zm-9.108 2.416v-25.886h-2.679v26.341c.91-.138 1.803-.29 2.679-.455Zm-9.109 1.174v-27.06h-2.679v27.218c.903-.04 1.797-.093 2.679-.158Zm-9.108.222v-27.282h-2.679v27.179c.883.047 1.777.081 2.679.103Zm-9.109-.679v-26.603h-2.679v26.215c.877.142 1.771.272 2.679.388Zm-9.109-1.735v-24.868h-2.679v24.099a58.47 58.47 0 0 0 2.679.769Zm-9.108-3.337v-21.531h-2.679v19.989a27.327 27.327 0 0 0 2.679 1.542Z" fill="#F1D386" fill-rule="evenodd" clip-rule="evenodd" opacity=".5"/><path d="M296.593 398.731c0 8.502-16.972 15.395-37.908 15.395s-37.908-6.893-37.908-15.395c0-8.503 16.972-15.395 37.908-15.395s37.908 6.892 37.908 15.395Z" fill="#F1D386"/><path d="M288.557 397.66c0 6.136-13.374 11.111-29.872 11.111-16.497 0-29.871-4.975-29.871-11.111 0-6.137 13.374-11.111 29.871-11.111 16.498 0 29.872 4.974 29.872 11.111Z" fill="#F7E5B6"/><path d="M299.992 373.749h-75.816v17.671h.24c2.128 7.683 18.181 13.654 37.668 13.654s35.54-5.971 37.669-13.654h.239v-17.671Z" fill="#C1A96B" fill-rule="evenodd" clip-rule="evenodd"/><path d="M296.242 396.364v-18.599h-2.679v20.495a21.04 21.04 0 0 0 2.679-1.896Zm-9.109 4.871v-23.47h-2.679v24.344c.926-.275 1.82-.567 2.679-.874Zm-9.108 2.416v-25.886h-2.679v26.341c.91-.138 1.803-.29 2.679-.455Zm-9.109 1.174v-27.06h-2.679v27.218c.903-.04 1.796-.093 2.679-.158Zm-9.109.222v-27.282h-2.679v27.179c.884.047 1.777.081 2.679.103Zm-9.108-.679v-26.603h-2.679v26.215c.877.142 1.77.272 2.679.388Zm-9.109-1.735v-24.868h-2.679v24.099c.864.271 1.758.528 2.679.769Zm-9.109-3.336v-21.532h-2.679v19.989a27.533 27.533 0 0 0 2.679 1.543Z" fill="#F1D386" fill-rule="evenodd" clip-rule="evenodd" opacity=".5"/><path d="M299.992 374.954c0 8.502-16.972 15.395-37.908 15.395s-37.908-6.893-37.908-15.395c0-8.503 16.972-15.395 37.908-15.395s37.908 6.892 37.908 15.395Z" fill="#F1D386"/><path d="M291.955 373.883c0 6.137-13.373 11.111-29.871 11.111-16.497 0-29.871-4.974-29.871-11.111 0-6.136 13.374-11.111 29.871-11.111 16.498 0 29.871 4.975 29.871 11.111Z" fill="#F7E5B6"/><path d="M298.663 348.621h-75.816v17.671h.24c2.128 7.683 18.181 13.655 37.668 13.655s35.54-5.972 37.669-13.655h.239v-17.671Z" fill="#C1A96B" fill-rule="evenodd" clip-rule="evenodd"/><path d="M294.912 371.237v-18.6h-2.679v20.496a21.243 21.243 0 0 0 2.679-1.896Zm-9.108 4.87v-23.47h-2.679v24.345a51.359 51.359 0 0 0 2.679-.875Zm-9.109 2.417v-25.887h-2.679v26.341a75.8 75.8 0 0 0 2.679-.454Zm-9.108 1.173v-27.06h-2.68v27.218a88.55 88.55 0 0 0 2.68-.158Zm-9.109.222v-27.282h-2.679v27.179a89.83 89.83 0 0 0 2.679.103Zm-9.109-.679v-26.603h-2.679v26.215c.877.143 1.771.272 2.679.388Zm-9.108-1.735v-24.868h-2.679v24.099c.864.272 1.757.528 2.679.769Zm-9.109-3.336v-21.532h-2.679v19.989a27.533 27.533 0 0 0 2.679 1.543Z" fill="#F1D386" fill-rule="evenodd" clip-rule="evenodd" opacity=".5"/><path d="M298.663 349.826c0 8.502-16.972 15.395-37.908 15.395s-37.908-6.893-37.908-15.395c0-8.502 16.972-15.395 37.908-15.395s37.908 6.893 37.908 15.395Z" fill="#F1D386"/><path d="M290.626 348.755c0 6.137-13.374 11.111-29.871 11.111s-29.871-4.974-29.871-11.111c0-6.136 13.374-11.111 29.871-11.111s29.871 4.975 29.871 11.111Z" fill="#F7E5B6"/><path d="M257.964 434.294h-88.181v20.552h.279c2.475 8.936 21.146 15.882 43.811 15.882 22.666 0 41.337-6.946 43.812-15.882h.279v-20.552Z" fill="#C1A96B" fill-rule="evenodd" clip-rule="evenodd"/><path d="M253.602 460.597v-21.633h-3.116v23.838a24.68 24.68 0 0 0 3.116-2.205Zm-10.594 5.665v-27.298h-3.116v28.315c1.077-.32 2.116-.66 3.116-1.017Zm-10.595 2.81v-30.108h-3.116v30.637a86.69 86.69 0 0 0 3.116-.529Zm-10.594 1.365v-31.473h-3.116v31.657c1.051-.046 2.09-.108 3.116-.184Zm-10.594.259v-31.732h-3.116v31.612c1.028.054 2.067.094 3.116.12Zm-10.594-.79v-30.942h-3.116v30.49c1.021.166 2.06.317 3.116.452Zm-10.594-2.018v-28.924h-3.116v28.029c1.005.316 2.044.614 3.116.895Zm-10.594-3.881v-25.043h-3.116v23.249c.949.624 1.99 1.224 3.116 1.794Z" fill="#F1D386" fill-rule="evenodd" clip-rule="evenodd" opacity=".5"/><path d="M257.964 435.695c0 9.889-19.74 17.905-44.091 17.905-24.35 0-44.09-8.016-44.09-17.905 0-9.889 19.74-17.906 44.09-17.906 24.351 0 44.091 8.017 44.091 17.906Z" fill="#F1D386"/><path d="M248.616 434.449c0 7.138-15.555 12.923-34.742 12.923-19.188 0-34.743-5.785-34.743-12.923 0-7.137 15.555-12.923 34.743-12.923 19.187 0 34.742 5.786 34.742 12.923Z" fill="#F7E5B6"/><path d="M261.917 406.639h-88.18v18.5l-.001.029.001.028v1.996h.278c2.476 8.936 21.147 15.881 43.812 15.881s41.336-6.945 43.812-15.881h.278v-20.553Z" fill="#C1A96B" fill-rule="evenodd" clip-rule="evenodd"/><path d="M257.555 432.943V411.31h-3.116v23.838a24.579 24.579 0 0 0 3.116-2.205Zm-10.594 5.665V411.31h-3.116v28.315c1.077-.32 2.116-.66 3.116-1.017Zm-10.595 2.81V411.31h-3.116v30.637a86.69 86.69 0 0 0 3.116-.529Zm-10.594 1.365V411.31h-3.116v31.657c1.051-.046 2.09-.108 3.116-.184Zm-10.594.258V411.31h-3.116v31.612c1.028.054 2.067.094 3.116.119Zm-10.594-.789V411.31h-3.116v30.49c1.021.166 2.06.317 3.116.452Zm-10.594-2.019V411.31h-3.116v28.029a65.99 65.99 0 0 0 3.116.894Zm-10.594-3.88V411.31h-3.116v23.248c.949.625 1.99 1.224 3.116 1.795Z" fill="#F1D386" fill-rule="evenodd" clip-rule="evenodd" opacity=".5"/><path d="M261.917 408.04c0 9.889-19.74 17.906-44.09 17.906-24.35 0-44.09-8.017-44.09-17.906s19.74-17.905 44.09-17.905c24.35 0 44.09 8.016 44.09 17.905Z" fill="#F1D386"/><path d="M252.569 406.795c0 7.137-15.555 12.923-34.742 12.923-19.188 0-34.743-5.786-34.743-12.923 0-7.137 15.555-12.923 34.743-12.923 19.187 0 34.742 5.786 34.742 12.923Z" fill="#F7E5B6"/><path d="M142.507 257.789c-6.641-6.005 2.767-25.81 8.302-34.963h17.788l3.163 21.729-9.092 15.407c-8.381.632-16.932-1.185-20.161-2.173Z" fill="#FBFAF1"/><path d="M150.617 222.486h18.275l3.222 22.138-9.243 15.664-.178.013c-8.434.637-17.029-1.19-20.285-2.186l-.073-.023s1.709 1.545-.056-.05c-1.765-1.596-2.43-4.078-2.395-6.966.035-2.893.773-6.254 1.884-9.693 2.225-6.878 5.974-14.142 8.749-18.733l.1-.164Zm.384.681c-2.748 4.569-6.408 11.694-8.585 18.426-1.102 3.408-1.817 6.696-1.851 9.491-.033 2.664.553 4.826 1.949 6.241a.89.89 0 0 0 .386.227c3.378.987 11.538 2.656 19.565 2.084l8.941-15.151-3.103-21.318h-17.302Z" fill="#99D2EB" fill-rule="evenodd" clip-rule="evenodd"/><path d="M266.633 178.184c3.479 3.635.132 23.375-1.977 32.79l-8.301-1.382c-3.004-4.425-3.36-9.613-3.162-11.655l-.989-6.716.989-11.061c3.03-2.173 9.961-5.61 13.44-1.976Z" fill="#FBFAF1"/><path d="M252.429 245.596c4.933.301 10.288-23.238 12.348-35.045l-8.347-1.597-12.378 26.793c.737 3.158 3.444 9.549 8.377 9.849Zm-64.73-61.89 2.761-14.741 20.537-1.325-2.428 19.339c-8.787 3.507-18.026-.198-20.87-3.273Z" fill="#FBFAF1"/><path d="M223.769 145.238c.222-4.925-2.137-10.841-3.262-13.159l-18.307 3.428-5.067 5.441-8.178 11.538 6.089 18.635 14.734-.806c4.384.565 5.468.981 10.268.462 4.706-.508 6.773-10.961 5.828-15.161 6.749-3.002.346-7.697-2.105-10.378Z" fill="#FBFAF1"/><path d="M198.593 151.564c.59.298 1.129.702 1.548 1.095a.301.301 0 0 1-.411.438 6.241 6.241 0 0 0-1.408-.998c-.532-.27-1.081-.427-1.588-.395-.495.032-.971.244-1.379.76-.417.526-.772 1.381-.972 2.709a.301.301 0 0 1-.594-.09c.209-1.382.589-2.352 1.095-2.991.514-.65 1.147-.944 1.812-.986.651-.042 1.31.16 1.897.458Z" fill="#197EA9" fill-rule="evenodd" clip-rule="evenodd"/><path d="M195.702 151.67c.164.021.281.17.261.335-.091.747-.066 1.82.276 2.634.169.402.407.721.727.918.316.194.745.29 1.338.186a.3.3 0 0 1 .104.591c-.711.124-1.294.019-1.756-.266-.458-.281-.765-.718-.967-1.197-.399-.949-.415-2.14-.318-2.939a.301.301 0 0 1 .335-.262Z" fill="#197EA9" fill-rule="evenodd" clip-rule="evenodd"/><path d="M146.855 225.393c4.297-17.185 19.196-38.282 27.474-42.271l7.799-3.182v22.755c-9.885 17.616-8.589 24.278-11.381 27.83h-3.331a43.503 43.503 0 0 1-19.14-4.436l-1.421-.696Z" fill="#135F7F"/><path d="M171.655 188.358c6.798-8.028 12.766-9.648 15.474-9.591 22.433-.026 33.444 6.15 35.828 9.591 15.94 20.712 1.793 66.333-5.755 92.155l-7.419-4.118c-17.618-9.78-37.893-9.346-55.023 1.264l3.362-14.734 6.522-27.259c1.67-14.303-1.486-37.273 7.011-47.308Z" fill="#197EA9"/><path d="M229.884 223.762c-1.489 18.587-7.511 39.118-11.898 54.077l-.784 2.674-7.419-4.118a55.555 55.555 0 0 0-15.932-5.88c17.134-13.087 30.738-38.37 30.583-55.066l5.45 8.313Z" fill="#166E94" fill-rule="evenodd" clip-rule="evenodd"/><path d="M216.249 120.376c-10.882-5.252-20.287.394-23.793 4.772-19.521 10.233-7.23 30.382 1.355 39.178l4.746-4.605c-8.158-1.501-7.345-6.954-4.091-9.925 3.253-2.972 6.972 1.467 10.588 3.047 2.892 1.264.215-6.888-1.485-11.122 3.644-.289 4.63-3.467 4.428-5.271 5.569 2.291 6.563-.386 7.866-2.029 4.942 3.624 13.988-7.48.386-14.045Z" fill="#0C3F54"/><path d="M220.781 146.951c-.042.78-.591 1.396-1.224 1.375-.634-.021-1.113-.671-1.07-1.452.043-.78.591-1.396 1.224-1.375.634.021 1.113.671 1.07 1.452Z" fill="#197EA9"/><path d="M182.3 129.846c4.743-4.549 10.619-4.489 12.948-3.723l-8.289 20.32 3.389 12.908 8.492.382c1.211 4.59.24 10.594-1.93 10.737-3.317.218-4.433.535-6.617.07-.174-1.981-2.517-5.498-5.13-8.687-3.294-4.021-7.094-7.848-8.752-12.773-2.655-7.886-.173-13.42 5.889-19.234Z" fill="#0C3F54"/><path d="M225.227 158.632c-1.173.979-4.32 1.501-5.313.856-.042 1.23.539 3.589 3.07 3.945.444.063.85-.173 1.111-.555.553-.806.896-1.782.996-2.828l.136-1.418Zm255.506-40.393a.395.395 0 0 1 .705 0l2.709 5.353a.393.393 0 0 0 .175.174l5.356 2.708a.395.395 0 0 1 0 .705l-5.356 2.707a.393.393 0 0 0-.175.174l-2.709 5.353a.395.395 0 0 1-.705 0l-2.709-5.353a.396.396 0 0 0-.174-.174l-5.356-2.707a.394.394 0 0 1 0-.705l5.356-2.708a.396.396 0 0 0 .174-.174l2.709-5.353Z" fill="#99D2EB"/><path d="M547.539 199.622a.395.395 0 0 1 .705 0l2.045 4.041a.393.393 0 0 0 .175.174l4.043 2.044a.395.395 0 0 1 0 .705l-4.043 2.044a.393.393 0 0 0-.175.174l-2.045 4.041a.395.395 0 0 1-.705 0l-2.045-4.041a.396.396 0 0 0-.174-.174l-4.044-2.044a.395.395 0 0 1 0-.705l4.044-2.044a.396.396 0 0 0 .174-.174l2.045-4.041Z" fill="#197EA9"/><path d="M316.484 109.943a.395.395 0 0 1 .705 0l3.174 6.271a.398.398 0 0 0 .174.175l6.275 3.171a.395.395 0 0 1 0 .705l-6.275 3.172a.396.396 0 0 0-.174.174l-3.174 6.271a.395.395 0 0 1-.705 0l-3.174-6.271a.396.396 0 0 0-.174-.174l-6.275-3.172a.395.395 0 0 1 0-.705l6.275-3.171a.398.398 0 0 0 .174-.175l3.174-6.271Z" fill="#EAF6FB"/><path d="M248.646 246.728c-8.064-.949-15.68-12.511-18.776-17.383l14.428-11.654c3.953 6.452 12.017 21.925 11.069 25.086-.949 3.16-5.601 3.951-6.721 3.951Z" fill="#FBFAF1"/><path d="M209.314 202.283c-1.915-5.315 1.042-10.244 4.287-13.581 2.558-2.633 6.5-3.39 9.82-1.82 13.951 6.596 21.627 26.414 23.447 35.154-2.768 10.074-9.29 10.864-15.022 11.852-6.127-7.704-19.686-23.704-22.532-31.605Z" fill="#197EA9"/><path d="M210.043 193.166c1.872-4.079 5.4-6.743 8.053-7.702l.265.731c-2.472.894-5.832 3.419-7.611 7.295-1.764 3.846-1.992 9.065 1.847 15.42l19.553 24.538-.608.485-19.584-24.579-.013-.021c-3.973-6.562-3.786-12.06-1.902-16.167Z" fill="#135F7F" fill-rule="evenodd" clip-rule="evenodd"/><path d="M265.708 171.494a1.022 1.022 0 0 1-1.171.685l-6.359-1.379a.836.836 0 0 1-.556-.396.831.831 0 0 1-.069-.678l.293-.944 8.151 1.768-.289.944Z" fill="#1F9ED3"/><path d="m256.297 167.847 11.568 2.509a2.473 2.473 0 0 1 1.974 2.17c.036.348-.003.7-.113 1.032l-8.464 27.246a3.05 3.05 0 0 1-3.49 2.046l-11.574-2.511a2.473 2.473 0 0 1-1.974-2.17c-.036-.348.003-.7.113-1.032l8.474-27.248a3.05 3.05 0 0 1 3.486-2.042Z" fill="#0C3F54"/><path d="M265.708 171.494a1.022 1.022 0 0 1-1.171.685l-6.359-1.379a.825.825 0 0 1-.663-.728.827.827 0 0 1 .038-.346l.293-.944 8.151 1.768-.289.944Z" fill="#fff" opacity=".4"/><path d="m255.409 168.252 11.568 2.509a1.942 1.942 0 0 1 1.309.935 1.958 1.958 0 0 1 .162 1.6l-8.462 27.244a2.41 2.41 0 0 1-2.761 1.617l-11.568-2.51a1.943 1.943 0 0 1-1.313-.933 1.957 1.957 0 0 1-.163-1.602l8.466-27.244a2.412 2.412 0 0 1 2.762-1.616Z" fill="#99D2EB"/><path d="m255.577 167.711 11.568 2.51a2.458 2.458 0 0 1 1.653 1.181 2.474 2.474 0 0 1 .207 2.021l-8.461 27.238a3.046 3.046 0 0 1-3.49 2.042l-11.568-2.509a2.473 2.473 0 0 1-1.974-2.17c-.035-.348.004-.7.115-1.032l8.462-27.245a3.049 3.049 0 0 1 3.488-2.036Zm-11.396 29.401a1.936 1.936 0 0 0 .162 1.6 1.949 1.949 0 0 0 1.31.935l11.568 2.509a2.41 2.41 0 0 0 2.761-1.617l8.466-27.243a1.956 1.956 0 0 0-.716-2.208 1.938 1.938 0 0 0-.755-.327l-11.568-2.509a2.41 2.41 0 0 0-2.762 1.616l-8.466 27.244Z" fill="#135F7F"/><path d="M265.282 170.409a1.66 1.66 0 0 1-1.896 1.11l-5.247-1.138a1.336 1.336 0 0 1-1.073-1.179c-.019-.19.002-.381.062-.562l8.154 1.769Z" fill="#135F7F"/><path d="M262.636 191.379c2.214 3.003 2.372 7.047 2.175 8.693v3.161h-4.745v-5.73c0-2.568-2.768-3.753-3.163-6.124-.395-2.371 2.965-3.754 5.733 0Z" fill="#FBFAF1"/><path d="M162.075 344.703c-11.069-47.882-9.224-65.251-6.918-67.951 19.607-12.8 47.7-7.44 59.296-1.778l27.576 21.699a12.241 12.241 0 0 1 4.019 13.57l-24.773 74.756c-7.85 7.969-16.639 2.766-18.879 0-7.115-30.815 4.282-62.881 10.871-75.062l-28.221-8.47 4.503 45.211-24.562 72.656c-2.846-12.326-12.926-19.849-18.527-18.137-.632-21.808 11.267-46.222 15.615-56.494Z" fill="#917F50"/><path d="M200.18 367.305c-.702-24.361 7.546-46.939 12.882-56.986.197-.129.397-.256.6-.381l16.8 4.74c-6.061 14.354-20.556 45.156-30.043 53.531-.08-.294-.16-.596-.239-.904Z" fill="#605436" fill-rule="evenodd" clip-rule="evenodd" opacity=".4"/><path d="M176.471 286.464c-.723-6.405-.13-13.165.466-17.538l1.567.214c-.589 4.318-1.163 10.931-.462 17.147.707 6.268 2.679 11.869 6.935 14.509l-.834 1.342c-4.915-3.048-6.956-9.319-7.672-15.674Z" fill="#605436" fill-rule="evenodd" clip-rule="evenodd" opacity=".6"/><path d="M210.836 458.362H110.152v23.467h.318c2.826 10.203 24.145 18.133 50.024 18.133s47.197-7.93 50.024-18.133h.318v-23.467Z" fill="#C1A96B" fill-rule="evenodd" clip-rule="evenodd"/><path d="M205.855 488.395v-24.7h-3.558v27.218a28.054 28.054 0 0 0 3.558-2.518Zm-12.096 6.468v-31.168h-3.558v32.33a68.477 68.477 0 0 0 3.558-1.162Zm-12.097 3.209v-34.377h-3.557v34.981c1.208-.183 2.395-.385 3.557-.604Zm-12.096 1.559v-35.936h-3.558v36.146c1.199-.053 2.386-.123 3.558-.21Zm-12.096.295v-36.231h-3.558v36.094c1.174.062 2.36.108 3.558.137Zm-12.097-.902v-35.329h-3.557v34.814c1.165.189 2.351.361 3.557.515Zm-12.096-2.304v-33.025h-3.558v32.004c1.148.36 2.335.701 3.558 1.021Zm-12.096-4.431v-28.594h-3.558v26.545a36.484 36.484 0 0 0 3.558 2.049Z" fill="#F1D386" fill-rule="evenodd" clip-rule="evenodd" opacity=".5"/><path d="M210.836 459.962c0 11.291-22.539 20.445-50.342 20.445-27.804 0-50.342-9.154-50.342-20.445s22.538-20.444 50.342-20.444c27.803 0 50.342 9.153 50.342 20.444Z" fill="#F1D386"/><path d="M200.163 458.54c0 8.149-17.761 14.756-39.669 14.756-21.909 0-39.669-6.607-39.669-14.756 0-8.149 17.76-14.756 39.669-14.756 21.908 0 39.669 6.607 39.669 14.756Z" fill="#F7E5B6"/><path d="M248.151 392.77c.759-.079.952 2.778.801 3.774-.151.996-2.869 4.563-8.211 6.295-5.341 1.732-13.816 1.448-17.063 1.596-3.247.149-6.175 2.118-10.705 3.254-3.971.97-9.524.486-11.619-1.191a3.936 3.936 0 0 1-1.108-3.038c-.221-2.108-.042-2.638.213-2.644l47.692-8.046Z" fill="#135F7F"/><path d="M199.629 394.481c-.124 2.13.326 5.656.889 7.714a6.65 6.65 0 0 0 4.529 2.509c3.706.646 7.519.247 11.01-1.154a31.657 31.657 0 0 1 8.34-1.811 81.569 81.569 0 0 0 11.346-.806 27.084 27.084 0 0 0 8.074-2.721 7.842 7.842 0 0 0 4.496-5.118 7.695 7.695 0 0 0-5.013-7.125c-2.786-.857-7.57.876-10.466 1.203-2.582.263-9.816-.467-11.266-3.161-6.035 7.319-15.219 3.951-19.567 0 .215 2.759-1.854 7.751-2.372 10.47Zm-52.427 6.321a25.83 25.83 0 0 1-7.72 5.181c-1.973 1.099-4.002 2.169-4.706 4.393 0 .254 1.014 1.746.958 2a14.539 14.539 0 0 0 0 3.323c.169 3.886 2.029 6.843 2.226 10.729a27.32 27.32 0 0 0 .507 4.562 29.934 29.934 0 0 1 0 5.632v5.632c.099.814.099 1.637 0 2.45-.225.789 11.863 8.195 16.766 11.067l.874.451a12.632 12.632 0 0 0 9.27-.31c10.285-3.098 9.891-6.927 9.891-6.927a8.446 8.446 0 0 0-4.311-7.66c-.589-.4-1.211-.749-1.86-1.042a12.831 12.831 0 0 0-7.806-.957 14.09 14.09 0 0 1-.366-4.844 53.649 53.649 0 0 1 .338-7.378 19.233 19.233 0 0 1 3.523-7.519c0-5.288-3.861-18.783-17.584-18.783Z" fill="#197EA9"/><path d="M133.424 412.516c-2.311.845-.367 7.322.958 13.433 1.324 6.111 2 8.251 1.155 13.292s-1.324 7.294.676 9.208a205.163 205.163 0 0 0 18.062 9.969 60.866 60.866 0 0 1-3.184-19.064c-.141-11.265-.732-18.474-5.635-23.684a12.435 12.435 0 0 0-12.032-3.154Z" fill="#135F7F"/><path d="M175.183 449.013c-.394 2.14-6.65 6.167-13.694 5.632-7.045-.535-7.58-2.169-8.115-10.87-.536-8.702-.564-20.67-3.833-26.049-3.268-5.378-7.777-8.73-14.765-7.322-.817.338-3.099 2.422-2.423 4.534 0 0 0-1.633 2.958-2.281 2.959-.647 5.354-.309 9.158 3.605 4.452 4.562 4.903 14.559 4.903 23.148s.141 18.53 6.876 19.712a24.425 24.425 0 0 0 18.569-5.181c.504-1.592.63-3.279.366-4.928Z" fill="#135F7F"/><path d="M448.278 520.757c-4.158-5.46 12.527-18.497 21.532-26.984l7.926-2.45c9.06-.762 7.6 7.819 5.919 13.775-30.233 24.94-32.255 19.757-35.377 15.659Zm92.521-18.436c2.846-1.738 6.193-8.362 7.511-11.457l1.383-18.568c1.318-1.646 4.784-5.096 8.104-5.728 4.151-.79 9.044 5.669 8.302 9.284-1.582 7.704-.791 7.704 0 12.444 3.007 18.031-6.325 23.309-6.325 24.099-22.335 8.889-22.533-7.901-18.975-10.074Z" fill="#197EA9"/><path d="m469.236 494.019-7.237-20.008 17.803-7.641 2.319 27.557c-.837 5.145-5.659 9.793-7.034 10.701-8.68 5.735-12.305 5.413-13.856 3.392-.912-1.186-.398-2.838.501-4.033l7.504-9.968Zm77.493-19.155-11.464-17.185 14.034-10.074 9.092 20.741c2.306 7.308 6.008 23.427 2.372 29.432-4.546 7.506-17.196 6.321-14.034 0 2.53-5.057 1.054-17.383 0-22.914Z" fill="#FBFAF1"/><path d="M445.334 418.37c-5.06-20.859-5.535-65.185-5.139-84.74l59.888-4.741c14.25 15.296 17.258 63.917 23.323 84.148 16.801 9.482 25.366 27.72 27.474 35.161-.158 13.432-11.135 12.642-17.196 11.851l-29.845-39.111-30.834-52.345-3.755 55.901c9.961 15.012 12.583 37.07 12.649 46.222-8.38 10.904-18.513 8.362-22.532 5.728l-14.033-58.074Z" fill="#0C3F54"/><path d="m439.128 231.521 17.669-6.335c.659-1.186 4.744-2.569 14.231-.988 7.878 1.312 21.254 9.525 30.053 15.818 2.853 2.04 3.828 5.77 2.614 9.059-4.073 11.031-9.477 27.931-9.344 34.975.158 8.375 5.6 35.094 8.301 47.407-29.41 22.756-55.738 12.247-65.225 4.148 3.004-4.424.066-38.847-1.779-55.506l-16.405-1.383 9.436-35.803a16.596 16.596 0 0 1 10.449-11.392Z" fill="#197EA9"/><path d="M496.71 271.115c-1.447 5.247-2.415 9.942-2.359 12.934.158 8.376 5.6 35.095 8.302 47.408-17.431 13.486-33.778 15.288-46.179 12.833 10.01-15.191 25.994-41.543 26.248-50.642.279-9.952 4.177-33.328 6.092-43.772 2.578 2.256 5.292 10.353 7.896 21.239Z" fill="#135F7F" fill-rule="evenodd" clip-rule="evenodd" opacity=".5"/><path d="m450.077 228.543 4.744-3.16 17.788-1.186 8.697 3.951c-2.635 3.49-9.724 11.062-17.789 11.852-8.064.79-12.32-7.309-13.44-11.457Z" fill="#FBFAF1"/><path d="M461.146 165.926c-9.646-2.687-16.998 5.992-18.777 9.877l28.462 37.135c1.12.988 6.364 1.72 12.056-7.703 6.325-10.47 6.444-22.835 1.384-31.21-5.06-8.376-17.525-9.614-23.125-8.099Z" fill="#917F50"/><path d="M513.519 212.861c-10.846-8.039-9.25-17.251-9.787-24.128-.82-10.514-10.582-26.933-24.51-16.456-.809 7.673 4.339 10.537 7.013 11.009 6.554 6.899.617 16.596 4.357 31.438 3.739 14.843 7.7 15.095 10.874 14.509 2.539-.468 2.817-2.395 2.639-3.3.703.77 2.687 2.105 5.003 1.292 2.315-.813 1.894-3.063 1.394-4.086 3.633 3.525 13.862-2.24 3.017-10.278Z" fill="#917F50"/><path d="M485.605 176.84c-.881-2.402-2.184-4.362-3.88-5.521l.893-1.304c2.06 1.408 3.524 3.696 4.471 6.281.951 2.594 1.408 5.552 1.408 8.396h-1.582c0-2.687-.433-5.458-1.31-7.852Z" fill="#1F9ED3" fill-rule="evenodd" clip-rule="evenodd"/><path d="m453.678 212.649 19.599-1.476.872 14.738-3.186 2.94c-5.169 4.772-13.362 3.892-17.399-1.868" fill="#FBFAF1"/><path d="m453.605 221.809.036-4.406.08-.414 19.52-4.096.186.821.169 2.849c-10.431 14.267-16.885 8.966-19.991 5.246Z" fill="#EFEDD8" fill-rule="evenodd" clip-rule="evenodd"/><path d="M455.869 220.829c-14.737-3.983-15.431-26.332-13.936-37.009 6.387-8.57 36.21-11.927 36.21 9.365 0 6.876.211 14.37-1.76 18.143-6.504 10.886-16.386 10.87-20.514 9.501Z" fill="#FBFAF1"/><path d="M484.8 196.24c-3.258-4.168-6.397-1.551-7.418.161.676 3.344-.417 10.905-1.048 14.268 5.664-.559 11.403-10.671 8.466-14.429Z" fill="#FBFAF1"/><path d="m450.755 207.358 2.346-7.604.566.175-2.346 7.604c-.115.372-.125.779-.023 1.105.1.319.298.544.604.628.33.091.63.057.881-.177a.719.719 0 0 1 .521-.175.738.738 0 0 1 .499.214.88.88 0 0 0 .429.254c.177.044.413.043.719-.07a.296.296 0 1 1 .204.555c-.401.148-.758.165-1.065.089a1.458 1.458 0 0 1-.716-.422c-.001 0-.008-.007-.027-.015a.235.235 0 0 0-.139-.007.07.07 0 0 0-.022.01c-.443.412-.974.442-1.441.314-.542-.148-.866-.556-1.012-1.022-.143-.458-.122-.988.022-1.456Z" fill="#044C6A" fill-rule="evenodd" clip-rule="evenodd"/><path d="M447.248 200.612a1.48 1.48 0 0 1-2.738-1.12 1.478 1.478 0 1 1 2.738 1.12Zm15.813 0a1.481 1.481 0 0 1-1.93.808 1.48 1.48 0 1 1 1.93-.808Z" fill="#198AB9"/><path d="M461.529 214.749c-1.555.158-2.994-.164-3.855-.517l.224-.547c.782.32 2.123.623 3.571.476 1.44-.147 2.974-.737 4.18-2.193l.455.377c-1.324 1.598-3.013 2.245-4.575 2.404Zm19.685-16.994c-.737-.122-1.507.192-1.996.538l-.342-.483c.561-.397 1.488-.795 2.434-.639.982.162 1.886.903 2.401 2.586l-.566.173c-.469-1.533-1.231-2.059-1.931-2.175Z" fill="#044C6A" fill-rule="evenodd" clip-rule="evenodd"/><path d="M481.194 199.918c.259-1.039.26-1.72.201-2.007l.58-.117c.083.409.062 1.189-.206 2.266-.27 1.088-.796 2.499-1.743 4.182l-.516-.291c.925-1.641 1.429-3.003 1.684-4.033Z" fill="#044C6A" fill-rule="evenodd" clip-rule="evenodd"/><path d="M443.16 185.284c3.366-6.423 9.289-6.123 12.649-4.543 6.523-2.766 15.417-.79 16.01 8.691.498 7.963 4.744 12.84 6.72 14.025-1.383-9.284 1.977-18.173-1.383-25.482-3.996-8.691-16.208-8.098-21.347-6.913-27.671-.988-14.231 30.767-14.231 25.876 0-3.753-.593-7.506 1.582-11.654Z" fill="#917F50"/><path d="M478.984 293.597c-4.797-.336-8.527-6.131-9.793-8.987l-3.354 2.304 3.022 19.158 9.145 4.287c4.872-2.211 2.684-12.096.98-16.762Z" fill="#EFEDD8"/><path d="M486.643 263.898c-4.902-14.854 1.251-23.045 4.546-25.481 19.654-4.911 25.182 37.543 26.394 58.371.297 5.094-1.103 10.213-4.86 13.67-2.149 1.978-4.686 3.885-7.303 5.193-5.377 2.687-23.126-1.119-32.02-3.358 7.511-7.703 6.522-16.395 3.36-19.753h19.963c-.923-3.358-5.179-13.787-10.08-28.642Z" fill="#197EA9"/><path d="M460.105 327.382c14.028-7.639 17.003-29.8 6.597-49.759-10.406-19.96-30.283-30.221-44.587-23.109l-.001-.003-15.075 7.85 3.354 6.433c-3.35 10.103-2.063 23.402 4.424 35.845 6.487 12.444 16.656 21.118 26.861 24.163l3.354 6.433 14.669-7.638.055-.029.055-.028.295-.154-.001-.004Z" fill="#C1A96B" fill-rule="evenodd" clip-rule="evenodd"/><path d="m432.013 252.26-16.421 8.55 1.439 2.762 20.541-10.696a26.644 26.644 0 0 0-5.559-.616Zm14.866 4.198L420.487 270.2l1.44 2.762 28.042-14.602a41.192 41.192 0 0 0-3.09-1.902Zm9.392 7.048-30.889 16.084 1.44 2.761 31.708-16.51a51.623 51.623 0 0 0-2.259-2.335Zm6.962 8.313-32.956 17.16 1.44 2.762 33.204-17.29a56.528 56.528 0 0 0-1.688-2.632Zm5.132 9.267-33.192 17.283 1.44 2.761 32.934-17.148a57.163 57.163 0 0 0-1.182-2.896Zm3.363 10.187-31.66 16.485 1.439 2.762 30.828-16.052a51.342 51.342 0 0 0-.607-3.195Zm1.179 11.325-27.944 14.55 1.44 2.762 26.271-13.68c.13-1.187.208-2.399.233-3.632Zm-2.729 13.359-20.32 10.581 1.44 2.761 16.067-8.366a26.295 26.295 0 0 0 2.813-4.976Z" fill="#F1D386" fill-rule="evenodd" clip-rule="evenodd" opacity=".5"/><path d="M451.978 285.289c10.491 20.124 7.381 42.485-6.946 49.946-14.328 7.46-34.448-2.805-44.939-22.929s-7.382-42.485 6.946-49.946c14.328-7.46 34.447 2.806 44.939 22.929Z" fill="#F1D386"/><path d="M445.667 288.575c8.474 16.254 6.004 34.293-5.516 40.292-11.52 5.998-27.728-2.315-36.202-18.569-8.474-16.254-6.004-34.293 5.516-40.291 11.52-5.999 27.728 2.314 36.202 18.568Z" fill="#F7E5B6"/><path d="M462.06 287.003a2.923 2.923 0 0 1 3.115-2.72l6.144.413a2.923 2.923 0 1 1-.393 5.833l-6.144-.413a2.924 2.924 0 0 1-2.722-3.113Z" fill="#FBFAF1"/><path d="M463.167 292.63a2.924 2.924 0 0 1 3.115-2.72l6.144.413a2.924 2.924 0 0 1-.393 5.834l-6.144-.414a2.923 2.923 0 0 1-2.722-3.113Zm3.252 6.66a2.925 2.925 0 0 1 3.115-2.72l3.199.215a2.924 2.924 0 1 1-.393 5.833l-3.199-.215a2.924 2.924 0 0 1-2.722-3.113Zm-1.405-17.737a2.923 2.923 0 0 1 3.115-2.72l3.199.215a2.924 2.924 0 1 1-.393 5.833l-3.199-.215a2.924 2.924 0 0 1-2.722-3.113Z" fill="#FBFAF1"/><path d="m416.118 312.852-8.159-15.765 6.224-3.217c1.191-.616 2.318-.928 3.38-.938 1.065-.017 2.019.248 2.862.795.845.538 1.537 1.329 2.076 2.37.542 1.047.782 2.065.721 3.053-.064.982-.421 1.896-1.072 2.739-.645.841-1.574 1.575-2.785 2.201l-4.167 2.154-1.387-2.679 3.628-1.875c.637-.329 1.121-.69 1.451-1.082.331-.392.509-.816.534-1.271.03-.458-.09-.946-.358-1.464-.271-.523-.604-.91-1.001-1.161-.391-.253-.848-.361-1.37-.326-.519.028-1.1.208-1.741.54l-2.249 1.162 6.748 13.04-3.335 1.724Zm4.806-11.578 7.633 5.148-3.681 1.903-7.549-5.192 3.597-1.859Zm11.661 8.685-8.414-16.257 3.235-1.672 1.028 1.986.146-.076c-.021-.392.02-.823.122-1.292.105-.477.321-.94.648-1.389.33-.456.826-.856 1.488-1.198a5.008 5.008 0 0 1 2.739-.557c.96.069 1.892.443 2.796 1.12.901.673 1.702 1.686 2.404 3.041.682 1.319 1.045 2.543 1.089 3.671.047 1.121-.174 2.103-.661 2.947-.485.836-1.177 1.487-2.076 1.951-.636.329-1.232.504-1.788.525a3.766 3.766 0 0 1-1.496-.232 4.491 4.491 0 0 1-1.153-.643l-.101.052 3.275 6.327-3.281 1.696Zm-2.142-12.005c.363.703.778 1.266 1.244 1.688.466.423.96.685 1.481.786.518.096 1.042.008 1.571-.266.534-.276.91-.656 1.129-1.139.215-.489.283-1.044.202-1.666-.079-.629-.296-1.288-.652-1.975-.353-.683-.759-1.234-1.217-1.654-.458-.42-.948-.681-1.469-.782-.521-.102-1.051-.013-1.59.266-.534.276-.913.65-1.137 1.124-.218.47-.291 1.015-.218 1.634.073.62.292 1.281.656 1.984Z" fill="#C1A96B" opacity=".6"/><path d="M529.708 81.08a.305.305 0 0 1-.305.305H486.4a.302.302 0 0 0-.149.039l-20.159 11.26a.305.305 0 0 1-.441-.352l3.098-10.556a.305.305 0 0 0-.293-.391h-17.701a.305.305 0 0 1-.305-.305V28.168c0-.168.136-.305.305-.305h78.648c.168 0 .305.137.305.305V81.08Z" fill="#99D2EB" fill-rule="evenodd" clip-rule="evenodd"/><g clip-path="url(#b)"><path d="M467.287 63.917h3.215c1.302 0 1.953-.557 1.953-1.656 0-1.071-.651-1.6-1.953-1.586h-3.215v3.242Zm3.191-9.6h-3.191v2.857h3.191c.222 0 .517.055 1.066-.417.259-.237.403-.57.403-1.016 0-.877-.61-1.35-1.109-1.391l-.36-.034Zm-6.984 13.051V50.873h7.008c.153 0 .332.013.568.027.42.053.836.132 1.246.237.56.13 1.1.333 1.608.602.508.312.939.735 1.261 1.238.385.6.583 1.303.567 2.017-.014 1.851-.804 2.867-1.51 3.312-.498.361-.789.459-.886.459.244.07.48.163.706.279.334.182.658.381.97.597.873.572 1.423 1.615 1.423 2.908 0 3.215-2.217 4.82-6.65 4.815l-6.311.004Zm30.014-12.078h-3.796v12.078h3.796V55.29Z" fill="#fff"/><path d="M479.171 42.085v10.673h3.796v-6.86h23.997v6.86h3.796V42.085h-31.589Z" fill="#3AACE2"/><path d="M500.599 55.29h-3.795v12.078h3.795V55.29Zm10.251 0-1.995 2.964-1.98-2.964h-4.115l4.059 6.011-4.059 6.067h4.115l1.98-2.964 1.995 2.964h4.115l-4.005-6.067 4.005-6.01h-4.115Z" fill="#fff"/><path d="M489.45 50.588a2.073 2.073 0 0 1 .646-1.517 2.057 2.057 0 0 1 1.51-.64 2.075 2.075 0 0 1 1.524.64 2.14 2.14 0 0 1 0 3.048 2.08 2.08 0 0 1-1.524.639 2.047 2.047 0 0 1-1.51-.64 2.09 2.09 0 0 1-.646-1.531Zm7.091 0a2.091 2.091 0 0 1 .647-1.517 2.048 2.048 0 0 1 1.51-.64 2.074 2.074 0 0 1 1.522.64 2.142 2.142 0 0 1 0 3.048 2.08 2.08 0 0 1-1.523.639 2.05 2.05 0 0 1-1.511-.64 2.091 2.091 0 0 1-.646-1.53" fill="#3AACE2"/><path d="M482.967 57.224V55.29h-3.796v12.08h3.796v-4.98c0-1.716.663-4.334 4.488-3.621v-3.534c-4.138-.555-4.488 1.99-4.488 1.99Z" fill="#fff"/></g><path d="M199.986 301.212c-12.213-2.289-18.91 2.563-20.666 5.049l-1.192-.841c2.135-3.021 9.442-8.018 22.127-5.641l-.269 1.433Z" fill="#746540" fill-rule="evenodd" clip-rule="evenodd"/><path d="M250.339 229.972c-1.36-2.763-2.867-5.7-3.838-7.561l.603-.315a380.29 380.29 0 0 1 3.846 7.576c1.357 2.758 2.585 5.374 2.983 6.567l-.645.215c-.381-1.14-1.584-3.708-2.949-6.482Z" fill="#1F9ED3" fill-rule="evenodd" clip-rule="evenodd"/><defs><linearGradient id="a" x1="142.076" x2="142.076" y1="58.741" y2="210.05" gradientUnits="userSpaceOnUse"><stop stop-color="#fff"/><stop offset="1" stop-color="#F3F3F3" stop-opacity="0"/></linearGradient><clipPath id="b"><path d="M0 0h51.785v25.284H0z" fill="#fff" transform="translate(463.494 42.085)"/></clipPath></defs></svg>