<svg width="82" height="40" viewBox="0 0 82 40" fill="none" xmlns="http://www.w3.org/2000/svg">
<g clip-path="url(#clip0_169_6554)">
<path d="M5.99675 34.5383H11.0796C13.1385 34.5383 14.1669 33.6569 14.1669 31.9185C14.1669 30.224 13.1378 29.3878 11.0796 29.4096H5.99675V34.5383ZM11.0408 19.3495H5.99675V23.87H11.0408C11.3924 23.87 11.8586 23.9583 12.7275 23.2104C13.1364 22.8364 13.3634 22.3084 13.3634 21.6036C13.3634 20.2166 12.4004 19.4687 11.6112 19.4029L11.0408 19.3495ZM0 39.9979V13.9023H11.0796C11.3208 13.9023 11.6051 13.9228 11.9772 13.9454C12.6413 14.0286 13.2995 14.1535 13.9482 14.3194C14.8327 14.5257 15.6869 14.8462 16.4895 15.2728C17.2925 15.7661 17.974 16.4355 18.483 17.231C19.0925 18.1807 19.4052 19.2921 19.3806 20.422C19.3581 23.3501 18.1088 24.957 16.9925 25.6617C16.2054 26.2329 15.7454 26.3871 15.592 26.3871C15.9773 26.4981 16.3511 26.6461 16.7083 26.8288C17.2357 27.1165 17.7476 27.432 18.2417 27.7741C19.6219 28.6781 20.4908 30.3281 20.4908 32.3747C20.4908 37.4609 16.9864 39.9999 9.97754 39.9917L0 39.9979Z" fill="white"/>
<path d="M47.4525 20.8906H41.4517V39.9979H47.4525V20.8906Z" fill="white"/>
<path d="M24.7864 0V16.8841H30.7872V6.03075H68.7285V16.8841H74.7293V0H24.7864Z" fill="white"/>
<path d="M58.6652 20.8906H52.6643V39.9979H58.6652V20.8906Z" fill="white"/>
<path d="M74.8723 20.8906L71.7175 25.5796L68.5873 20.8906H62.0814L68.4994 30.4001L62.0814 39.9979H68.5873L71.7175 35.3089L74.8723 39.9979H81.3782L75.0462 30.4001L81.3782 20.8906H74.8723Z" fill="white"/>
<path d="M41.0365 13.4507C41.0347 13.0017 41.1246 12.5571 41.3004 12.1444C41.4762 11.7316 41.7343 11.3594 42.0588 11.0507C42.3665 10.7265 42.7372 10.4694 43.1481 10.2954C43.559 10.1215 44.001 10.0345 44.4468 10.0398C44.8957 10.0343 45.3409 10.1212 45.7551 10.295C46.1692 10.4689 46.5437 10.7261 46.8553 11.0507C47.1745 11.365 47.428 11.7402 47.6011 12.1542C47.7743 12.5683 47.8634 13.0129 47.8634 13.462C47.8634 13.9111 47.7743 14.3557 47.6011 14.7697C47.428 15.1838 47.1745 15.5589 46.8553 15.8733C46.5437 16.1979 46.1692 16.455 45.7551 16.6289C45.3409 16.8027 44.8957 16.8896 44.4468 16.8842C44.001 16.8895 43.559 16.8025 43.1481 16.6285C42.7372 16.4546 42.3665 16.1975 42.0588 15.8733C41.7323 15.5614 41.473 15.1855 41.2971 14.7687C41.1213 14.352 41.0325 13.9033 41.0365 13.4507Z" fill="white"/>
<path d="M52.2487 13.4507C52.247 13.0017 52.3369 12.5571 52.5127 12.1443C52.6885 11.7316 52.9466 11.3593 53.271 11.0507C53.5787 10.7264 53.9495 10.4693 54.3604 10.2954C54.7712 10.1214 55.2133 10.0345 55.6591 10.0398C56.1076 10.0346 56.5524 10.1216 56.9662 10.2955C57.3801 10.4693 57.7542 10.7264 58.0656 11.0507C58.3848 11.365 58.6383 11.7402 58.8115 12.1542C58.9846 12.5683 59.0737 13.0129 59.0737 13.462C59.0737 13.911 58.9846 14.3557 58.8115 14.7697C58.6383 15.1837 58.3848 15.5589 58.0656 15.8733C57.7539 16.1979 57.3795 16.455 56.9653 16.6289C56.5511 16.8027 56.1059 16.8896 55.6571 16.8842C55.2113 16.8895 54.7692 16.8025 54.3583 16.6285C53.9475 16.4546 53.5767 16.1975 53.269 15.8733C52.9425 15.5614 52.6832 15.1855 52.5074 14.7687C52.3315 14.352 52.2427 13.9033 52.2467 13.4507" fill="white"/>
<path d="M30.7872 23.9503V20.8907H24.7864V40H30.7872V32.1221C30.7872 29.4077 31.836 25.2653 37.8839 26.3933V20.8023C31.3413 19.925 30.7872 23.9503 30.7872 23.9503Z" fill="white"/>
</g>
<defs>
<clipPath id="clip0_169_6554">
<rect width="81.875" height="40" fill="white"/>
</clipPath>
</defs>
</svg>
