<svg width="136" height="40" viewBox="0 0 136 40" fill="none" xmlns="http://www.w3.org/2000/svg">
<g clip-path="url(#clip0_160_8499)">
<path fill-rule="evenodd" clip-rule="evenodd" d="M130.664 40H5.68651C2.91843 40 0.664062 37.7456 0.664062 35V5C0.664062 2.24439 2.91843 0 5.68651 0H130.664C133.43 0 135.687 2.24439 135.687 5V35C135.687 37.7456 133.43 40 130.664 40Z" fill="black"/>
<path fill-rule="evenodd" clip-rule="evenodd" d="M130.664 0.800499C132.986 0.800499 134.886 2.68828 134.886 5V35C134.886 37.3117 132.998 39.1995 130.664 39.1995H5.68651C3.36481 39.1995 1.46456 37.3117 1.46456 35V5C1.46456 2.68828 3.35234 0.800499 5.68651 0.800499H130.664ZM130.664 0H5.68651C2.91843 0 0.664062 2.25436 0.664062 5V35C0.664062 37.7556 2.91843 40 5.68651 40H130.664C133.43 40 135.687 37.7556 135.687 35V5C135.687 2.25436 133.43 0 130.664 0Z" fill="#A6A6A6"/>
<path d="M68.8001 21.7521C66.4481 21.7521 64.5311 23.5401 64.5311 26.0051C64.5311 28.4541 66.4481 30.2581 68.8001 30.2581C71.1521 30.2581 73.0691 28.4541 73.0691 26.0051C73.0691 23.5401 71.1521 21.7521 68.8001 21.7521ZM68.8001 28.5831C67.5111 28.5831 66.3991 27.5201 66.3991 26.0051C66.3991 24.4741 67.5111 23.4271 68.8001 23.4271C70.0891 23.4271 71.2001 24.4741 71.2001 26.0051C71.2001 27.5191 70.0891 28.5831 68.8001 28.5831ZM59.4861 21.7521C57.1341 21.7521 55.2171 23.5401 55.2171 26.0051C55.2171 28.4541 57.1341 30.2581 59.4861 30.2581C61.8381 30.2581 63.7551 28.4541 63.7551 26.0051C63.7561 23.5401 61.8381 21.7521 59.4861 21.7521ZM59.4861 28.5831C58.1971 28.5831 57.0861 27.5201 57.0861 26.0051C57.0861 24.4741 58.1981 23.4271 59.4861 23.4271C60.7751 23.4271 61.8861 24.4741 61.8861 26.0051C61.8871 27.5191 60.7751 28.5831 59.4861 28.5831ZM48.4081 23.0571V24.8611H52.7261C52.5971 25.8761 52.2591 26.6171 51.7431 27.1331C51.1151 27.7611 50.1321 28.4541 48.4081 28.4541C45.7501 28.4541 43.6721 26.3111 43.6721 23.6531C43.6721 20.9951 45.7501 18.8521 48.4081 18.8521C49.8421 18.8521 50.8891 19.4161 51.6621 20.1411L52.9351 18.8681C51.8561 17.8371 50.4221 17.0471 48.4081 17.0471C44.7671 17.0471 41.7061 20.0111 41.7061 23.6521C41.7061 27.2931 44.7671 30.2571 48.4081 30.2571C50.3731 30.2571 51.8561 29.6131 53.0161 28.4041C54.2081 27.2121 54.5791 25.5361 54.5791 24.1831C54.5791 23.7641 54.5471 23.3771 54.4821 23.0551H48.4081V23.0571ZM93.7161 24.4581C93.3621 23.5071 92.2821 21.7511 90.0751 21.7511C87.8841 21.7511 86.0641 23.4751 86.0641 26.0041C86.0641 28.3881 87.8681 30.2571 90.2851 30.2571C92.2341 30.2571 93.3621 29.0651 93.8291 28.3721L92.3791 27.4051C91.896 28.1141 91.2351 28.5811 90.2851 28.5811C89.3341 28.5811 88.6581 28.1461 88.2231 27.2921L93.9101 24.9401L93.7161 24.4581ZM87.9161 25.8761C87.8681 24.2331 89.1891 23.3951 90.1391 23.3951C90.8801 23.3951 91.5081 23.7651 91.7181 24.2971L87.9161 25.8761ZM83.2921 30.0001H85.1611V17.4991H83.2921V30.0001ZM80.2311 22.7021H80.1671C79.7481 22.2031 78.9431 21.7511 77.9281 21.7511C75.8011 21.7511 73.8521 23.6201 73.8521 26.0201C73.8521 28.4041 75.8011 30.2571 77.9281 30.2571C78.9431 30.2571 79.7481 29.8061 80.1671 29.2901H80.2311V29.9021C80.2311 31.5291 79.3611 32.3991 77.9591 32.3991C76.8151 32.3991 76.1061 31.5771 75.8161 30.8851L74.1891 31.5621C74.6561 32.6901 75.8971 34.0751 77.9591 34.0751C80.1501 34.0751 82.0031 32.7861 82.0031 29.6451V22.0091H80.2311V22.7021ZM78.0891 28.5831C76.8001 28.5831 75.7211 27.5041 75.7211 26.0211C75.7211 24.5231 76.8001 23.4271 78.0891 23.4271C79.3621 23.4271 80.3601 24.5221 80.3601 26.0211C80.3601 27.5031 79.3621 28.5831 78.0891 28.5831ZM102.47 17.4991H97.9991V30.0001H99.8641V25.2641H102.469C104.537 25.2641 106.57 23.7671 106.57 21.3821C106.57 18.9971 104.538 17.4991 102.47 17.4991ZM102.518 23.5241H99.8641V19.2391H102.518C103.913 19.2391 104.705 20.3941 104.705 21.3821C104.705 22.3501 103.913 23.5241 102.518 23.5241ZM114.05 21.7291C112.699 21.7291 111.3 22.3241 110.721 23.6431L112.378 24.3351C112.732 23.6431 113.391 23.4181 114.083 23.4181C115.048 23.4181 116.029 23.9971 116.045 25.0261V25.1551C115.707 24.9621 114.983 24.6721 114.099 24.6721C112.314 24.6721 110.496 25.6531 110.496 27.4871C110.496 29.1601 111.96 30.2371 113.6 30.2371C114.855 30.2371 115.546 29.6741 115.98 29.0151H116.044V29.9801H117.845V25.1871C117.845 22.9671 116.189 21.7291 114.05 21.7291ZM113.824 28.5801C113.213 28.5801 112.36 28.2741 112.36 27.5191C112.36 26.5541 113.422 26.1841 114.338 26.1841C115.158 26.1841 115.544 26.3611 116.043 26.6021C115.899 27.7601 114.902 28.5801 113.824 28.5801ZM124.407 22.0021L122.268 27.4221H122.204L119.985 22.0021H117.975L121.304 29.5771L119.406 33.7911H121.352L126.483 22.0021H124.407ZM107.6 30.0001H109.466V17.4991H107.6V30.0001Z" fill="white"/>
<path fill-rule="evenodd" clip-rule="evenodd" d="M74.2731 12.224C73.6831 12.831 72.9501 13.133 72.0731 13.133C71.1961 13.133 70.4631 12.83 69.8741 12.224C69.2841 11.618 68.9901 10.876 68.9901 9.99901C68.9901 9.12201 69.2841 8.38001 69.8741 7.77401C70.4631 7.16701 71.1961 6.86401 72.0731 6.86401C72.9451 6.86401 73.6771 7.16901 74.2691 7.77801C74.8611 8.38701 75.1571 9.12701 75.1571 9.99901C75.1571 10.877 74.8621 11.619 74.2731 12.224ZM70.4431 11.722C70.8871 12.172 71.4301 12.396 72.0731 12.396C72.7161 12.396 73.2591 12.171 73.7031 11.722C74.1471 11.272 74.3701 10.698 74.3701 10C74.3701 9.30201 74.1471 8.72701 73.7031 8.27801C73.2601 7.82801 72.7161 7.60401 72.0731 7.60401C71.4301 7.60401 70.8871 7.82901 70.4431 8.27801C70.0001 8.72801 69.7771 9.30201 69.7771 10C69.7771 10.698 70.0001 11.272 70.4431 11.722Z" fill="white"/>
<path d="M48.0821 10.243C48.0821 11.081 47.8341 11.748 47.3371 12.246C46.7731 12.838 46.0371 13.134 45.1331 13.134C44.2671 13.134 43.5301 12.834 42.9251 12.234C42.3191 11.633 42.0161 10.889 42.0161 10.001C42.0161 9.11201 42.3191 8.36801 42.9251 7.76801C43.5301 7.16701 44.2671 6.86701 45.1331 6.86701C45.5631 6.86701 45.9741 6.95101 46.3641 7.11801C46.7551 7.28601 47.0681 7.50901 47.3021 7.78801L46.7751 8.31601C46.3781 7.84101 45.8311 7.60401 45.1321 7.60401C44.5001 7.60401 43.9541 7.82601 43.4931 8.27001C43.0331 8.71401 42.8031 9.29001 42.8031 10C42.8031 10.71 43.0331 11.286 43.4941 11.731C43.9551 12.175 44.5011 12.397 45.1331 12.397C45.8031 12.397 46.3621 12.174 46.8091 11.727C47.0991 11.436 47.2671 11.031 47.3121 10.512H45.1331V9.79001H48.0401C48.0691 9.94701 48.0821 10.098 48.0821 10.243Z" fill="white"/>
<path d="M52.6921 7.73702H49.9601V9.63902H52.4241V10.36H49.9601V12.262H52.6921V13H49.1891V7.00002H52.6921V7.73702Z" fill="white"/>
<path d="M55.1711 13H55.9421V7.73702H57.6181V7.00002H53.4951V7.73702H55.1711V13Z" fill="white"/>
<path d="M60.6021 13V7.00002H61.3731V13H60.6021Z" fill="white"/>
<path d="M64.0201 13H64.7911V7.73702H66.4671V7.00002H62.3441V7.73702H64.0201V13Z" fill="white"/>
<path d="M76.2391 7.00002V13H77.0081V9.26202L76.9751 8.10602H77.0081L80.0591 13H80.8641V7.00002H80.0931V10.512L80.1261 11.668H80.0931L77.1771 7.00002H76.2391Z" fill="white"/>
<path fill-rule="evenodd" clip-rule="evenodd" d="M74.2731 12.224C73.6831 12.831 72.9501 13.133 72.0731 13.133C71.1961 13.133 70.4631 12.83 69.8741 12.224C69.2841 11.618 68.9901 10.876 68.9901 9.99901C68.9901 9.12201 69.2841 8.38001 69.8741 7.77401C70.4631 7.16701 71.1961 6.86401 72.0731 6.86401C72.9451 6.86401 73.6771 7.16901 74.2691 7.77801C74.8611 8.38701 75.1571 9.12701 75.1571 9.99901C75.1571 10.877 74.8621 11.619 74.2731 12.224ZM70.4431 11.722C70.8871 12.172 71.4301 12.396 72.0731 12.396C72.7161 12.396 73.2591 12.171 73.7031 11.722C74.1471 11.272 74.3701 10.698 74.3701 10C74.3701 9.30201 74.1471 8.72701 73.7031 8.27801C73.2601 7.82801 72.7161 7.60401 72.0731 7.60401C71.4301 7.60401 70.8871 7.82901 70.4431 8.27801C70.0001 8.72801 69.7771 9.30201 69.7771 10C69.7771 10.698 70.0001 11.272 70.4431 11.722Z" stroke="white" stroke-width="0.2" stroke-miterlimit="10"/>
<path d="M48.0821 10.243C48.0821 11.081 47.8341 11.748 47.3371 12.246C46.7731 12.838 46.0371 13.134 45.1331 13.134C44.2671 13.134 43.5301 12.834 42.9251 12.234C42.3191 11.633 42.0161 10.889 42.0161 10.001C42.0161 9.11201 42.3191 8.36801 42.9251 7.76801C43.5301 7.16701 44.2671 6.86701 45.1331 6.86701C45.5631 6.86701 45.9741 6.95101 46.3641 7.11801C46.7551 7.28601 47.0681 7.50901 47.3021 7.78801L46.7751 8.31601C46.3781 7.84101 45.8311 7.60401 45.1321 7.60401C44.5001 7.60401 43.9541 7.82601 43.4931 8.27001C43.0331 8.71401 42.8031 9.29001 42.8031 10C42.8031 10.71 43.0331 11.286 43.4941 11.731C43.9551 12.175 44.5011 12.397 45.1331 12.397C45.8031 12.397 46.3621 12.174 46.8091 11.727C47.0991 11.436 47.2671 11.031 47.3121 10.512H45.1331V9.79001H48.0401C48.0691 9.94701 48.0821 10.098 48.0821 10.243Z" stroke="white" stroke-width="0.2" stroke-miterlimit="10"/>
<path d="M52.6921 7.73702H49.9601V9.63902H52.4241V10.36H49.9601V12.262H52.6921V13H49.1891V7.00002H52.6921V7.73702Z" stroke="white" stroke-width="0.2" stroke-miterlimit="10"/>
<path d="M55.1711 13H55.9421V7.73702H57.6181V7.00002H53.4951V7.73702H55.1711V13Z" stroke="white" stroke-width="0.2" stroke-miterlimit="10"/>
<path d="M60.6021 13V7.00002H61.3731V13H60.6021Z" stroke="white" stroke-width="0.2" stroke-miterlimit="10"/>
<path d="M64.0201 13H64.7911V7.73702H66.4671V7.00002H62.3441V7.73702H64.0201V13Z" stroke="white" stroke-width="0.2" stroke-miterlimit="10"/>
<path d="M76.2391 7.00002V13H77.0081V9.26202L76.9751 8.10602H77.0081L80.0591 13H80.8641V7.00002H80.0931V10.512L80.1261 11.668H80.0931L77.1771 7.00002H76.2391Z" stroke="white" stroke-width="0.2" stroke-miterlimit="10"/>
<path d="M11.099 7.53809C10.808 7.84609 10.636 8.32409 10.636 8.94309V31.0591C10.636 31.6791 10.808 32.1561 11.099 32.4641L11.173 32.5361L23.562 20.1471V20.0011V19.8551L11.173 7.46509L11.099 7.53809Z" fill="url(#paint0_linear_160_8499)"/>
<path d="M27.692 24.2791L23.563 20.1481V20.0021V19.8561L27.693 15.7261L27.786 15.7791L32.679 18.5591C34.077 19.3531 34.077 20.6521 32.679 21.4471L27.786 24.2271L27.692 24.2791Z" fill="url(#paint1_linear_160_8499)"/>
<path d="M27.786 24.2251L23.563 20.0011L11.099 32.4641C11.56 32.9521 12.32 33.0121 13.177 32.5251L27.786 24.2251Z" fill="url(#paint2_linear_160_8499)"/>
<path d="M27.786 15.777L13.178 7.47705C12.321 6.99005 11.561 7.05105 11.1 7.53805L23.563 20.001L27.786 15.777Z" fill="url(#paint3_linear_160_8499)"/>
<path opacity="0.2" d="M27.693 24.1321L13.178 32.3791C12.366 32.8401 11.64 32.8101 11.174 32.3901L11.099 32.4651L11.173 32.5371C11.639 32.9571 12.365 32.9881 13.177 32.5261L27.785 24.2261L27.693 24.1321Z" fill="black"/>
<path opacity="0.12" d="M11.099 32.3181C10.808 32.0101 10.636 31.5321 10.636 30.9131V31.0591C10.636 31.6781 10.808 32.1561 11.099 32.4641L11.174 32.3891L11.099 32.3181Z" fill="black"/>
<path opacity="0.12" d="M32.679 21.2991L27.693 24.1321L27.786 24.2251L32.679 21.4451C33.378 21.0481 33.727 20.5251 33.727 20.0021C33.668 20.4751 33.312 20.9391 32.679 21.2991Z" fill="black"/>
<path opacity="0.25" d="M13.177 7.62305L32.678 18.703C33.312 19.063 33.667 19.5271 33.726 20.001C33.726 19.4781 33.377 18.9541 32.678 18.557L13.177 7.47705C11.779 6.68305 10.636 7.34205 10.636 8.94305V9.09005C10.636 7.48905 11.78 6.82905 13.177 7.62305Z" fill="white"/>
</g>
<defs>
<linearGradient id="paint0_linear_160_8499" x1="22.4636" y1="8.70989" x2="5.68119" y2="25.4923" gradientUnits="userSpaceOnUse">
<stop stop-color="#00A0FF"/>
<stop offset="0.0066" stop-color="#00A1FF"/>
<stop offset="0.2601" stop-color="#00BEFF"/>
<stop offset="0.5122" stop-color="#00D2FF"/>
<stop offset="0.7604" stop-color="#00DFFF"/>
<stop offset="1" stop-color="#00E3FF"/>
</linearGradient>
<linearGradient id="paint1_linear_160_8499" x1="34.4983" y1="20.0016" x2="10.3014" y2="20.0016" gradientUnits="userSpaceOnUse">
<stop stop-color="#FFE000"/>
<stop offset="0.4087" stop-color="#FFBD00"/>
<stop offset="0.7754" stop-color="#FFA500"/>
<stop offset="1" stop-color="#FF9C00"/>
</linearGradient>
<linearGradient id="paint2_linear_160_8499" x1="25.4909" y1="22.2963" x2="2.7326" y2="45.0546" gradientUnits="userSpaceOnUse">
<stop stop-color="#FF3A44"/>
<stop offset="1" stop-color="#C31162"/>
</linearGradient>
<linearGradient id="paint3_linear_160_8499" x1="7.96118" y1="0.176348" x2="18.1238" y2="10.3388" gradientUnits="userSpaceOnUse">
<stop stop-color="#32A071"/>
<stop offset="0.0685" stop-color="#2DA771"/>
<stop offset="0.4762" stop-color="#15CF74"/>
<stop offset="0.8009" stop-color="#06E775"/>
<stop offset="1" stop-color="#00F076"/>
</linearGradient>
<clipPath id="clip0_160_8499">
<rect width="135" height="40" fill="white" transform="translate(0.664062)"/>
</clipPath>
</defs>
</svg>
