<svg width="120" height="40" viewBox="0 0 120 40" fill="none" xmlns="http://www.w3.org/2000/svg">
<g clip-path="url(#clip0_160_8470)">
<path d="M110.135 -0.000114141H9.53468C9.16798 -0.000114141 8.80568 -0.000114141 8.43995 0.00188586C8.1338 0.00388586 7.83009 0.00969586 7.521 0.0145859C6.84951 0.0224877 6.17961 0.0815621 5.5171 0.191296C4.85552 0.303418 4.21467 0.514802 3.61622 0.818296C3.0185 1.12436 2.47235 1.52205 1.99757 1.99696C1.5203 2.47052 1.12246 3.0179 0.81935 3.61805C0.5154 4.21699 0.304641 4.85882 0.19435 5.52137C0.0830109 6.18307 0.0230984 6.85241 0.01515 7.52337C0.00587 7.82997 0.00489 8.13759 0 8.44423V31.5585C0.00489 31.869 0.00587 32.1698 0.01515 32.4804C0.0231008 33.1513 0.0830134 33.8206 0.19435 34.4823C0.304336 35.1452 0.515108 35.7874 0.81935 36.3866C1.12233 36.9848 1.52022 37.53 1.99757 38.0009C2.47054 38.4779 3.01705 38.8759 3.61622 39.1796C4.21467 39.4839 4.85545 39.6965 5.5171 39.8104C6.17972 39.9192 6.84956 39.9783 7.521 39.9872C7.83009 39.994 8.1338 39.9979 8.43995 39.9979C8.80567 39.9999 9.168 39.9999 9.53468 39.9999H110.135C110.494 39.9999 110.859 39.9999 111.219 39.9979C111.523 39.9979 111.836 39.994 112.141 39.9872C112.811 39.9788 113.479 39.9197 114.141 39.8104C114.804 39.6957 115.448 39.4831 116.049 39.1796C116.647 38.8757 117.193 38.4777 117.666 38.0009C118.142 37.5281 118.541 36.9833 118.848 36.3866C119.15 35.787 119.358 35.1448 119.467 34.4823C119.578 33.8205 119.64 33.1514 119.652 32.4804C119.656 32.1698 119.656 31.869 119.656 31.5585C119.664 31.1952 119.664 30.8339 119.664 30.4647V9.53602C119.664 9.16981 119.664 8.80653 119.656 8.44423C119.656 8.13759 119.656 7.82997 119.652 7.52333C119.64 6.85231 119.578 6.18312 119.467 5.52133C119.358 4.85917 119.149 4.21739 118.848 3.61801C118.23 2.41508 117.252 1.43591 116.049 0.818206C115.448 0.515453 114.804 0.304126 114.141 0.191206C113.48 0.0809886 112.811 0.0218936 112.141 0.0144459C111.836 0.00956586 111.523 0.00370586 111.219 0.00175586C110.859 -0.000244141 110.494 -0.000244141 110.135 -0.000244141V-0.000114141Z" fill="#A6A6A6"/>
<path d="M8.44487 39.125C8.14019 39.125 7.84287 39.1211 7.54058 39.1143C6.91436 39.1061 6.2896 39.0516 5.67144 38.9512C5.09503 38.8519 4.53664 38.6673 4.0147 38.4033C3.49754 38.1415 3.02585 37.7983 2.6177 37.3867C2.20364 36.98 1.85891 36.5082 1.59719 35.9902C1.33258 35.4688 1.14945 34.9099 1.05419 34.333C0.951311 33.7131 0.895651 33.0863 0.887687 32.458C0.881347 32.2471 0.873047 31.5449 0.873047 31.5449V8.44434C0.873047 8.44434 0.881887 7.75293 0.887737 7.5498C0.895363 6.92248 0.950699 6.29665 1.05327 5.67773C1.14871 5.09925 1.33197 4.53875 1.59673 4.01563C1.85749 3.49794 2.2003 3.02586 2.61187 2.61768C3.02297 2.20562 3.49617 1.8606 4.01421 1.59521C4.53495 1.33209 5.09228 1.14873 5.66753 1.05127C6.28772 0.949836 6.91465 0.894996 7.54304 0.88721L8.44536 0.875H111.214L112.127 0.8877C112.75 0.895099 113.371 0.94945 113.985 1.05029C114.566 1.14898 115.13 1.33362 115.656 1.59814C116.694 2.13299 117.539 2.97916 118.071 4.01807C118.332 4.53758 118.512 5.09351 118.607 5.66699C118.71 6.29099 118.768 6.92174 118.78 7.5542C118.783 7.8374 118.783 8.1416 118.783 8.44434C118.791 8.81934 118.791 9.17627 118.791 9.53613V30.4648C118.791 30.8281 118.791 31.1826 118.783 31.54C118.783 31.8652 118.783 32.1631 118.779 32.4697C118.768 33.0909 118.711 33.7104 118.608 34.3232C118.515 34.9043 118.333 35.4675 118.068 35.9932C117.805 36.5056 117.462 36.9733 117.053 37.3789C116.644 37.7927 116.172 38.1379 115.653 38.4014C115.128 38.6674 114.566 38.8527 113.985 38.9512C113.367 39.0522 112.742 39.1067 112.116 39.1143C111.823 39.1211 111.517 39.125 111.219 39.125L110.135 39.127L8.44487 39.125Z" fill="black"/>
<path d="M42.3022 27.1397H37.5688L36.4321 30.4961H34.4272L38.9106 18.0781H40.9936L45.477 30.4961H43.438L42.3022 27.1397ZM38.0591 25.5908H41.8111L39.9615 20.1436H39.9097L38.0591 25.5908Z" fill="white"/>
<path d="M55.1597 25.9698C55.1597 28.7833 53.6538 30.5909 51.3814 30.5909C50.8057 30.621 50.2332 30.4884 49.7294 30.2083C49.2256 29.9281 48.8109 29.5118 48.5327 29.0069H48.4897V33.4913H46.6313V21.4425H48.4302V22.9483H48.4644C48.7553 22.4459 49.1771 22.0317 49.6847 21.7498C50.1923 21.468 50.7669 21.329 51.3472 21.3477C53.645 21.3477 55.1597 23.1641 55.1597 25.9698ZM53.2495 25.9698C53.2495 24.1368 52.3023 22.9317 50.857 22.9317C49.437 22.9317 48.482 24.1622 48.482 25.9698C48.482 27.794 49.437 29.0157 50.857 29.0157C52.3023 29.0157 53.2495 27.8194 53.2495 25.9698Z" fill="white"/>
<path d="M65.1245 25.9698C65.1245 28.7833 63.6187 30.5909 61.3462 30.5909C60.7706 30.621 60.1981 30.4884 59.6943 30.2083C59.1905 29.9281 58.7758 29.5118 58.4976 29.0069H58.4546V33.4913H56.5962V21.4425H58.395V22.9483H58.4292C58.7201 22.4459 59.1419 22.0317 59.6495 21.7498C60.1571 21.468 60.7317 21.329 61.312 21.3477C63.6099 21.3477 65.1245 23.1641 65.1245 25.9698ZM63.2144 25.9698C63.2144 24.1368 62.2671 22.9317 60.8218 22.9317C59.4019 22.9317 58.4468 24.1622 58.4468 25.9698C58.4468 27.794 59.4019 29.0157 60.8218 29.0157C62.2671 29.0157 63.2144 27.8194 63.2144 25.9698H63.2144Z" fill="white"/>
<path d="M71.7105 27.0362C71.8482 28.2676 73.0445 29.0762 74.6792 29.0762C76.2456 29.0762 77.3726 28.2676 77.3726 27.1572C77.3726 26.1934 76.6929 25.6162 75.0835 25.2207L73.4742 24.833C71.1939 24.2822 70.1353 23.2158 70.1353 21.4854C70.1353 19.3428 72.0025 17.8711 74.6538 17.8711C77.2778 17.8711 79.0767 19.3428 79.1372 21.4854H77.2612C77.1489 20.2461 76.1245 19.4981 74.6274 19.4981C73.1304 19.4981 72.106 20.2549 72.106 21.3565C72.106 22.2344 72.7603 22.751 74.3608 23.1465L75.729 23.4824C78.2769 24.0849 79.3355 25.1084 79.3355 26.9248C79.3355 29.248 77.4849 30.7031 74.5415 30.7031C71.7876 30.7031 69.9282 29.2822 69.8081 27.0361L71.7105 27.0362Z" fill="white"/>
<path d="M83.3462 19.2998V21.4424H85.0679V22.9141H83.3462V27.9053C83.3462 28.6807 83.6909 29.042 84.4477 29.042C84.6521 29.0384 84.8562 29.0241 85.0591 28.999V30.4619C84.7188 30.5255 84.3729 30.5543 84.0268 30.5478C82.1938 30.5478 81.479 29.8593 81.479 28.1035V22.9141H80.1626V21.4424H81.479V19.2998H83.3462Z" fill="white"/>
<path d="M86.0649 25.9697C86.0649 23.1211 87.7427 21.3311 90.3589 21.3311C92.9839 21.3311 94.6538 23.1211 94.6538 25.9697C94.6538 28.8262 92.9927 30.6084 90.3589 30.6084C87.726 30.6084 86.0649 28.8262 86.0649 25.9697ZM92.7602 25.9697C92.7602 24.0156 91.8647 22.8623 90.3589 22.8623C88.853 22.8623 87.9585 24.0244 87.9585 25.9697C87.9585 27.9316 88.853 29.0762 90.3589 29.0762C91.8647 29.0762 92.7602 27.9316 92.7602 25.9697H92.7602Z" fill="white"/>
<path d="M96.186 21.4424H97.9585V22.9834H98.0015C98.1214 22.5021 98.4034 22.0768 98.8 21.7789C99.1966 21.481 99.6836 21.3287 100.179 21.3476C100.393 21.3469 100.607 21.3702 100.816 21.417V23.1553C100.546 23.0726 100.264 23.0347 99.981 23.043C99.711 23.032 99.4418 23.0796 99.192 23.1825C98.9421 23.2854 98.7175 23.4411 98.5335 23.639C98.3496 23.8369 98.2106 24.0723 98.1262 24.3289C98.0417 24.5856 98.0139 24.8575 98.0444 25.126V30.4961H96.186L96.186 21.4424Z" fill="white"/>
<path d="M109.384 27.8369C109.134 29.4805 107.534 30.6084 105.486 30.6084C102.852 30.6084 101.217 28.8437 101.217 26.0127C101.217 23.1729 102.861 21.3311 105.408 21.3311C107.913 21.3311 109.488 23.0518 109.488 25.7969V26.4336H103.093V26.5459C103.064 26.8791 103.105 27.2148 103.216 27.5306C103.326 27.8464 103.502 28.1352 103.732 28.3778C103.963 28.6203 104.242 28.8111 104.552 28.9374C104.861 29.0637 105.195 29.1226 105.529 29.1103C105.968 29.1515 106.409 29.0498 106.785 28.8203C107.162 28.5909 107.455 28.246 107.62 27.8369L109.384 27.8369ZM103.102 25.1348H107.628C107.645 24.8352 107.6 24.5354 107.495 24.2541C107.39 23.9729 107.229 23.7164 107.02 23.5006C106.812 23.2849 106.561 23.1145 106.283 23.0003C106.006 22.8861 105.708 22.8305 105.408 22.8369C105.105 22.8351 104.805 22.8933 104.525 23.008C104.245 23.1227 103.99 23.2918 103.776 23.5054C103.562 23.7191 103.392 23.973 103.276 24.2527C103.16 24.5323 103.101 24.8321 103.102 25.1348V25.1348Z" fill="white"/>
<path d="M37.8262 8.73089C38.2158 8.70293 38.6067 8.76179 38.9709 8.90323C39.335 9.04466 39.6632 9.26514 39.9317 9.54876C40.2003 9.83239 40.4026 10.1721 40.524 10.5434C40.6454 10.9146 40.6829 11.3082 40.6338 11.6957C40.6338 13.602 39.6035 14.6977 37.8262 14.6977H35.6709V8.73089H37.8262ZM36.5976 13.8539H37.7226C38.0011 13.8705 38.2797 13.8249 38.5382 13.7203C38.7967 13.6157 39.0287 13.4547 39.2172 13.2491C39.4057 13.0436 39.546 12.7986 39.6278 12.532C39.7097 12.2653 39.7311 11.9838 39.6904 11.7079C39.7281 11.4331 39.7046 11.1533 39.6215 10.8886C39.5383 10.624 39.3977 10.381 39.2096 10.177C39.0216 9.9731 38.7907 9.81329 38.5337 9.70905C38.2766 9.60481 37.9996 9.55873 37.7226 9.5741H36.5976V13.8539Z" fill="white"/>
<path d="M41.6807 12.4444C41.6524 12.1485 41.6862 11.8499 41.7801 11.5679C41.8739 11.2858 42.0257 11.0264 42.2256 10.8065C42.4256 10.5865 42.6693 10.4107 42.9411 10.2904C43.213 10.1702 43.507 10.108 43.8042 10.108C44.1015 10.108 44.3955 10.1702 44.6673 10.2904C44.9392 10.4107 45.1829 10.5865 45.3828 10.8065C45.5828 11.0264 45.7345 11.2858 45.8284 11.5679C45.9222 11.8499 45.9561 12.1485 45.9278 12.4444C45.9566 12.7406 45.9232 13.0396 45.8296 13.3221C45.736 13.6047 45.5843 13.8645 45.3843 14.0849C45.1843 14.3053 44.9404 14.4814 44.6683 14.602C44.3962 14.7225 44.1019 14.7848 43.8042 14.7848C43.5066 14.7848 43.2123 14.7225 42.9402 14.602C42.668 14.4814 42.4241 14.3053 42.2241 14.0849C42.0242 13.8645 41.8725 13.6047 41.7789 13.3221C41.6853 13.0396 41.6519 12.7406 41.6807 12.4444ZM45.0137 12.4444C45.0137 11.4683 44.5752 10.8975 43.8057 10.8975C43.0332 10.8975 42.5987 11.4683 42.5987 12.4444C42.5987 13.4283 43.0333 13.9947 43.8057 13.9947C44.5752 13.9947 45.0137 13.4244 45.0137 12.4444H45.0137Z" fill="white"/>
<path d="M51.5732 14.6978H50.6514L49.7207 11.3813H49.6504L48.7236 14.6978H47.8105L46.5693 10.1948H47.4707L48.2773 13.6308H48.3438L49.2695 10.1948H50.1221L51.0479 13.6308H51.1182L51.9209 10.1948H52.8096L51.5732 14.6978Z" fill="white"/>
<path d="M53.8535 10.1949H54.709V10.9102H54.7754C54.888 10.6533 55.0781 10.4379 55.3189 10.2941C55.5598 10.1503 55.8395 10.0852 56.1191 10.1079C56.3382 10.0915 56.5582 10.1245 56.7628 10.2046C56.9674 10.2847 57.1514 10.4098 57.3011 10.5707C57.4508 10.7315 57.5623 10.924 57.6275 11.1338C57.6927 11.3436 57.7099 11.5654 57.6777 11.7827V14.6977H56.7891V12.0059C56.7891 11.2823 56.4746 10.9224 55.8174 10.9224C55.6686 10.9155 55.5201 10.9408 55.3821 10.9966C55.244 11.0525 55.1197 11.1375 55.0175 11.2459C54.9154 11.3543 54.8379 11.4834 54.7904 11.6246C54.7429 11.7657 54.7264 11.9154 54.7422 12.0635V14.6978H53.8535L53.8535 10.1949Z" fill="white"/>
<path d="M59.0938 8.43701H59.9824V14.6978H59.0938V8.43701Z" fill="white"/>
<path d="M61.2178 12.4444C61.1895 12.1484 61.2234 11.8499 61.3172 11.5678C61.4111 11.2857 61.5629 11.0263 61.7628 10.8064C61.9628 10.5864 62.2065 10.4106 62.4784 10.2903C62.7503 10.17 63.0443 10.1079 63.3416 10.1079C63.6389 10.1079 63.9329 10.17 64.2047 10.2903C64.4766 10.4106 64.7203 10.5864 64.9203 10.8064C65.1203 11.0263 65.272 11.2857 65.3659 11.5678C65.4598 11.8499 65.4936 12.1484 65.4653 12.4444C65.4942 12.7406 65.4607 13.0396 65.3671 13.3221C65.2734 13.6046 65.1217 13.8645 64.9217 14.0849C64.7217 14.3053 64.4778 14.4814 64.2057 14.6019C63.9335 14.7225 63.6392 14.7847 63.3416 14.7847C63.0439 14.7847 62.7496 14.7225 62.4775 14.6019C62.2053 14.4814 61.9614 14.3053 61.7614 14.0849C61.5614 13.8645 61.4097 13.6046 61.3161 13.3221C61.2225 13.0396 61.189 12.7406 61.2178 12.4444ZM64.5508 12.4444C64.5508 11.4683 64.1123 10.8975 63.3428 10.8975C62.5703 10.8975 62.1358 11.4683 62.1358 12.4444C62.1358 13.4283 62.5704 13.9947 63.3428 13.9947C64.1123 13.9947 64.5508 13.4244 64.5508 12.4444H64.5508Z" fill="white"/>
<path d="M66.4009 13.4243C66.4009 12.6138 67.0044 12.1465 68.0757 12.0801L69.2954 12.0098V11.6211C69.2954 11.1455 68.981 10.877 68.3735 10.877C67.8774 10.877 67.5337 11.0591 67.4351 11.3774H66.5747C66.6655 10.604 67.3931 10.1079 68.4146 10.1079C69.5435 10.1079 70.1802 10.6699 70.1802 11.6211V14.6978H69.3247V14.0649H69.2544C69.1117 14.2919 68.9113 14.477 68.6737 14.6012C68.436 14.7254 68.1697 14.7843 67.9019 14.7719C67.7128 14.7916 67.5218 14.7714 67.341 14.7127C67.1602 14.654 66.9938 14.5581 66.8524 14.4311C66.711 14.3042 66.5977 14.149 66.52 13.9756C66.4422 13.8021 66.4016 13.6144 66.4009 13.4243ZM69.2954 13.0395V12.6631L68.1958 12.7334C67.5757 12.7749 67.2944 12.9858 67.2944 13.3828C67.2944 13.7881 67.646 14.0239 68.1294 14.0239C68.2711 14.0382 68.4142 14.0239 68.5502 13.9819C68.6862 13.9398 68.8123 13.8707 68.9211 13.7789C69.0299 13.6871 69.1191 13.5743 69.1834 13.4473C69.2477 13.3202 69.2858 13.1816 69.2954 13.0395Z" fill="white"/>
<path d="M71.3481 12.4444C71.3481 11.0215 72.0796 10.1201 73.2173 10.1201C73.4987 10.1072 73.778 10.1746 74.0225 10.3145C74.267 10.4544 74.4667 10.661 74.5981 10.9101H74.6646V8.43701H75.5532V14.6978H74.7017V13.9863H74.6314C74.4897 14.2338 74.2831 14.4378 74.0339 14.5763C73.7846 14.7148 73.5022 14.7825 73.2173 14.772C72.0718 14.772 71.3481 13.8706 71.3481 12.4444ZM72.2661 12.4444C72.2661 13.3994 72.7163 13.9741 73.4693 13.9741C74.2183 13.9741 74.6812 13.3911 74.6812 12.4483C74.6812 11.5098 74.2134 10.9185 73.4693 10.9185C72.7212 10.9185 72.2661 11.4971 72.2661 12.4444H72.2661Z" fill="white"/>
<path d="M79.23 12.4444C79.2017 12.1485 79.2356 11.8499 79.3294 11.5679C79.4232 11.2858 79.575 11.0264 79.7749 10.8065C79.9749 10.5865 80.2186 10.4107 80.4904 10.2904C80.7623 10.1702 81.0563 10.108 81.3536 10.108C81.6508 10.108 81.9448 10.1702 82.2167 10.2904C82.4885 10.4107 82.7322 10.5865 82.9322 10.8065C83.1321 11.0264 83.2839 11.2858 83.3777 11.5679C83.4715 11.8499 83.5054 12.1485 83.4771 12.4444C83.5059 12.7406 83.4725 13.0396 83.3789 13.3221C83.2853 13.6047 83.1336 13.8645 82.9336 14.0849C82.7336 14.3053 82.4897 14.4814 82.2176 14.602C81.9455 14.7225 81.6512 14.7848 81.3536 14.7848C81.0559 14.7848 80.7616 14.7225 80.4895 14.602C80.2173 14.4814 79.9735 14.3053 79.7735 14.0849C79.5735 13.8645 79.4218 13.6047 79.3282 13.3221C79.2346 13.0396 79.2012 12.7406 79.23 12.4444ZM82.563 12.4444C82.563 11.4683 82.1245 10.8975 81.355 10.8975C80.5826 10.8975 80.148 11.4683 80.148 12.4444C80.148 13.4283 80.5826 13.9947 81.355 13.9947C82.1245 13.9947 82.563 13.4244 82.563 12.4444Z" fill="white"/>
<path d="M84.6694 10.1949H85.5249V10.9102H85.5913C85.704 10.6533 85.894 10.4379 86.1348 10.2941C86.3757 10.1503 86.6555 10.0852 86.9351 10.1079C87.1542 10.0915 87.3742 10.1245 87.5788 10.2046C87.7834 10.2847 87.9673 10.4098 88.117 10.5707C88.2667 10.7315 88.3783 10.924 88.4435 11.1338C88.5087 11.3436 88.5258 11.5654 88.4937 11.7827V14.6977H87.605V12.0059C87.605 11.2823 87.2905 10.9224 86.6333 10.9224C86.4846 10.9155 86.336 10.9408 86.198 10.9966C86.0599 11.0525 85.9356 11.1375 85.8335 11.2459C85.7313 11.3543 85.6539 11.4834 85.6063 11.6246C85.5588 11.7657 85.5423 11.9154 85.5581 12.0635V14.6978H84.6694V10.1949Z" fill="white"/>
<path d="M93.5151 9.07373V10.2153H94.4907V10.9639H93.5151V13.2793C93.5151 13.751 93.7095 13.9575 94.1519 13.9575C94.2651 13.9572 94.3783 13.9503 94.4907 13.937V14.6772C94.3311 14.7058 94.1694 14.721 94.0073 14.7226C93.019 14.7226 92.6255 14.375 92.6255 13.5068V10.9638H91.9106V10.2153H92.6255V9.07373H93.5151Z" fill="white"/>
<path d="M95.7046 8.43701H96.5854V10.9185H96.6558C96.7739 10.6591 96.9691 10.4425 97.2148 10.2982C97.4605 10.1539 97.7447 10.0888 98.0288 10.1118C98.2467 10.1 98.4646 10.1364 98.6669 10.2184C98.8692 10.3004 99.0508 10.4261 99.199 10.5864C99.3471 10.7468 99.458 10.9378 99.5238 11.146C99.5896 11.3541 99.6086 11.5742 99.5795 11.7905V14.6978H98.69V12.0098C98.69 11.2905 98.355 10.9263 97.7271 10.9263C97.5743 10.9137 97.4207 10.9347 97.2769 10.9878C97.1332 11.0408 97.0027 11.1247 96.8947 11.2334C96.7867 11.3421 96.7038 11.4732 96.6517 11.6173C96.5997 11.7614 96.5797 11.9152 96.5933 12.0679V14.6977H95.7046L95.7046 8.43701Z" fill="white"/>
<path d="M104.761 13.4819C104.641 13.8934 104.379 14.2494 104.022 14.4876C103.666 14.7257 103.236 14.8309 102.81 14.7846C102.513 14.7924 102.219 14.7356 101.946 14.6181C101.674 14.5006 101.43 14.3251 101.232 14.104C101.034 13.8829 100.887 13.6213 100.8 13.3375C100.713 13.0537 100.689 12.7544 100.73 12.4604C100.691 12.1655 100.715 11.8656 100.801 11.5809C100.888 11.2962 101.034 11.0335 101.231 10.8104C101.428 10.5873 101.671 10.4092 101.942 10.2879C102.214 10.1667 102.509 10.1053 102.806 10.1079C104.059 10.1079 104.815 10.9639 104.815 12.3779V12.688H101.635V12.7378C101.621 12.903 101.642 13.0693 101.696 13.2261C101.75 13.3828 101.837 13.5265 101.95 13.648C102.062 13.7694 102.2 13.866 102.352 13.9314C102.504 13.9968 102.669 14.0296 102.835 14.0278C103.047 14.0533 103.262 14.015 103.453 13.9178C103.644 13.8206 103.802 13.6688 103.906 13.4819L104.761 13.4819ZM101.635 12.0307H103.91C103.921 11.8796 103.9 11.7278 103.849 11.5851C103.798 11.4423 103.718 11.3119 103.614 11.202C103.509 11.0922 103.383 11.0053 103.243 10.9472C103.103 10.889 102.953 10.8607 102.801 10.8642C102.648 10.8623 102.495 10.8911 102.353 10.9491C102.21 11.007 102.081 11.0929 101.972 11.2016C101.864 11.3103 101.778 11.4397 101.72 11.5821C101.662 11.7245 101.633 11.877 101.635 12.0307H101.635Z" fill="white"/>
<path d="M24.769 20.3006C24.7797 19.4659 25.0014 18.6475 25.4135 17.9216C25.8255 17.1956 26.4145 16.5857 27.1256 16.1485C26.6738 15.5034 26.0779 14.9724 25.385 14.5979C24.6922 14.2233 23.9216 14.0155 23.1344 13.9908C21.4552 13.8146 19.8272 14.9957 18.9715 14.9957C18.0992 14.9957 16.7817 14.0083 15.363 14.0375C14.4453 14.0672 13.551 14.334 12.7671 14.8121C11.9832 15.2901 11.3365 15.9631 10.8901 16.7654C8.95607 20.1138 10.3987 25.0349 12.2513 27.7415C13.1782 29.0668 14.2615 30.5473 15.6789 30.4948C17.066 30.4372 17.584 29.6103 19.2583 29.6103C20.9171 29.6103 21.4031 30.4948 22.8493 30.4614C24.3377 30.4372 25.2754 29.1302 26.1698 27.7923C26.8358 26.8479 27.3483 25.8042 27.6882 24.6997C26.8235 24.334 26.0856 23.7218 25.5665 22.9395C25.0474 22.1572 24.77 21.2394 24.769 20.3006Z" fill="white"/>
<path d="M22.0373 12.2108C22.8489 11.2366 23.2487 9.98445 23.1518 8.72021C21.912 8.85044 20.7668 9.44299 19.9443 10.3798C19.5421 10.8375 19.2341 11.3699 19.0379 11.9467C18.8416 12.5235 18.761 13.1333 18.8006 13.7412C19.4207 13.7476 20.0342 13.6132 20.5949 13.3481C21.1555 13.083 21.6487 12.6942 22.0373 12.2108Z" fill="white"/>
</g>
<defs>
<clipPath id="clip0_160_8470">
<rect width="119.664" height="40" fill="white"/>
</clipPath>
</defs>
</svg>
