<svg width="65" height="32" viewBox="0 0 65 32" fill="none" xmlns="http://www.w3.org/2000/svg">
<g clip-path="url(#clip0_160_8514)">
<path d="M4.74613 27.6309H8.76897C10.3985 27.6309 11.2124 26.9257 11.2124 25.535C11.2124 24.1794 10.3979 23.5104 8.76897 23.5279H4.74613V27.6309ZM8.73821 15.4798H4.74613V19.0962H8.73821C9.0165 19.0962 9.38549 19.1669 10.0732 18.5685C10.3968 18.2693 10.5765 17.8469 10.5765 17.2831C10.5765 16.1734 9.81432 15.5751 9.18968 15.5225L8.73821 15.4798ZM0 31.9985V11.1221H8.76897C8.95988 11.1221 9.18484 11.1384 9.47933 11.1565C10.0049 11.2231 10.5259 11.323 11.0393 11.4557C11.7393 11.6207 12.4154 11.8772 13.0506 12.2184C13.6861 12.6131 14.2255 13.1486 14.6284 13.785C15.1108 14.5448 15.3582 15.4339 15.3388 16.3378C15.321 18.6803 14.3322 19.9658 13.4487 20.5296C12.8258 20.9865 12.4617 21.1099 12.3403 21.1099C12.6453 21.1987 12.9411 21.3171 13.2238 21.4632C13.6412 21.6934 14.0463 21.9458 14.4374 22.2195C15.5297 22.9427 16.2175 24.2627 16.2175 25.9C16.2175 29.9689 13.4439 32.0001 7.89673 31.9936L0 31.9985Z" fill="#333333"/>
<path d="M37.5563 16.7126H32.807V31.9985H37.5563V16.7126Z" fill="#333333"/>
<path d="M19.6172 0V13.5072H24.3665V4.8246H54.3952V13.5072H59.1446V0H19.6172Z" fill="#3AACE2"/>
<path d="M46.4306 16.7126H41.6812V31.9985H46.4306V16.7126Z" fill="#333333"/>
<path d="M59.2578 16.7126L56.7609 20.4638L54.2835 16.7126H49.1344L54.2139 24.3203L49.1344 31.9985H54.2835L56.7609 28.2473L59.2578 31.9985H64.4069L59.3954 24.3203L64.4069 16.7126H59.2578Z" fill="#333333"/>
<path d="M32.4784 10.7604C32.477 10.4012 32.5481 10.0455 32.6872 9.71533C32.8264 9.38515 33.0306 9.08734 33.2875 8.84043C33.531 8.58102 33.8244 8.37534 34.1496 8.23618C34.4748 8.09703 34.8246 8.02745 35.1774 8.03169C35.5327 8.0273 35.8851 8.0968 36.2129 8.23589C36.5406 8.37497 36.837 8.58073 37.0837 8.84043C37.3363 9.09188 37.537 9.392 37.6739 9.72322C37.811 10.0545 37.8815 10.4102 37.8815 10.7694C37.8815 11.1287 37.811 11.4844 37.6739 11.8156C37.537 12.1469 37.3363 12.447 37.0837 12.6985C36.837 12.9582 36.5406 13.1639 36.2129 13.303C35.8851 13.4421 35.5327 13.5116 35.1774 13.5072C34.8246 13.5115 34.4748 13.4418 34.1496 13.3027C33.8244 13.1635 33.531 12.9578 33.2875 12.6985C33.029 12.449 32.8238 12.1483 32.6847 11.8148C32.5455 11.4814 32.4752 11.1225 32.4784 10.7604Z" fill="#3AACE2"/>
<path d="M41.3523 10.7604C41.3509 10.4012 41.422 10.0455 41.5612 9.71532C41.7003 9.38514 41.9046 9.08733 42.1614 8.84042C42.4049 8.58101 42.6984 8.37533 43.0235 8.23617C43.3487 8.09701 43.6986 8.02744 44.0515 8.03168C44.4064 8.02751 44.7584 8.09716 45.086 8.23624C45.4135 8.37533 45.7096 8.58094 45.956 8.84042C46.2087 9.09187 46.4093 9.39199 46.5464 9.72321C46.6834 10.0545 46.7539 10.4101 46.7539 10.7694C46.7539 11.1287 46.6834 11.4844 46.5464 11.8156C46.4093 12.1468 46.2087 12.447 45.956 12.6985C45.7094 12.9582 45.4131 13.1639 45.0852 13.303C44.7574 13.442 44.4051 13.5115 44.0499 13.5072C43.697 13.5115 43.3471 13.4418 43.0219 13.3027C42.6968 13.1635 42.4033 12.9578 42.1598 12.6985C41.9013 12.449 41.6962 12.1483 41.557 11.8148C41.4178 11.4814 41.3475 11.1225 41.3507 10.7604" fill="#3AACE2"/>
<path d="M24.3665 19.1602V16.7125H19.6172V32H24.3665V25.6976C24.3665 23.5261 25.1966 20.2122 29.9833 21.1146V16.6418C24.8051 15.9399 24.3665 19.1602 24.3665 19.1602Z" fill="#333333"/>
</g>
<defs>
<clipPath id="clip0_160_8514">
<rect width="64.8" height="32" fill="white"/>
</clipPath>
</defs>
</svg>
