<svg width="184" height="184" viewBox="0 0 184 184" fill="none" xmlns="http://www.w3.org/2000/svg">
<g clip-path="url(#clip0_160_7394)">
<rect x="78.2405" y="20.1" width="99.7602" height="113.389" rx="7.11049" fill="#99D2EB"/>
<ellipse cx="94.9943" cy="49.6744" rx="7.40691" ry="7.4069" fill="#C1A96B"/>
<ellipse cx="100.644" cy="46.8493" rx="7.40689" ry="7.40691" fill="#F1D386"/>
<path d="M96.0421 43.3713H98.2286C98.6861 43.3713 99.0787 43.4402 99.4066 43.578C99.7345 43.7158 99.9867 43.9197 100.163 44.1897C100.339 44.4598 100.428 44.7918 100.428 45.1859C100.428 45.4972 100.372 45.7673 100.262 45.996C100.152 46.2247 99.9963 46.4162 99.7952 46.5705C99.5968 46.7248 99.3625 46.8461 99.0925 46.9343L98.737 47.1161H96.8068L96.7985 46.2192H98.241C98.4753 46.2192 98.6695 46.1779 98.8238 46.0952C98.9781 46.0125 99.0939 45.8982 99.171 45.7521C99.2509 45.6061 99.2909 45.4394 99.2909 45.252C99.2909 45.0508 99.2523 44.8772 99.1752 44.7312C99.098 44.5824 98.9809 44.468 98.8238 44.3881C98.6668 44.3082 98.4684 44.2683 98.2286 44.2683H97.1788V49.3894H96.0421V43.3713ZM99.4397 49.3894L98.0468 46.6945L99.2496 46.6904L100.659 49.3316V49.3894H99.4397Z" fill="white"/>
<path d="M102.432 45.7769V51.1089H101.337V44.9172H102.35L102.432 45.7769ZM105.305 47.1079V47.1947C105.305 47.5198 105.266 47.8215 105.189 48.0999C105.115 48.3754 105.005 48.6165 104.858 48.8232C104.712 49.0271 104.531 49.1869 104.313 49.3026C104.098 49.4156 103.85 49.4721 103.569 49.4721C103.293 49.4721 103.054 49.4198 102.85 49.315C102.646 49.2076 102.474 49.056 102.333 48.8604C102.192 48.6647 102.08 48.4374 101.994 48.1784C101.911 47.9166 101.849 47.6314 101.808 47.3228V47.0459C101.849 46.7179 101.911 46.4203 101.994 46.1531C102.08 45.883 102.192 45.6502 102.333 45.4545C102.474 45.2561 102.644 45.1032 102.846 44.9957C103.049 44.8883 103.288 44.8345 103.561 44.8345C103.844 44.8345 104.094 44.8883 104.309 44.9957C104.526 45.1032 104.71 45.2575 104.858 45.4587C105.007 45.6598 105.119 45.8996 105.193 46.1779C105.268 46.4562 105.305 46.7662 105.305 47.1079ZM104.21 47.1947V47.1079C104.21 46.9095 104.192 46.7262 104.156 46.5581C104.12 46.3873 104.065 46.2385 103.99 46.1117C103.916 45.9822 103.82 45.8816 103.701 45.81C103.583 45.7384 103.439 45.7025 103.271 45.7025C103.103 45.7025 102.959 45.7301 102.837 45.7852C102.716 45.8403 102.617 45.9188 102.54 46.0208C102.463 46.1228 102.402 46.244 102.358 46.3845C102.316 46.5223 102.289 46.6752 102.275 46.8433V47.5295C102.3 47.7334 102.348 47.9166 102.42 48.0792C102.491 48.2418 102.596 48.3713 102.734 48.4677C102.874 48.5642 103.056 48.6124 103.28 48.6124C103.448 48.6124 103.591 48.5752 103.709 48.5008C103.828 48.4264 103.924 48.3244 103.999 48.1949C104.073 48.0627 104.127 47.9111 104.16 47.7403C104.193 47.5694 104.21 47.3875 104.21 47.1947Z" fill="white"/>
<path d="M172.396 110.606C172.396 110.687 152.524 110.746 128.016 110.746C103.508 110.746 83.6244 110.687 83.6244 110.606C83.6244 110.525 103.491 110.466 128.016 110.466C152.54 110.466 172.396 110.531 172.396 110.606Z" stroke="#46B6E4" stroke-width="0.767664"/>
<path d="M172.396 102.944C172.396 103.02 152.524 103.084 128.016 103.084C103.508 103.084 83.6244 103.02 83.6244 102.944C83.6244 102.869 103.491 102.804 128.016 102.804C152.54 102.804 172.396 102.864 172.396 102.944Z" stroke="#46B6E4" stroke-width="0.767664"/>
<path d="M172.396 95.2776C172.396 95.3583 152.524 95.4175 128.016 95.4175C103.508 95.4175 83.6244 95.3583 83.6244 95.2776C83.6244 95.1968 103.491 95.1376 128.016 95.1376C152.54 95.1376 172.396 95.2022 172.396 95.2776Z" stroke="#46B6E4" stroke-width="0.767664"/>
<path d="M172.396 87.616C172.396 87.6914 152.524 87.756 128.016 87.756C103.508 87.756 83.6244 87.6914 83.6244 87.616C83.6244 87.5407 103.491 87.4761 128.016 87.4761C152.54 87.4761 172.396 87.5353 172.396 87.616Z" stroke="#46B6E4" stroke-width="0.767664"/>
<path d="M98.522 107.133H91.1351V121.988H98.522V107.133Z" fill="#1F9ED3"/>
<path d="M125.033 107.133H117.646V121.988H125.033V107.133Z" fill="#1F9ED3"/>
<path d="M165.241 112.194H157.854V121.982H165.241V112.194Z" fill="#135F7F"/>
<path d="M151.538 100.096H144.152V121.982H151.538V100.096Z" fill="#1F9ED3"/>
<path d="M137.987 91.5787H130.6V121.988H137.987V91.5787Z" fill="#135F7F"/>
<path d="M111.6 115.011H103.831V122.074H111.6V115.011Z" fill="#EAF6FB"/>
<path d="M171.341 121.988H171.007H170.038H166.312L152.599 122.031L107.373 122.074H83.5114H83.3499V121.945C83.3499 110.181 83.3929 100.15 83.4037 93.054C83.4037 89.5167 83.4306 86.7116 83.4414 84.7787C83.4414 83.8257 83.4414 83.0881 83.4414 82.5766C83.4414 82.3344 83.4414 82.1513 83.4414 82.0113C83.437 81.9468 83.437 81.882 83.4414 81.8175C83.4414 81.8175 83.4414 81.8875 83.4414 82.0113V82.5766C83.4414 83.0881 83.4414 83.8257 83.4414 84.7787C83.4414 86.7116 83.4414 89.5167 83.4791 93.054C83.4791 100.15 83.5114 110.181 83.5329 121.945L83.4037 121.81H107.363L152.588 121.848L166.301 121.891L170.027 121.918H170.996L171.341 121.988Z" fill="white"/>
<path d="M73.2271 123.806L74.4484 110.232L92.9014 107.258L92.3783 124.963C84.7373 128.895 76.0642 126.341 73.2271 123.806Z" fill="#FBFAF1"/>
<path d="M103.069 84.4712C102.83 79.731 100.029 74.2789 98.7398 72.1605L81.523 77.1208L77.1692 82.7982L70.3947 94.6016L77.9315 111.901L91.9676 109.78C96.2175 109.92 97.2933 110.219 101.843 109.283C106.302 108.365 107.324 98.1598 106.035 94.222C112.223 90.7283 105.662 86.8157 103.069 84.4712Z" fill="#FBFAF1"/>
<path d="M80.5823 94.4417C80.8412 94.6419 81.2133 94.5944 81.4135 94.3355C81.6138 94.0766 81.5662 93.7045 81.3074 93.5043L80.5823 94.4417ZM74.9581 96.6318C74.9403 96.9586 75.1907 97.238 75.5175 97.2558C75.8442 97.2737 76.1236 97.0233 76.1414 96.6965L74.9581 96.6318ZM81.3074 93.5043C80.8516 93.1518 80.274 92.7975 79.6504 92.5532C79.0317 92.3109 78.3249 92.1601 77.6322 92.271C76.9147 92.3858 76.2598 92.7751 75.7805 93.5169C75.3151 94.2371 75.0331 95.2596 74.9581 96.6318L76.1414 96.6965C76.2104 95.4345 76.4649 94.6413 76.7759 94.1601C77.0729 93.7004 77.4341 93.5029 77.8195 93.4412C78.2298 93.3755 78.7128 93.4587 79.2181 93.6567C79.7185 93.8527 80.1989 94.1451 80.5823 94.4417L81.3074 93.5043Z" fill="#197EA9"/>
<path d="M77.3651 93.5073C77.3737 93.1802 77.1156 92.908 76.7884 92.8993C76.4613 92.8907 76.1891 93.1488 76.1804 93.476L77.3651 93.5073ZM79.8794 97.7167C80.1948 97.6297 80.3801 97.3035 80.2931 96.988C80.2062 96.6725 79.8799 96.4872 79.5644 96.5742L79.8794 97.7167ZM76.1804 93.476C76.1592 94.2773 76.2859 95.477 76.7899 96.4151C77.0466 96.893 77.421 97.3389 77.9589 97.6028C78.5063 97.8714 79.1526 97.917 79.8794 97.7167L79.5644 96.5742C79.0639 96.7122 78.7229 96.6576 78.481 96.5389C78.2296 96.4156 78.0126 96.187 77.8339 95.8543C77.467 95.1714 77.3466 94.2059 77.3651 93.5073L76.1804 93.476Z" fill="#197EA9"/>
<path d="M62.397 71.2607C64.8254 74.3224 67.3986 81.7071 58.2643 86.7519" stroke="black" stroke-width="1.18508"/>
<path d="M40.8987 177.161C43.2973 161.243 60.5457 134.932 64.6342 126.664L72.5167 140.848C65.1028 157.638 60.3419 172.255 61.6139 177.161H40.8987Z" fill="#135F7F"/>
<path d="M141.629 104.226C141.298 110.452 142.278 115.98 142.885 118.179C143.361 117.226 144.335 116.624 145.401 116.624H146.589C147.654 116.624 148.628 117.226 149.105 118.179C150.263 117.912 151.335 118.178 152.284 118.663C154.515 119.805 155.594 122.382 155.517 124.887C155.367 129.766 154.058 135.571 153.251 138.395L138.738 136.062C138.392 133.989 137.597 129.272 137.183 126.991C135.895 119.908 135.975 110.947 136.903 103.595C137.049 102.44 138.042 101.593 139.205 101.593C140.614 101.593 141.704 102.82 141.629 104.226Z" fill="#FBFAF1"/>
<path d="M132.401 124.469C133.753 132.115 137.547 134.67 139.505 134.964L141.385 132.278C139.68 133.556 138.989 128.578 138.777 124.286C138.691 122.557 137.341 121.129 135.612 121.043C133.677 120.946 132.064 122.561 132.401 124.469Z" fill="#FBFAF1"/>
<path d="M61.8093 128.783C67.2606 120.933 72.5167 118.952 74.9698 118.77C95.2489 116.807 107.133 122.677 109.586 125.584C112.639 128.855 112.608 129.486 114.425 135.846C118.132 143.696 115.284 161.944 113.012 166.214L114.425 177.161H67.4593C67.7318 164.078 54.995 138.596 61.8093 128.783Z" fill="#197EA9"/>
<path d="M46.4042 73.4303C53.2291 65.8818 61.2258 69.6822 64.371 72.5259C66.7804 81.3562 61.3037 85.6892 58.2642 86.7519C51.9108 96.0779 66.3305 111.454 64.7848 129.544C63.2392 147.634 58.6525 148.684 54.8277 148.603C51.7678 148.539 51.0747 146.336 51.1106 145.243C50.4349 146.277 48.3675 148.219 45.5035 147.708C42.6395 147.197 42.703 144.483 43.0928 143.19C39.5146 148.01 26.446 143.209 37.6035 131.731C48.7611 120.253 39.5136 104.616 38.8303 96.4634C38.147 88.3104 37.873 82.8659 46.4042 73.4303Z" fill="#0C3F54"/>
<path d="M93.5904 61.3362C82.689 57.3 74.2 63.5708 71.2433 68.0862C53.4869 79.6782 67.1018 97.8603 76.1287 105.502L80.2514 100.655C72.3021 99.9638 72.5812 94.665 75.4249 91.5198C78.2686 88.3746 82.2356 92.2874 85.843 93.4704C88.7289 94.4168 85.4188 86.8508 83.403 82.9496C86.8656 82.3386 87.5192 79.2037 87.1602 77.4933C92.7034 79.1793 93.4101 76.5224 94.5075 74.8297C99.572 77.8497 107.217 66.3815 93.5904 61.3362Z" fill="#0C3F54"/>
<ellipse cx="97.8151" cy="86.4537" rx="1.36286" ry="1.36285" transform="rotate(-2.88165 97.8151 86.4537)" fill="#197EA9"/>
<path fill-rule="evenodd" clip-rule="evenodd" d="M7.07471 45.4665C7.07471 46.121 7.60529 46.6515 8.25979 46.6515H32.6608C32.8627 46.6515 33.0613 46.7031 33.2377 46.8015L47.0637 54.507C47.9905 55.0235 49.077 54.1553 48.7775 53.1374L47.3167 48.171C47.0934 47.412 47.6625 46.6515 48.4536 46.6515H60.3481C61.0026 46.6515 61.5332 46.121 61.5332 45.4665V5.31497C61.5332 4.66047 61.0026 4.12989 60.3481 4.12989H8.25979C7.60529 4.12989 7.07471 4.66047 7.07471 5.31497V45.4665Z" fill="#EAF6FB"/>
<path d="M13.7841 17.5487L20.9352 20.3893" stroke="#99D2EB" stroke-width="3.06704" stroke-linecap="round"/>
<path d="M54.7467 18.608L49.7047 20.3892" stroke="#99D2EB" stroke-width="3.06704" stroke-linecap="round"/>
<path d="M21.906 8.37805L26.487 12.7628" stroke="#99D2EB" stroke-width="3.06704" stroke-linecap="round"/>
<path d="M46.6248 8.36743L42.3872 13.1053" stroke="#99D2EB" stroke-width="3.06704" stroke-linecap="round"/>
<path d="M168.894 50.0405C168.894 48.5395 167.993 47.1852 166.609 46.6052L158.21 43.0867C155.756 42.0586 153.046 43.8612 153.046 46.5221V64.6118C153.046 66.6688 154.714 68.3364 156.771 68.3364H168.894V50.0405Z" fill="#135F7F"/>
<path d="M166.683 51.6079C166.683 50.1383 165.819 48.8062 164.478 48.207L158.22 45.4129C155.757 44.3128 152.977 46.1157 152.977 48.8138V68.3428H166.683V51.6079Z" fill="#1F9ED3"/>
<path d="M157.758 38.2232C157.758 36.1662 156.09 34.4987 154.033 34.4987H137.925C135.867 34.4987 134.2 36.1662 134.2 38.2232V68.3363H157.758V38.2232Z" fill="#F1D386"/>
<path d="M154.681 38.961C154.681 38.4468 154.264 38.0299 153.75 38.0299H151.329C150.815 38.0299 150.398 38.4468 150.398 38.961V68.4409H154.681V38.961Z" fill="#62C4EE"/>
<path d="M148.325 38.961C148.325 38.4468 147.908 38.0299 147.394 38.0299H144.973C144.459 38.0299 144.042 38.4468 144.042 38.961V68.4409H148.325V38.961Z" fill="#62C4EE"/>
<path d="M142.014 38.961C142.014 38.4468 141.598 38.0299 141.083 38.0299H138.662C138.148 38.0299 137.731 38.4468 137.731 38.961V68.4409H142.014V38.961Z" fill="#62C4EE"/>
<path opacity="0.5" d="M163.471 47.7832V68.5569" stroke="#135F7F" stroke-width="0.93114"/>
<path opacity="0.5" d="M159.83 46.4983L159.83 68.3429" stroke="#135F7F" stroke-width="0.93114"/>
<path opacity="0.5" d="M157.689 52.0665H166.683" stroke="#135F7F" stroke-width="0.93114"/>
<path opacity="0.5" d="M157.689 56.7781H166.683" stroke="#135F7F" stroke-width="0.93114"/>
<path opacity="0.5" d="M157.689 61.0613H166.683" stroke="#135F7F" stroke-width="0.93114"/>
<path opacity="0.5" d="M157.689 65.3446H166.683" stroke="#135F7F" stroke-width="0.93114"/>
<path d="M172.338 68.3987C172.338 68.3987 163.01 68.3987 151.506 68.3987C140.002 68.3987 130.669 68.3987 130.669 68.3987C130.669 68.3987 139.994 68.3987 151.506 68.3987C163.017 68.3987 172.338 68.3987 172.338 68.3987Z" stroke="#1F9ED3" stroke-width="0.767664"/>
<path d="M172.337 69.8112C172.337 69.8112 164.116 69.8112 153.977 69.8112C143.838 69.8112 135.612 69.8112 135.612 69.8112C135.612 69.8112 143.831 69.8112 153.977 69.8112C164.123 69.8112 172.337 69.8112 172.337 69.8112Z" stroke="#C7E7F4" stroke-width="0.767664"/>
<path d="M61.9485 73.1936C66.0739 68.401 71.7062 68.2449 74.0067 68.7659L67.9292 88.9945L72.357 101.053L80.5237 100.642C82.1041 104.929 81.7246 110.771 79.6594 111.107C76.503 111.619 75.4627 112.025 73.3289 111.779C73.2594 111.403 73.0941 110.994 72.8504 110.56C67.8259 101.607 56.1123 96.0475 56.7024 85.7985C56.9921 80.7653 59.2089 76.3764 61.9485 73.1936Z" fill="#0C3F54"/>
<path d="M99.2332 99.5879C100.481 100.115 103.464 100.591 105.42 98.2809" stroke="#197EA9" stroke-width="1.53352" stroke-linecap="round"/>
<path d="M100.609 129.477C101.7 123.589 104.88 122.844 106.333 123.208C115.492 124.516 128.032 142.197 133.847 150.192L136.861 135.201C146.237 131.494 152.761 135.292 154.851 137.654C154.396 141.015 153.197 152.568 151.035 163.82C150.545 166.37 149.738 168.344 148.734 169.856C143.807 177.274 133.057 171.413 125.843 166.192C118.077 160.571 109.589 154.014 106.333 150.192C100.064 142.833 99.2465 136.836 100.609 129.477Z" fill="#197EA9"/>
<path d="M140.203 159.858C134.553 150.324 126.431 138.671 119.369 132.314" stroke="#135F7F" stroke-width="1.18508"/>
<path d="M62.8686 70.5175C65.297 73.5792 66.3529 84.8946 57.2186 89.9394" stroke="#197EA9" stroke-width="3.07066"/>
<path fill-rule="evenodd" clip-rule="evenodd" d="M39.0585 39.3898C39.0585 40.5842 37.95 41.5612 36.5951 41.5612H34.0073V41.5609H33.0757C31.8956 41.5609 30.6141 40.7668 30.6141 39.0308V36.7502H34.0073V36.7499H39.0585V39.3898Z" fill="#135F7F"/>
<path fill-rule="evenodd" clip-rule="evenodd" d="M38.9776 23.9406C38.9794 24.3712 39.2307 24.7697 39.6362 24.9194C40.3495 25.1827 41.0415 24.6447 41.0415 23.9606C41.0415 20.7573 38.4136 18.1433 35.1939 18.1433C34.5091 18.1433 33.9646 18.8317 34.2299 19.5412C34.3816 19.9451 34.7823 20.1945 35.2157 20.1975C37.29 20.209 38.9666 21.8774 38.9776 23.9406ZM32.7846 14.9412C35.6893 14.3247 38.662 15.0354 40.9178 16.8559C43.1887 18.6922 44.4829 21.4022 44.4805 24.3035C44.4805 27.2605 43.1329 29.9994 40.8067 31.8326C39.8566 32.5723 39.2375 33.5288 39.0456 34.5698L34.0073 34.5686V34.5691L30.6237 34.5679C30.4319 33.4883 29.8661 32.556 29.0551 31.9546C27.3402 30.663 26.1485 28.9022 25.5846 26.935H25.585C25.1619 25.461 25.0921 23.8718 25.4217 22.2771C26.1793 18.6511 29.1375 15.6942 32.7846 14.9412Z" fill="#F4DC9F"/>
<path d="M39.6362 24.9194L39.383 25.6052L39.3831 25.6052L39.6362 24.9194ZM38.9776 23.9406L39.7086 23.9375L39.7086 23.9368L38.9776 23.9406ZM34.2299 19.5412L33.5452 19.7972L33.5456 19.7982L34.2299 19.5412ZM35.2157 20.1975L35.2106 20.9285L35.2117 20.9285L35.2157 20.1975ZM40.9178 16.8559L41.3774 16.2875L41.3769 16.2871L40.9178 16.8559ZM32.7846 14.9412L32.9324 15.6571L32.9363 15.6563L32.7846 14.9412ZM44.4805 24.3035L43.7495 24.3029V24.3035H44.4805ZM40.8067 31.8326L41.2558 32.4094L41.2591 32.4068L40.8067 31.8326ZM39.0456 34.5698L39.0455 35.3008L39.6542 35.3009L39.7645 34.7022L39.0456 34.5698ZM34.0073 34.5686L34.0075 33.8376L33.2764 33.8374V34.5686H34.0073ZM34.0073 34.5691L34.0071 35.3001L34.7383 35.3004V34.5691H34.0073ZM30.6237 34.5679L29.904 34.6958L30.0111 35.2987L30.6234 35.2989L30.6237 34.5679ZM29.0551 31.9546L28.6153 32.5385L28.6197 32.5417L29.0551 31.9546ZM25.5846 26.935V26.204H24.6146L24.8819 27.1364L25.5846 26.935ZM25.585 26.935V27.6659H26.5554L26.2876 26.7333L25.585 26.935ZM25.4217 22.2771L24.7062 22.1276L24.7059 22.1291L25.4217 22.2771ZM39.8895 24.2337C39.7992 24.2004 39.7092 24.0955 39.7086 23.9375L38.2466 23.9437C38.2496 24.6468 38.6622 25.339 39.383 25.6052L39.8895 24.2337ZM40.3105 23.9606C40.3105 24.1552 40.1074 24.3141 39.8893 24.2337L39.3831 25.6052C40.5916 26.0513 41.7725 25.1342 41.7725 23.9606H40.3105ZM35.1939 18.8743C38.0135 18.8743 40.3105 21.1646 40.3105 23.9606H41.7725C41.7725 20.3499 38.8137 17.4123 35.1939 17.4123V18.8743ZM34.9146 19.2852C34.8728 19.1735 34.8939 19.0793 34.948 19.0045C35.0078 18.9217 35.1006 18.8743 35.1939 18.8743V17.4123C34.0327 17.4123 33.0896 18.5788 33.5452 19.7972L34.9146 19.2852ZM35.2208 19.4665C35.0532 19.4654 34.9471 19.3716 34.9142 19.2841L33.5456 19.7982C33.8162 20.5186 34.5114 20.9236 35.2106 20.9285L35.2208 19.4665ZM39.7086 23.9368C39.6955 21.4693 37.6911 19.4802 35.2198 19.4665L35.2117 20.9285C36.8889 20.9378 38.2378 22.2854 38.2466 23.9445L39.7086 23.9368ZM41.3769 16.2871C38.9475 14.3265 35.7498 13.5646 32.6328 14.2262L32.9363 15.6563C35.6288 15.0848 38.3765 15.7443 40.4587 17.4248L41.3769 16.2871ZM45.2115 24.3041C45.2141 21.1807 43.8193 18.262 41.3774 16.2875L40.4582 17.4244C42.5582 19.1224 43.7518 21.6236 43.7495 24.3029L45.2115 24.3041ZM41.2591 32.4068C43.7585 30.4371 45.2115 27.4878 45.2115 24.3035H43.7495C43.7495 27.0331 42.5072 29.5618 40.3542 31.2585L41.2591 32.4068ZM39.7645 34.7022C39.919 33.8638 40.4243 33.0568 41.2558 32.4094L40.3576 31.2559C39.289 32.0879 38.5559 33.1937 38.3268 34.4373L39.7645 34.7022ZM34.0072 35.2996L39.0455 35.3008L39.0458 33.8388L34.0075 33.8376L34.0072 35.2996ZM34.7383 34.5691V34.5686H33.2764V34.5691H34.7383ZM30.6234 35.2989L34.0071 35.3001L34.0076 33.8381L30.6239 33.8369L30.6234 35.2989ZM28.6197 32.5417C29.2704 33.0243 29.7425 33.7869 29.904 34.6958L31.3434 34.44C31.1212 33.1896 30.4617 32.0876 29.4905 31.3674L28.6197 32.5417ZM24.8819 27.1364C25.4897 29.2564 26.7736 31.1514 28.6153 32.5385L29.4948 31.3707C27.9067 30.1745 26.8074 28.548 26.2873 26.7335L24.8819 27.1364ZM25.585 26.204H25.5846V27.6659H25.585V26.204ZM24.7059 22.1291C24.3524 23.8392 24.4265 25.5484 24.8824 27.1366L26.2876 26.7333C25.8973 25.3736 25.8318 23.9044 26.1376 22.4251L24.7059 22.1291ZM32.6368 14.2253C28.7047 15.0371 25.5234 18.2164 24.7062 22.1276L26.1373 22.4266C26.8353 19.0858 29.5702 16.3512 32.9324 15.6571L32.6368 14.2253Z" fill="#C1A96B"/>
<path fill-rule="evenodd" clip-rule="evenodd" d="M128.373 48.6083L126.014 50.7348L123.686 52.8612L123.686 50.5191L113.012 50.5191L113.012 46.9133L123.686 46.9133L123.686 44.3862L126.014 46.5127L128.373 48.6083Z" fill="#197EA9"/>
<path d="M19.872 92.1841L25.76 91.0801C26.312 90.9881 26.312 90.2061 25.76 90.1141L19.872 89.0101C19.688 88.9641 19.504 88.8261 19.504 88.6421L18.4 82.7541C18.308 82.2021 17.526 82.2021 17.434 82.7541L16.33 88.6421C16.284 88.8261 16.146 89.0101 15.962 89.0101L10.074 90.1141C9.52203 90.2061 9.52203 90.9881 10.074 91.0801L15.962 92.1841C16.146 92.2301 16.33 92.3681 16.33 92.5521L17.434 98.4401C17.526 98.9921 18.308 98.9921 18.4 98.4401L19.504 92.5521C19.55 92.3681 19.688 92.2301 19.872 92.1841Z" fill="#99D2EB"/>
<path d="M169.945 20.4336L177.49 19.019C178.197 18.9011 178.197 17.8991 177.49 17.7812L169.945 16.3666C169.709 16.3076 169.473 16.1308 169.473 15.8951L168.059 8.35054C167.941 7.64324 166.939 7.64324 166.821 8.35054L165.406 15.8951C165.348 16.1308 165.171 16.3666 164.935 16.3666L157.39 17.7812C156.683 17.8991 156.683 18.9011 157.39 19.019L164.935 20.4336C165.171 20.4925 165.406 20.6693 165.406 20.9051L166.821 28.4496C166.939 29.1569 167.941 29.1569 168.059 28.4496L169.473 20.9051C169.532 20.6693 169.709 20.4925 169.945 20.4336Z" fill="#1F9ED3"/>
<path d="M25.214 177.146H177.807" stroke="#0F678C" stroke-width="1.57504"/>
<path d="M3.54346 181.399H97.4749" stroke="#1577A0" stroke-width="1.57504"/>
<path d="M104.537 123.839C100.064 125.958 93.1667 132.95 101.359 143.968L115.484 158.446" stroke="#135F7F" stroke-width="1.53533"/>
<path d="M136.319 117.836C136.319 120.308 136.601 125.817 137.731 128.077" stroke="#197EA9" stroke-width="1.53533" stroke-linecap="round"/>
</g>
<defs>
<clipPath id="clip0_160_7394">
<rect width="184" height="184" fill="white"/>
</clipPath>
</defs>
</svg>
