<svg width="169" height="175" viewBox="0 0 169 175" fill="none" xmlns="http://www.w3.org/2000/svg">
<path d="M38.2545 62.0624C40.5117 58.3186 45.3766 57.1134 49.1204 59.3706L62.0872 67.1884L53.9132 80.7461L40.9464 72.9283C37.2025 70.6711 35.9973 65.8063 38.2545 62.0624Z" fill="#FBFAF1"/>
<path d="M117.324 95.8007C120.718 109.637 118.369 126.605 117.324 130.26C117.159 130.99 116.951 132.272 116.758 133.578C116.424 135.833 116.852 138.128 117.917 140.143L125.197 153.916C125.679 154.829 125.881 155.878 125.657 156.886C122.196 172.465 101.166 176.109 90.4613 171.803C89.1805 171.288 88.3188 170.101 87.8411 168.806C86.3699 164.817 83.0024 156.89 81.1331 150.263C78.2615 140.082 74.5117 139.919 67.7243 137.047C62.2943 134.75 65.4618 130.086 64.8527 126.344V104.154L74.2506 99.4555L95.9181 88.4912C97.4844 86.8379 100.983 81.2339 102.444 72.0449C103.382 66.1544 105.942 60.7359 107.98 57.261C109.396 54.8481 112.227 53.9708 114.926 54.7069C118.873 55.7834 121.206 59.7987 120.265 63.7804C118.025 73.251 115.249 87.3385 117.324 95.8007Z" fill="#FBFAF1"/>
<path d="M107.884 63.2459C106.9 60.2941 106.449 60.1711 106.346 60.4785L73.1387 139.501L78.9808 141.961C86.1553 142.268 101.98 142.699 107.884 141.961C113.787 141.223 114.238 133.044 113.726 129.047C112.189 108.343 108.868 66.1977 107.884 63.2459Z" fill="#F7E5B6"/>
<path d="M55.6123 69.088L39.3159 70.6254C43.9896 75.7911 52.7425 76.6725 56.5348 76.4675L55.6123 69.088Z" fill="#F7E5B6"/>
<path fill-rule="evenodd" clip-rule="evenodd" d="M115.413 54.3475C119.484 55.3704 121.921 59.4776 120.952 63.5483C119.827 68.2755 118.55 74.2057 117.815 80.0164C117.079 85.8434 116.898 91.4813 117.922 95.6543C119.638 102.651 119.898 110.417 119.603 116.876C119.309 123.308 118.462 128.505 117.921 130.412C117.762 131.119 117.558 132.37 117.366 133.669C117.053 135.787 117.454 137.951 118.46 139.856L125.74 153.629C126.279 154.647 126.519 155.844 126.258 157.02C124.348 165.616 117.282 170.65 109.561 172.814C101.858 174.974 93.3118 174.336 88.2059 171.397C87.9116 171.227 87.8104 170.851 87.9798 170.557C88.1493 170.263 88.5253 170.161 88.8196 170.331C93.5586 173.059 101.742 173.729 109.229 171.63C116.697 169.536 123.281 164.747 125.057 156.753C125.244 155.911 125.08 155.012 124.653 154.203L117.373 140.43C116.25 138.306 115.796 135.878 116.149 133.489C116.342 132.185 116.554 130.881 116.725 130.124L116.729 130.107L116.733 130.091C117.237 128.329 118.082 123.226 118.375 116.82C118.667 110.422 118.405 102.786 116.727 95.9473C115.648 91.5457 115.855 85.7214 116.595 79.8622C117.338 73.9866 118.627 68.0067 119.755 63.2636C120.571 59.8355 118.519 56.3961 115.114 55.5404L115.413 54.3475Z" fill="#135F7F"/>
<path d="M63.2349 41.5903C63.3129 42.3481 63.6657 43.0511 64.2266 43.5666C64.7876 44.0821 65.5178 44.3744 66.2795 44.3882H86.1082C86.4666 44.3947 86.8223 44.3248 87.1516 44.1831C87.4809 44.0415 87.7763 43.8313 88.018 43.5666C88.2597 43.3019 88.4423 42.9887 88.5536 42.6479C88.6649 42.3072 88.7023 41.9466 88.6634 41.5903L88.4013 38.588H62.9844L63.2349 41.5903Z" fill="#1F9ED3"/>
<path d="M93.6196 36.8036H57.5464C56.4788 36.786 55.4196 36.9956 54.4391 37.4185C53.4586 37.8414 52.5793 38.468 51.8594 39.2567C51.1396 40.0455 50.5957 40.9782 50.2639 41.9932C49.9321 43.0081 49.8199 44.082 49.9348 45.1436L57.5195 131.8C57.7497 134.06 58.7993 136.157 60.47 137.696C62.1408 139.234 64.317 140.108 66.5879 140.152H102.68C103.748 140.169 104.807 139.96 105.788 139.537C106.768 139.114 107.647 138.487 108.367 137.699C109.087 136.91 109.631 135.977 109.963 134.962C110.295 133.947 110.407 132.873 110.292 131.812L102.68 45.1436C102.446 42.8881 101.396 40.7958 99.7273 39.26C98.0588 37.7242 95.8869 36.8507 93.6196 36.8036Z" fill="#0C3F54"/>
<g opacity="0.4">
<path opacity="0.4" d="M63.2349 41.5903C63.3129 42.3481 63.6657 43.0511 64.2266 43.5666C64.7876 44.0821 65.5178 44.3744 66.2795 44.3882H86.1082C86.4666 44.3947 86.8223 44.3248 87.1516 44.1831C87.4809 44.0415 87.7763 43.8313 88.018 43.5666C88.2597 43.3019 88.4423 42.9887 88.5536 42.6479C88.6649 42.3072 88.7023 41.9466 88.6634 41.5903L88.4013 38.588H62.9844L63.2349 41.5903Z" fill="white"/>
</g>
<path d="M96.0015 38.5842H59.9283C59.0831 38.5692 58.2444 38.7345 57.4681 39.0691C56.6918 39.4036 55.9957 39.8997 55.4261 40.5244C54.8565 41.149 54.4266 41.8878 54.1649 42.6917C53.9032 43.4955 53.8158 44.3458 53.9084 45.186L61.4892 131.839C61.6708 133.626 62.5015 135.286 63.8238 136.502C65.1462 137.719 66.8687 138.408 68.6653 138.441H104.738C105.585 138.458 106.425 138.294 107.204 137.961C107.982 137.627 108.68 137.131 109.251 136.506C109.822 135.881 110.254 135.142 110.516 134.337C110.779 133.532 110.867 132.68 110.774 131.839L103.181 45.186C102.999 43.398 102.168 41.7389 100.844 40.5224C99.5215 39.3059 97.7985 38.6164 96.0015 38.5842Z" fill="#99D2EB"/>
<path fill-rule="evenodd" clip-rule="evenodd" d="M95.5668 73.0852L98.0356 75.8239L100.504 78.527H97.7851V90.919H93.599V78.527H90.665L93.1338 75.8239L95.5668 73.0852Z" fill="#1F9ED3"/>
<path d="M95.8511 36.8653H59.7779C58.7102 36.8476 57.651 37.0572 56.6705 37.4801C55.69 37.9031 54.8107 38.5297 54.0909 39.3184C53.3711 40.1071 52.8272 41.0399 52.4954 42.0548C52.1636 43.0698 52.0514 44.1437 52.1663 45.2053L59.7471 131.839C59.9801 134.097 61.0314 136.192 62.7026 137.728C64.3739 139.264 66.5496 140.136 68.8193 140.179H104.892C105.96 140.197 107.02 139.988 108 139.565C108.981 139.142 109.86 138.516 110.58 137.727C111.299 136.938 111.843 136.005 112.174 134.99C112.505 133.974 112.616 132.9 112.5 131.839L104.919 45.186C104.683 42.9317 103.631 40.8415 101.96 39.309C100.29 37.7766 98.1174 36.9074 95.8511 36.8653ZM110.774 131.839C110.866 132.679 110.779 133.53 110.517 134.334C110.255 135.138 109.825 135.877 109.255 136.502C108.685 137.127 107.988 137.623 107.211 137.957C106.435 138.291 105.595 138.456 104.75 138.441H68.6767C66.8801 138.408 65.1577 137.719 63.8353 136.502C62.5129 135.286 61.6823 133.626 61.5006 131.839L53.9083 45.186C53.8156 44.3458 53.9031 43.4954 54.1647 42.6916C54.4264 41.8878 54.8564 41.149 55.426 40.5244C55.9955 39.8997 56.6917 39.4036 57.468 39.0691C58.2443 38.7345 59.083 38.5692 59.9282 38.5842H96.0014C97.7984 38.6163 99.5213 39.3059 100.844 40.5224C102.167 41.7389 102.999 43.398 103.181 45.186L110.774 131.839Z" fill="#135F7F"/>
<path d="M65.2043 38.6304C65.3295 39.8579 65.9003 40.9971 66.8086 41.8322C67.7169 42.6674 68.8998 43.1407 70.1336 43.1627H86.4937C87.074 43.1726 87.6497 43.059 88.1827 42.8293C88.7156 42.5996 89.1936 42.259 89.5848 41.8303C89.9759 41.4016 90.2714 40.8945 90.4514 40.3428C90.6315 39.791 90.692 39.2073 90.629 38.6304H65.2043Z" fill="#135F7F"/>
<path fill-rule="evenodd" clip-rule="evenodd" d="M81.6737 82.8767C81.29 77.6447 80.5273 73.5557 79.6736 71.6111L81.3628 70.8695C82.354 73.1271 83.1287 77.4938 83.5137 82.7418C83.9016 88.0303 83.9016 94.3358 83.2809 100.543L81.4452 100.359C82.0545 94.2667 82.0545 88.0681 81.6737 82.8767Z" fill="#4BA923"/>
<path fill-rule="evenodd" clip-rule="evenodd" d="M79.6515 85.1963C78.5522 83.445 77.462 82.2999 76.8196 81.9145L77.4524 80.8599C78.3474 81.3969 79.5633 82.7424 80.6932 84.5425C81.8383 86.3668 82.9437 88.7346 83.5763 91.3916L82.3798 91.6765C81.7825 89.1677 80.7355 86.9234 79.6515 85.1963Z" fill="#4BA923"/>
<path d="M78.3658 82.0298C77.7508 78.6199 76.5209 74.3152 69.7563 75.6287C69.1414 79.5423 71.6869 83.5661 78.3658 82.0298Z" fill="#4BA923"/>
<path fill-rule="evenodd" clip-rule="evenodd" d="M76.5938 76.8498C77.8903 78.2605 78.3615 80.2727 78.6686 81.9752L78.7206 82.2637L78.4349 82.3294C75.032 83.1122 72.6088 82.4925 71.1161 81.0976C69.6296 79.7083 69.1337 77.6119 69.4528 75.5809L69.4863 75.3679L69.6979 75.3268C73.1507 74.6564 75.2707 75.4102 76.5938 76.8498ZM70.03 75.8903C73.2086 75.32 75.029 76.0561 76.141 77.266C77.2385 78.4601 77.7021 80.17 78.0096 81.7933C74.8926 82.4463 72.7939 81.8238 71.536 80.6483C70.2832 79.4774 69.8013 77.7 70.03 75.8903Z" fill="#4BA923"/>
<path d="M87.4098 62.1073C88.3782 66.7625 85.3895 71.3214 80.7344 72.2898C76.0792 73.2583 71.5203 70.2696 70.5519 65.6144C69.5834 60.9592 72.5721 56.4003 77.2273 55.4319C81.8825 54.4635 86.4413 57.4521 87.4098 62.1073Z" fill="#ECC359"/>
<path fill-rule="evenodd" clip-rule="evenodd" d="M77.3526 56.034C73.0299 56.9332 70.2547 61.1665 71.154 65.4892C72.0532 69.8118 76.2865 72.587 80.6091 71.6878C84.9318 70.7885 87.707 66.5553 86.8078 62.2326C86.5553 61.0189 86.0407 59.9287 85.3359 59.0073C85.1296 58.7376 85.181 58.3516 85.4507 58.1453C85.7205 57.9389 86.1065 57.9903 86.3128 58.2601C87.1272 59.3248 87.7211 60.584 88.0119 61.9821C89.0495 66.9698 85.8473 71.8543 80.8596 72.8919C75.8719 73.9295 70.9874 70.7274 69.9498 65.7397C68.9122 60.752 72.1144 55.8675 77.1021 54.8298C77.4346 54.7607 77.7602 54.9741 77.8294 55.3067C77.8986 55.6392 77.6851 55.9648 77.3526 56.034Z" fill="#1F9ED3"/>
<path d="M73.7449 61.4222L75.9363 60.9664C76.3947 60.871 76.8026 60.8582 77.16 60.9279C77.5173 60.9976 77.8126 61.1494 78.0456 61.3833C78.2787 61.6171 78.4363 61.9315 78.5184 62.3264C78.5833 62.6385 78.5844 62.9207 78.5216 63.1729C78.4589 63.4251 78.3427 63.6494 78.1733 63.846C78.0067 64.0421 77.7972 64.2124 77.5449 64.3571L77.2266 64.6135L75.292 65.0159L75.0967 64.1187L76.5425 63.818C76.7772 63.7691 76.9633 63.6872 77.1007 63.5722C77.2381 63.4572 77.3303 63.3184 77.3772 63.156C77.4268 62.9929 77.4321 62.8175 77.393 62.6297C77.3511 62.4281 77.2762 62.2622 77.1684 62.1319C77.0601 61.9988 76.9189 61.9087 76.7448 61.8613C76.5707 61.814 76.3635 61.8153 76.1233 61.8653L75.0711 62.0842L76.1388 67.2168L74.9996 67.4537L73.7449 61.4222ZM78.4048 66.7454L76.4469 64.3349L77.6515 64.0799L79.6148 66.4331L79.6269 66.4911L78.4048 66.7454Z" fill="#197EA9"/>
<path d="M80.6508 62.5009L81.7625 67.8447L80.6647 68.0731L79.3738 61.8676L80.3887 61.6564L80.6508 62.5009ZM83.8073 63.2358L83.8254 63.3228C83.8932 63.6487 83.9175 63.9591 83.8982 64.2541C83.8811 64.5458 83.8209 64.8104 83.7176 65.048C83.6137 65.2828 83.4648 65.4809 83.2708 65.6423C83.0789 65.8004 82.8421 65.9087 82.5604 65.9673C82.2843 66.0247 82.0331 66.0222 81.8069 65.9598C81.5801 65.8946 81.3759 65.7786 81.1943 65.6119C81.0126 65.4451 80.852 65.2408 80.7124 64.999C80.575 64.7539 80.4534 64.481 80.3476 64.1803L80.2898 63.9027C80.2629 63.5655 80.263 63.2543 80.2901 62.9692C80.3194 62.6807 80.3841 62.4238 80.4841 62.1984C80.5836 61.9703 80.723 61.7814 80.9022 61.6317C81.0841 61.4815 81.3118 61.378 81.5852 61.3211C81.8697 61.2619 82.1308 61.2638 82.3686 61.3267C82.6092 61.389 82.825 61.5054 83.0161 61.676C83.2072 61.8466 83.369 62.0636 83.5016 62.327C83.6342 62.5904 83.7361 62.8934 83.8073 63.2358ZM82.7277 63.5512L82.7096 63.4642C82.6682 63.2653 82.6121 63.0854 82.5411 62.9244C82.4696 62.7607 82.3833 62.623 82.2823 62.5115C82.1808 62.3972 82.0631 62.3165 81.9294 62.2694C81.7957 62.2223 81.6447 62.2163 81.4762 62.2513C81.3077 62.2864 81.1685 62.3442 81.0585 62.4247C80.9485 62.5052 80.8654 62.6046 80.8093 62.7229C80.7533 62.8411 80.7178 62.9753 80.7029 63.1253C80.6902 63.272 80.6945 63.431 80.7157 63.6024L80.8588 64.29C80.9261 64.4892 81.0127 64.6628 81.1184 64.8108C81.2241 64.9588 81.356 65.0668 81.5142 65.1347C81.6752 65.2021 81.8675 65.2125 82.0912 65.166C82.2597 65.1309 82.3955 65.0638 82.4988 64.9645C82.602 64.8652 82.6774 64.7429 82.725 64.5976C82.7719 64.4495 82.7942 64.2864 82.7917 64.1083C82.7892 63.9302 82.7679 63.7445 82.7277 63.5512Z" fill="#197EA9"/>
<path fill-rule="evenodd" clip-rule="evenodd" d="M68.7964 108.942H87.0695L93.2252 98.9136H74.952L68.7964 108.942Z" fill="#007DB0"/>
<path fill-rule="evenodd" clip-rule="evenodd" d="M99.3804 108.942V121.876H87.0691V108.942L93.2248 98.9136L99.3804 108.942Z" fill="#135F7F"/>
<path fill-rule="evenodd" clip-rule="evenodd" d="M65.3438 121.876C65.3438 121.817 65.3921 121.768 65.4517 121.768H104.131C104.19 121.768 104.239 121.817 104.239 121.876C104.239 121.936 104.19 121.984 104.131 121.984H65.4517C65.3921 121.984 65.3438 121.936 65.3438 121.876Z" fill="#197EA9"/>
<path fill-rule="evenodd" clip-rule="evenodd" d="M68.7964 108.942H87.0695V121.876H68.7964V108.942Z" fill="#FBFAF1"/>
<path fill-rule="evenodd" clip-rule="evenodd" d="M78.0056 112.139H80.4776V118.34H78.0056V112.139Z" fill="#FBFAF1"/>
<path fill-rule="evenodd" clip-rule="evenodd" d="M77.8518 112.139C77.8518 112.054 77.9206 111.985 78.0055 111.985H80.4775C80.5624 111.985 80.6313 112.054 80.6313 112.139V118.34C80.6313 118.425 80.5624 118.494 80.4775 118.494H78.0055C77.9206 118.494 77.8518 118.425 77.8518 118.34V112.139ZM78.1593 112.293V118.186H80.3238V112.293H78.1593Z" fill="#1F9ED3"/>
<path fill-rule="evenodd" clip-rule="evenodd" d="M81.7859 112.139H84.2094V118.34H81.7859V112.139Z" fill="#FBFAF1"/>
<path fill-rule="evenodd" clip-rule="evenodd" d="M81.6323 112.139C81.6323 112.054 81.7012 111.985 81.7861 111.985H84.2095C84.2944 111.985 84.3633 112.054 84.3633 112.139V118.34C84.3633 118.425 84.2944 118.494 84.2095 118.494H81.7861C81.7012 118.494 81.6323 118.425 81.6323 118.34V112.139ZM81.9398 112.293V118.186H84.0558V112.293H81.9398Z" fill="#1F9ED3"/>
<path fill-rule="evenodd" clip-rule="evenodd" d="M71.0256 112.139H75.7272V121.876H71.0256V112.139Z" fill="#F4DC9F"/>
<path fill-rule="evenodd" clip-rule="evenodd" d="M168.15 47.8729C168.15 48.2125 167.875 48.4879 167.535 48.4879H115.644C115.595 48.4879 115.547 48.4936 115.5 48.5049L100.477 52.1207C99.9351 52.251 99.5132 51.6514 99.8188 51.1855L106.616 40.8239C106.681 40.7237 106.716 40.6065 106.716 40.4866V1.13496C106.716 0.795322 106.992 0.519997 107.331 0.519997H167.535C167.875 0.519997 168.15 0.795322 168.15 1.13496V47.8729Z" fill="#EAF6FB"/>
<path fill-rule="evenodd" clip-rule="evenodd" d="M19.07 116.747C29.3788 116.747 37.7785 125.168 37.7785 135.504C37.7785 145.839 29.3788 154.26 19.07 154.26C8.66574 154.26 0.265991 145.839 0.265991 135.504C0.265991 125.168 8.66574 116.747 19.07 116.747Z" fill="#F4DC9F"/>
<path d="M9.81433 136.885C9.32156 136.355 9.42011 135.507 9.91289 134.977C10.4057 134.553 11.1941 134.553 11.6869 135.083L16.2204 140.595L27.0614 128.829C27.5542 128.299 28.3426 128.299 28.8354 128.829C29.2296 129.359 29.3282 130.207 28.8354 130.631L17.0088 143.351C17.0088 143.457 17.0088 143.457 16.9103 143.457C16.4175 143.987 15.6291 143.881 15.2348 143.351L9.81433 136.885Z" fill="#1F9ED3"/>
<path d="M58.0721 112.75C58.0721 116.656 55.0435 119.822 51.3075 119.822C47.5716 119.822 44.543 116.656 44.543 112.75C44.543 108.844 47.5716 105.678 51.3075 105.678C55.0435 105.678 58.0721 108.844 58.0721 112.75Z" fill="#FBFAF1"/>
<path fill-rule="evenodd" clip-rule="evenodd" d="M56.1143 107.774C52.5458 110.253 48.8577 109.135 46.5793 107.693C47.7989 106.446 49.4674 105.678 51.3076 105.678C53.1875 105.678 54.8883 106.48 56.1143 107.774Z" fill="#F7E5B6"/>
<path d="M58.6873 100.758C58.6873 104.834 55.3833 108.138 51.3077 108.138C47.2321 108.138 43.9282 104.834 43.9282 100.758C43.9282 96.6828 47.2321 93.3789 51.3077 93.3789C55.3833 93.3789 58.6873 96.6828 58.6873 100.758Z" fill="#FBFAF1"/>
<path fill-rule="evenodd" clip-rule="evenodd" d="M56.3112 95.3342C52.5765 98.0726 48.6794 96.7931 46.3806 95.2645C47.6871 94.0921 49.414 93.3789 51.3076 93.3789C53.2384 93.3789 54.996 94.1204 56.3112 95.3342Z" fill="#F7E5B6"/>
<path d="M58.6873 87.5369C58.6873 91.7823 55.3833 95.2239 51.3077 95.2239C47.2321 95.2239 43.9282 91.7823 43.9282 87.5369C43.9282 83.2914 47.2321 79.8499 51.3077 79.8499C55.3833 79.8499 58.6873 83.2914 58.6873 87.5369Z" fill="#FBFAF1"/>
<path d="M119.568 23.8884H126.948V41.7222H119.568V23.8884Z" fill="#99D2EB"/>
<path d="M134.327 30.6531H141.707V41.7224H134.327V30.6531Z" fill="#1F9ED3"/>
<path d="M149.086 20.1987H156.466V41.7223H149.086V20.1987Z" fill="#197EA9"/>
<path fill-rule="evenodd" clip-rule="evenodd" d="M155.718 10.1901C155.981 10.6262 155.841 11.1932 155.405 11.4565L140.161 20.6608C139.25 21.2106 138.134 21.3 137.147 20.9022L119.223 13.6747C118.751 13.4842 118.522 12.9467 118.713 12.4742C118.903 12.0017 119.441 11.7732 119.913 11.9637L137.837 19.1912C138.286 19.372 138.793 19.3314 139.207 19.0815L154.452 9.87717C154.888 9.61385 155.455 9.75394 155.718 10.1901Z" fill="#4BA923"/>
<path fill-rule="evenodd" clip-rule="evenodd" d="M150.329 9.59271C150.412 9.0902 150.888 8.75072 151.39 8.83447L155.924 9.59018L155.539 13.8251C155.493 14.3325 155.045 14.7064 154.537 14.6602C154.03 14.6141 153.656 14.1654 153.702 13.6581L153.932 11.1285L151.087 10.6542C150.584 10.5705 150.245 10.0952 150.329 9.59271Z" fill="#4BA923"/>
<path d="M52.3868 61.2147L50.5991 60.2215C49.5793 59.655 48.3018 59.8827 47.5405 60.7667L39.3159 70.3179C41.7749 72.449 45.2809 73.5149 48.1047 73.9889C50.384 74.3715 52.8926 73.8579 54.2073 71.9571C55.8541 69.5759 55.7541 66.6746 55.1728 64.4605C54.7951 63.0221 53.6868 61.9369 52.3868 61.2147Z" fill="#FBFAF1"/>
</svg>
