<svg width="24" height="24" viewBox="0 0 24 24" fill="none" xmlns="http://www.w3.org/2000/svg">
<path d="M20.2963 22.6666V3.70368C20.2963 2.39456 19.2351 1.33331 17.926 1.33331H6.07411C4.765 1.33331 3.70374 2.39456 3.70374 3.70368V22.6666M20.2963 22.6666L22.6667 22.6666M20.2963 22.6666H14.3704M3.70374 22.6666L1.33337 22.6666M3.70374 22.6666H9.62967M8.44448 6.07403H9.62967M8.44448 10.8148H9.62967M14.3704 6.07403H15.5556M14.3704 10.8148H15.5556M9.62967 22.6666V16.7407C9.62967 16.0861 10.1603 15.5555 10.8149 15.5555H13.1852C13.8398 15.5555 14.3704 16.0861 14.3704 16.7407V22.6666M9.62967 22.6666H14.3704" stroke="#1F9ED3" stroke-width="2" stroke-linecap="round" stroke-linejoin="round"/>
</svg>
