<svg width="32" height="32" viewBox="0 0 32 32" fill="none" xmlns="http://www.w3.org/2000/svg">
<path d="M28.5816 14.7505C27.5793 13.7482 25.9485 13.7482 24.9464 14.7505L20.5108 19.186C20.3423 18.7687 20.0674 18.4057 19.7198 18.1303C22.0045 16.8286 23.5485 14.3705 23.5485 11.5582C23.5485 7.39062 20.1579 4 15.9903 4C11.8227 4 8.43209 7.39062 8.43209 11.5582C8.43209 13.2957 9.02177 14.8979 10.011 16.1759C9.80479 16.1824 9.59787 16.1996 9.39068 16.2292C8.19219 16.4004 7.10625 16.9434 6.25021 17.7995L3.21948 20.8302C2.91414 21.1355 2.91414 21.6306 3.21948 21.9359C3.52482 22.2413 4.01987 22.2413 4.32521 21.9359L7.35599 18.9052C8.60125 17.66 10.5493 17.3817 12.0933 18.2284C13.1791 18.8238 14.4075 19.1385 15.6458 19.1385H18.1268C18.6819 19.1385 19.1335 19.5902 19.1335 20.1453C19.1335 20.7004 18.6819 21.152 18.1268 21.152H14.7352C14.3034 21.152 13.9533 21.5021 13.9533 21.9339C13.9533 22.3657 14.3034 22.7158 14.7352 22.7158H18.1268C18.8109 22.7158 19.4329 22.4467 19.894 22.0093L19.8964 22.0118L26.0521 15.8561C26.4446 15.4635 27.0833 15.4636 27.4758 15.8561C27.8683 16.2486 27.8683 16.8873 27.4744 17.2813L21.1729 23.6166C20.3186 24.4754 19.1341 24.9679 17.9228 24.9679H13.7546C12.014 24.9679 10.3639 25.5569 9.03195 26.6406C8.69701 26.9131 8.69935 27.4119 9.00469 27.7172C9.31003 28.0226 9.80232 28.0177 10.1446 27.7544C11.1757 26.9612 12.4322 26.5316 13.7547 26.5316H17.9229C19.5472 26.5316 21.136 25.8711 22.2816 24.7194L28.5816 18.3857C29.5839 17.3835 29.5839 15.7527 28.5816 14.7505ZM15.9903 17.5527C12.6849 17.5527 9.99578 14.8636 9.99578 11.5582C9.99578 8.25286 12.6849 5.5638 15.9903 5.5638C19.2956 5.5638 21.9847 8.25292 21.9847 11.5583C21.9847 14.8636 19.2956 17.5527 15.9903 17.5527Z" fill="#1F9ED3"/>
<path d="M28.5816 14.7505L28.5109 14.8212L28.5109 14.8212L28.5816 14.7505ZM24.9464 14.7505L25.0171 14.8212L25.0171 14.8212L24.9464 14.7505ZM20.5108 19.186L20.4181 19.2234L20.4747 19.3635L20.5815 19.2567L20.5108 19.186ZM19.7198 18.1303L19.6703 18.0434L19.5417 18.1167L19.6577 18.2086L19.7198 18.1303ZM10.011 16.1759L10.0142 16.2758L10.2101 16.2696L10.0901 16.1147L10.011 16.1759ZM9.39068 16.2292L9.40482 16.3282L9.40484 16.3282L9.39068 16.2292ZM6.25021 17.7995L6.32092 17.8702L6.32092 17.8702L6.25021 17.7995ZM7.35599 18.9052L7.28528 18.8344L7.28528 18.8344L7.35599 18.9052ZM12.0933 18.2284L12.0452 18.3161L12.0452 18.3161L12.0933 18.2284ZM19.894 22.0093L19.9647 21.9386L19.8958 21.8697L19.8251 21.9368L19.894 22.0093ZM19.8964 22.0118L19.8257 22.0825L19.8964 22.1532L19.9671 22.0825L19.8964 22.0118ZM26.0521 15.8561L26.1228 15.9268L26.1229 15.9268L26.0521 15.8561ZM27.4758 15.8561L27.5465 15.7854L27.5465 15.7854L27.4758 15.8561ZM27.4744 17.2813L27.4037 17.2106L27.4035 17.2108L27.4744 17.2813ZM21.1729 23.6166L21.2438 23.6871L21.2438 23.6871L21.1729 23.6166ZM22.2816 24.7194L22.2107 24.6488H22.2107L22.2816 24.7194ZM28.5816 18.3857L28.5109 18.315L28.5107 18.3152L28.5816 18.3857ZM10.1446 27.7544L10.2056 27.8337L10.1446 27.7544ZM4.32521 21.9359L4.39592 22.0066L4.32521 21.9359ZM3.21948 20.8302L3.29019 20.9009L3.21948 20.8302ZM28.6523 14.6798C27.6109 13.6384 25.9168 13.6385 24.8756 14.6798L25.0171 14.8212C25.9801 13.858 27.5476 13.8579 28.5109 14.8212L28.6523 14.6798ZM24.8756 14.6798L20.4401 19.1153L20.5815 19.2567L25.0171 14.8212L24.8756 14.6798ZM20.6036 19.1485C20.4284 18.7149 20.1429 18.3379 19.782 18.0519L19.6577 18.2086C19.992 18.4735 20.2562 18.8225 20.4181 19.2234L20.6036 19.1485ZM19.7693 18.2171C22.0839 16.8985 23.6485 14.408 23.6485 11.5582H23.4485C23.4485 14.333 21.9252 16.7588 19.6703 18.0434L19.7693 18.2171ZM23.6485 11.5582C23.6485 7.3354 20.2131 3.9 15.9903 3.9V4.1C20.1027 4.1 23.4485 7.44585 23.4485 11.5582H23.6485ZM15.9903 3.9C11.7675 3.9 8.33209 7.3354 8.33209 11.5582H8.53209C8.53209 7.44585 11.8779 4.1 15.9903 4.1V3.9ZM8.33209 11.5582C8.33209 13.3187 8.92967 14.9422 9.93197 16.2371L10.0901 16.1147C9.11388 14.8535 8.53209 13.2727 8.53209 11.5582H8.33209ZM10.0079 16.0759C9.7982 16.0826 9.58759 16.1 9.37652 16.1302L9.40484 16.3282C9.60815 16.2991 9.81139 16.2822 10.0142 16.2758L10.0079 16.0759ZM9.37654 16.1302C8.15663 16.3045 7.05084 16.8574 6.1795 17.7288L6.32092 17.8702C7.16166 17.0294 8.22775 16.4964 9.40482 16.3282L9.37654 16.1302ZM6.1795 17.7288L3.14877 20.7595L3.29019 20.9009L6.32092 17.8702L6.1795 17.7288ZM4.39592 22.0066L7.4267 18.9759L7.28528 18.8344L4.2545 21.8652L4.39592 22.0066ZM7.4267 18.9759C8.64054 17.7621 10.5402 17.4907 12.0452 18.3161L12.1414 18.1408C10.5584 17.2726 8.56197 17.5579 7.28528 18.8344L7.4267 18.9759ZM12.0452 18.3161C13.1457 18.9196 14.3907 19.2385 15.6458 19.2385V19.0385C14.4243 19.0385 13.2124 18.7281 12.1414 18.1408L12.0452 18.3161ZM15.6458 19.2385H18.1268V19.0385H15.6458V19.2385ZM18.1268 19.2385C18.6266 19.2385 19.0335 19.6454 19.0335 20.1453H19.2335C19.2335 19.5349 18.7371 19.0385 18.1268 19.0385V19.2385ZM19.0335 20.1453C19.0335 20.6452 18.6266 21.052 18.1268 21.052V21.252C18.7371 21.252 19.2335 20.7556 19.2335 20.1453H19.0335ZM18.1268 21.052H14.7352V21.252H18.1268V21.052ZM14.7352 22.8158H18.1268V22.6158H14.7352V22.8158ZM18.1268 22.8158C18.8377 22.8158 19.484 22.536 19.9628 22.0819L19.8251 21.9368C19.3818 22.3573 18.7841 22.6158 18.1268 22.6158V22.8158ZM19.8232 22.08L19.8257 22.0825L19.9671 21.9411L19.9647 21.9386L19.8232 22.08ZM19.9671 22.0825L26.1228 15.9268L25.9814 15.7854L19.8257 21.9411L19.9671 22.0825ZM26.1229 15.9268C26.4763 15.5733 27.0517 15.5733 27.4051 15.9268L27.5465 15.7854C27.115 15.3538 26.413 15.3538 25.9814 15.7854L26.1229 15.9268ZM27.4051 15.9268C27.7585 16.2802 27.7587 16.8556 27.4037 17.2106L27.5451 17.352C27.978 16.9191 27.9782 16.2171 27.5465 15.7854L27.4051 15.9268ZM27.4035 17.2108L21.102 23.5461L21.2438 23.6871L27.5453 17.3518L27.4035 17.2108ZM21.102 23.5461C20.2665 24.386 19.1075 24.8679 17.9228 24.8679V25.0679C19.1607 25.0679 20.3708 24.5648 21.2438 23.6871L21.102 23.5461ZM17.9228 24.8679H13.7546V25.0679H17.9228V24.8679ZM13.7546 24.8679C11.9911 24.8679 10.3187 25.4647 8.96884 26.563L9.09507 26.7182C10.4091 25.649 12.0369 25.0679 13.7546 25.0679V24.8679ZM10.2056 27.8337C11.2191 27.054 12.4541 26.6316 13.7547 26.6316V26.4316C12.4102 26.4316 11.1322 26.8685 10.0836 27.6751L10.2056 27.8337ZM13.7547 26.6316H17.9229V26.4316H13.7547V26.6316ZM17.9229 26.6316C19.5739 26.6316 21.1881 25.9605 22.3525 24.7899L22.2107 24.6488C21.0839 25.7817 19.5206 26.4316 17.9229 26.4316V26.6316ZM22.3525 24.7899L28.6525 18.4562L28.5107 18.3152L22.2107 24.6488L22.3525 24.7899ZM28.6523 18.4564C29.6936 17.4151 29.6936 15.721 28.6523 14.6798L28.5109 14.8212C29.4741 15.7844 29.4741 17.3518 28.5109 18.315L28.6523 18.4564ZM15.9903 17.4527C12.7401 17.4527 10.0958 14.8084 10.0958 11.5582H9.89578C9.89578 14.9188 12.6297 17.6527 15.9903 17.6527V17.4527ZM10.0958 11.5582C10.0958 8.30809 12.7402 5.6638 15.9903 5.6638V5.4638C12.6297 5.4638 9.89578 8.19763 9.89578 11.5582H10.0958ZM15.9903 5.6638C19.2403 5.6638 21.8847 8.30814 21.8847 11.5583H22.0847C22.0847 8.19769 19.3508 5.4638 15.9903 5.4638V5.6638ZM21.8847 11.5583C21.8847 14.8084 19.2404 17.4527 15.9903 17.4527V17.6527C19.3509 17.6527 22.0847 14.9189 22.0847 11.5583H21.8847ZM14.7352 21.052C14.2482 21.052 13.8533 21.4469 13.8533 21.9339H14.0533C14.0533 21.5573 14.3586 21.252 14.7352 21.252V21.052ZM8.96884 26.563C8.58254 26.8774 8.59178 27.4457 8.93398 27.7879L9.0754 27.6465C8.80691 27.378 8.81147 26.9489 9.09507 26.7182L8.96884 26.563ZM8.93398 27.7879C9.28035 28.1343 9.82998 28.1226 10.2056 27.8337L10.0836 27.6751C9.77466 27.9128 9.33972 27.9108 9.0754 27.6465L8.93398 27.7879ZM13.8533 21.9339C13.8533 22.4209 14.2482 22.8158 14.7352 22.8158V22.6158C14.3586 22.6158 14.0533 22.3105 14.0533 21.9339H13.8533ZM3.14877 22.0066C3.49316 22.351 4.05153 22.351 4.39592 22.0066L4.2545 21.8652C3.98821 22.1315 3.55648 22.1315 3.29019 21.8652L3.14877 22.0066ZM3.14877 20.7595C2.80438 21.1039 2.80438 21.6623 3.14877 22.0066L3.29019 21.8652C3.02391 21.5989 3.02391 21.1672 3.29019 20.9009L3.14877 20.7595Z" fill="#1F9ED3"/>
<path d="M17.3548 9.66102C17.5357 9.86959 17.8515 9.89196 18.0601 9.71098C18.2687 9.53001 18.2911 9.21422 18.1101 9.00565L17.3548 9.66102ZM14.6452 13.0056C14.4643 12.7971 14.1485 12.7747 13.9399 12.9557C13.7313 13.1367 13.7089 13.4524 13.8899 13.661L14.6452 13.0056ZM16.5 8C16.5 7.72386 16.2761 7.5 16 7.5C15.7239 7.5 15.5 7.72386 15.5 8H16.5ZM15.5 14.6667C15.5 14.9428 15.7238 15.1667 16 15.1667C16.2761 15.1667 16.5 14.9428 16.5 14.6667L15.5 14.6667ZM16 10.8333C15.5327 10.8333 15.1322 10.7061 14.8631 10.5268C14.5906 10.3451 14.5 10.149 14.5 10H13.5C13.5 10.5874 13.8571 11.058 14.3084 11.3588C14.7632 11.662 15.3628 11.8333 16 11.8333V10.8333ZM14.5 10C14.5 9.851 14.5906 9.65491 14.8631 9.47322C15.1322 9.29385 15.5327 9.16667 16 9.16667V8.16667C15.3628 8.16667 14.7632 8.33796 14.3084 8.64117C13.8571 8.94205 13.5 9.41262 13.5 10H14.5ZM16 9.16667C16.637 9.16667 17.1282 9.39986 17.3548 9.66102L18.1101 9.00565C17.6451 8.46974 16.8436 8.16667 16 8.16667V9.16667ZM16 11.8333C16.4673 11.8333 16.8678 11.9605 17.1369 12.1399C17.4094 12.3216 17.5 12.5177 17.5 12.6667H18.5C18.5 12.0793 18.1429 11.6087 17.6916 11.3078C17.2367 11.0046 16.6372 10.8333 16 10.8333V11.8333ZM15.5 8V8.66667H16.5V8H15.5ZM15.5 14L15.5 14.6667L16.5 14.6667L16.5 14L15.5 14ZM16 13.5C15.3631 13.5 14.8718 13.2668 14.6452 13.0056L13.8899 13.661C14.3549 14.1969 15.1564 14.5 16 14.5L16 13.5ZM17.5 12.6667C17.5 12.8157 17.4094 13.0118 17.1369 13.1935C16.8678 13.3728 16.4673 13.5 16 13.5V14.5C16.6372 14.5 17.2368 14.3287 17.6916 14.0255C18.1429 13.7246 18.5 13.254 18.5 12.6667H17.5ZM15.5 8.66667L15.5 14L16.5 14L16.5 8.66667L15.5 8.66667Z" fill="#1F9ED3"/>
</svg>
