<svg xmlns="http://www.w3.org/2000/svg" width="24.513" height="24.51" viewBox="0 0 24.513 24.51">
  <g id="Icon-02" transform="translate(-2.89 -3.9)">
    <path id="Path_1" data-name="Path 1" d="M26.625,14.912a2.228,2.228,0,0,0-3.357,0l-4.1,4.5a2.614,2.614,0,0,0-.731-1.072,7.834,7.834,0,0,0,3.536-6.671C21.977,7.442,18.845,4,15,4s-6.98,3.442-6.98,7.672a8.13,8.13,0,0,0,1.458,4.687,4.75,4.75,0,0,0-.573.054A4.936,4.936,0,0,0,6,18.007L3.2,21.084a.85.85,0,0,0,0,1.122.677.677,0,0,0,1.021,0l2.8-3.076a3.455,3.455,0,0,1,4.375-.687,6.363,6.363,0,0,0,3.281.924h2.291a1.026,1.026,0,0,1,0,2.044H13.837a.8.8,0,0,0,0,1.587h3.132a2.257,2.257,0,0,0,1.632-.717l0,0,5.685-6.248a.873.873,0,0,1,1.315,0,1.1,1.1,0,0,1,0,1.447l-5.82,6.431a4.078,4.078,0,0,1-3,1.372H12.932a6.5,6.5,0,0,0-4.362,1.7.784.784,0,0,0-.025,1.093.748.748,0,0,0,1.053.038,5.131,5.131,0,0,1,3.334-1.241h3.849a5.469,5.469,0,0,0,4.025-1.84L26.625,18.6A2.8,2.8,0,0,0,26.625,14.912ZM15,17.757A5.837,5.837,0,0,1,9.46,11.672,5.837,5.837,0,0,1,15,5.587a5.837,5.837,0,0,1,5.536,6.085A5.837,5.837,0,0,1,15,17.757Z" transform="translate(-0.008)" fill="#1f9ed3"/>
    <path id="Path_2" data-name="Path 2" d="M26.617,14.913l-.065.072h0Zm-3.357,0,.065.072h0Zm-4.1,4.5-.086.038.052.142.1-.108Zm-.731-1.071-.046-.088-.119.074.107.093ZM9.467,16.359l0,.1.181-.006L9.54,16.3Zm-.573.054.013.1h0Zm-2.9,1.594.065.072h0Zm1.021,1.122-.065-.072h0Zm4.375-.687-.044.089h0Zm7.2,3.837.065-.072-.064-.07-.065.068Zm0,0-.065.072.065.072.065-.072Zm5.685-6.248.065.072h0Zm1.315,0,.065-.072h0Zm0,1.446-.065-.072h0Zm-5.82,6.43.065.072h0ZM20.8,25.03l-.065-.072h0ZM26.617,18.6l-.065-.072h0ZM9.59,28.111l.056.08ZM4.216,22.205l.065.072ZM3.194,21.083l.065.072Zm23.488-6.242a2.315,2.315,0,0,0-3.488,0l.131.144a2.142,2.142,0,0,1,3.227,0Zm-3.488,0-4.1,4.5.131.144,4.1-4.5Zm-3.945,4.535a2.717,2.717,0,0,0-.759-1.113l-.115.159a2.514,2.514,0,0,1,.7,1.03Zm-.771-.945a7.936,7.936,0,0,0,3.583-6.758h-.185a7.729,7.729,0,0,1-3.489,6.582Zm3.583-6.758c0-4.286-3.173-7.773-7.073-7.773v.2c3.8,0,6.888,3.4,6.888,7.57ZM14.989,3.9c-3.9,0-7.073,3.487-7.073,7.773H8.1c0-4.174,3.09-7.57,6.888-7.57ZM7.916,11.673a8.236,8.236,0,0,0,1.478,4.749L9.54,16.3A8.02,8.02,0,0,1,8.1,11.673Zm1.548,4.585a4.844,4.844,0,0,0-.583.055l.026.2a4.657,4.657,0,0,1,.563-.053Zm-.583.055a5.026,5.026,0,0,0-2.953,1.622l.131.144a4.847,4.847,0,0,1,2.848-1.565ZM5.928,17.935l-2.8,3.076.131.144,2.8-3.076ZM4.281,22.277,7.08,19.2l-.131-.144-2.8,3.076ZM7.08,19.2a3.369,3.369,0,0,1,4.265-.67l.089-.178a3.542,3.542,0,0,0-4.485.7Zm4.265-.67a6.449,6.449,0,0,0,3.325.936v-.2a6.277,6.277,0,0,1-3.236-.911Zm3.325.936h2.291v-.2H14.671Zm2.291,0a.883.883,0,0,1,.837.92h.185a1.077,1.077,0,0,0-1.022-1.123Zm.837.92a.883.883,0,0,1-.837.92v.2a1.077,1.077,0,0,0,1.022-1.123Zm-.837.92H13.83v.2h3.132ZM13.83,23.1h3.132v-.2H13.83Zm3.132,0a2.345,2.345,0,0,0,1.7-.745l-.127-.147a2.169,2.169,0,0,1-1.568.689Zm1.567-.747,0,0,.131-.144,0,0Zm.133,0,5.685-6.248-.131-.144-5.685,6.248Zm5.685-6.248a.786.786,0,0,1,1.184,0l.131-.144a.959.959,0,0,0-1.445,0Zm1.184,0a.988.988,0,0,1,0,1.3l.131.144a1.205,1.205,0,0,0,0-1.59Zm0,1.3-5.82,6.43.131.143,5.82-6.43Zm-5.82,6.43a3.989,3.989,0,0,1-2.936,1.342v.2a4.166,4.166,0,0,0,3.067-1.4Zm-2.936,1.342H12.924v.2h3.849Zm-3.849,0A6.589,6.589,0,0,0,8.5,26.9l.117.158a6.414,6.414,0,0,1,4.3-1.675Zm-3.278,3.01a5.044,5.044,0,0,1,3.278-1.22v-.2a5.219,5.219,0,0,0-3.39,1.262Zm3.278-1.22h3.849v-.2H12.924Zm3.849,0A5.557,5.557,0,0,0,20.864,25.1l-.131-.143a5.38,5.38,0,0,1-3.96,1.809ZM20.864,25.1l5.818-6.428-.131-.143-5.818,6.428Zm5.818-6.428a2.907,2.907,0,0,0,0-3.833l-.131.144a2.689,2.689,0,0,1,0,3.546ZM14.989,17.655a5.739,5.739,0,0,1-5.444-5.983H9.36a5.933,5.933,0,0,0,5.629,6.186ZM9.545,11.673A5.739,5.739,0,0,1,14.989,5.69v-.2A5.933,5.933,0,0,0,9.36,11.673ZM14.989,5.69a5.739,5.739,0,0,1,5.444,5.983h.185a5.933,5.933,0,0,0-5.628-6.186Zm5.444,5.983a5.739,5.739,0,0,1-5.444,5.982v.2a5.933,5.933,0,0,0,5.628-6.185Zm-6.6,9.636a.858.858,0,0,0-.814.9H13.2a.663.663,0,0,1,.63-.692ZM8.5,26.9a.892.892,0,0,0-.032,1.243L8.6,28a.675.675,0,0,1,.018-.942Zm-.032,1.243a.834.834,0,0,0,1.174.046l-.113-.161A.662.662,0,0,1,8.6,28ZM13.015,22.2a.858.858,0,0,0,.814.9v-.2a.663.663,0,0,1-.63-.692Zm-9.886.074a.764.764,0,0,0,1.152,0l-.131-.144a.59.59,0,0,1-.891,0Zm0-1.266a.959.959,0,0,0,0,1.266l.131-.144a.741.741,0,0,1,0-.979Z" fill="#1f9ed3"/>
    <path id="Path_3" data-name="Path 3" d="M17.06,9.661a.438.438,0,0,0,.651.05.529.529,0,0,0,.046-.705Zm-2.5,3.345a.438.438,0,0,0-.651-.05.529.529,0,0,0-.046.705ZM16.271,8a.463.463,0,1,0-.924,0Zm-.924,6.667a.463.463,0,1,0,.924,0Zm.462-3.833a1.814,1.814,0,0,1-1.05-.306A.681.681,0,0,1,14.424,10H13.5a1.686,1.686,0,0,0,.747,1.359,2.681,2.681,0,0,0,1.562.474ZM14.424,10a.681.681,0,0,1,.335-.527,1.814,1.814,0,0,1,1.05-.307v-1a2.681,2.681,0,0,0-1.562.474A1.686,1.686,0,0,0,13.5,10Zm1.385-.833a1.621,1.621,0,0,1,1.251.494l.7-.655a2.5,2.5,0,0,0-1.949-.839Zm0,2.667a1.814,1.814,0,0,1,1.05.307.681.681,0,0,1,.335.527h.924a1.686,1.686,0,0,0-.747-1.359,2.682,2.682,0,0,0-1.562-.475ZM15.347,8v.667h.924V8Zm0,6v.667h.924V14Zm.462-.5a1.621,1.621,0,0,1-1.251-.494l-.7.655a2.5,2.5,0,0,0,1.949.839Zm1.385-.833a.681.681,0,0,1-.335.527,1.814,1.814,0,0,1-1.05.307v1a2.681,2.681,0,0,0,1.562-.474,1.686,1.686,0,0,0,.747-1.359Zm-1.847-4V14h.924V8.667Z" transform="translate(-0.811)" fill="#1f9ed3"/>
  </g>
</svg>
