<svg xmlns="http://www.w3.org/2000/svg" fill="none" width="400" height="400" viewBox="0 0 400 400"><path d="m102.967 245.164-53.33 25.262-10.677-43.989 48.904-36.014 15.103 54.741Z" fill="#EFEDD8"/><path d="M89.79 297.233a5.766 5.766 0 0 1 3.534-5.317l41.69-17.49c3.799-1.594 7.995 1.196 7.995 5.316V357.5a5.765 5.765 0 0 1-5.765 5.765h-41.69a5.765 5.765 0 0 1-5.764-5.765v-60.267Z" fill="#0B719B"/><path d="M97.214 302.617a5.765 5.765 0 0 1 3.411-5.263l34.498-15.428c3.813-1.705 8.118 1.086 8.118 5.263v76.098H97.214v-60.67Z" fill="#40B1E0"/><path d="M361.641 362.545c37.973-62.231 15.822-125.807 0-149.815l-48.186 15.845c14.959 21.32 12.466 98.197 9.35 133.97h38.836ZM16.433 232.897c3.452-17.286 43.15-44.176 62.569-55.46l9.35 19.447c-3.117 22.808-15.391 69.145-39.556 72.026-30.206 3.602-36.678-14.405-32.363-36.013Z" fill="#EFEDD8"/><path d="M273.9 136.381c-14.383 2.305-29.965-.96-35.959-2.881-13.185.961-40.418 4.61-43.87 11.525-3.452 6.914-13.425 5.762-17.979 4.321-28.049-16.566-51.062-4.321-61.131 4.322-8.055 6.914-29.247 18.246-38.836 23.048-11.507 32.268 11.507 65.785 24.452 78.509 15.535-2.305 46.747-25.449 60.412-36.733 1.198 7.923 5.897 29.531 15.103 52.579 9.205 23.049 8.15 69.146 6.472 89.313h160.378c2.301-57.621-17.74-100.357-28.048-114.522 40.85 4.033 49.624-23.289 48.904-37.454-9.589-14.165-31.931-46.673-44.589-63.383-15.822-20.888-27.329-11.525-45.309-8.644Z" fill="#198AB9"/><path d="M190.475 172.395c-6.904-13.253 0-18.487 4.315-19.448 6.157-18.881 27.237-23.139 46.55-22.164 14.991.757 25.176 15.267 19.301 29.08-6.779 15.939-17.613 27.289-25.075 32.974-1.381 1.052-3.329.504-4.087-1.058l-10.798-22.265-16.5 20.655c-1.49 1.865-4.725 1.292-5.645-.91-1.567-3.751-4.13-9.32-8.061-16.864Z" fill="#11729A"/><path d="m183.283 130.619 47.465-23.769 17.262 36.014-4.948 10.618c-8.034 17.242-29.418 23.437-45.395 13.151l-14.384-36.014Z" fill="#FBFAF1"/><path d="m192.475 153.633-4.421-11.07-.223-1.118 44.589-30.251 1.305 1.867 3.337 6.962c-11.467 46.408-33.019 39.744-44.587 33.61Z" fill="#EFEDD8" fill-rule="evenodd" clip-rule="evenodd"/><path d="M150.92 35.544c27.041-29.963 57.774-12.484 69.761 0 20.137 3.458 22.295 22.569 20.856 31.692l-20.856 33.132-93.494-48.258c9.781 1.153 18.699-10.564 23.733-16.566Z" fill="#09648A"/><path d="M199.825 149.346c-36.823 4.61-58.973-45.137-65.446-70.586 6.473-25.21 68.322-19.447 87.021-10.084 14.959 7.491 16.781 30.011 15.822 40.335-4.603 30.54-26.849 39.615-37.397 40.335Z" fill="#FBFAF1"/><path d="M179.326 123.303 177 100.139l1.327-.139 2.326 23.164c.189 1.881 1.381 3.39 2.973 3.465 1.79.085 3.269-.403 3.827-1.886.163-.435.52-.716.873-.848s.803-.153 1.202.07c.991.553 2.599.872 4.389-.591a.657.657 0 0 1 .937.107.691.691 0 0 1-.104.957c-2.281 1.864-4.484 1.49-5.861.722.006.003.001-.001-.02-.002a.21.21 0 0 0-.084.016.236.236 0 0 0-.074.043.092.092 0 0 0-.014.016c-.882 2.341-3.183 2.849-5.133 2.757-2.493-.118-4.01-2.414-4.238-4.687Z" fill="#044C6A" fill-rule="evenodd" clip-rule="evenodd"/><path d="M242.256 67.236c-11.17-6.393-15.822 2.4-16.541 7.202 4.603 6.915 9.11 24.97 10.788 33.133 12.226-6.483 15.822-34.573 5.753-40.335ZM23.449 231.308c7.529-17.869 38.369-34.826 52.847-41.071 10.377-6.725 37.356-23.346 62.259-36.027 24.904-12.682 40.299-5.284 44.884 0 5.792 1.441 15.203 5.043 10.136 13.69-5.068 8.646-19.547 0-28.234 0-6.95 0-5.309 6.725-3.62 10.088 29.486-1.108 28.376 23.849 23.751 37.952-.353 1.075-1.194 1.905-2.254 2.301a5.189 5.189 0 0 1-6.313-2.277l-.152-.266c-.362-.631-.567-1.348-.466-2.068.382-2.74 1.817-6.444-.087-14.026-2.172-8.647-15.927-9.367-24.614-5.044-8.687 4.323-5.067 19.455 4.344 28.102 7.529 6.917 3.137 11.048 0 12.249-13.755 3.603-23.166-12.97-31.13-20.896-6.37-6.341-14.237-2.642-17.374 0-8.446 11.529-30.26 38.045-49.952 51.879-24.614 17.293-43.436-12.249-34.025-34.586Z" fill="#FBFAF1"/><path d="M183.285 153.668c0 4.909-4.565 8.394-9.313 7.993-12.371-1.045-20.525 2.574-23.321 4.814l-.901-1.125c3.136-2.513 11.677-6.195 24.343-5.125 4.054.342 7.75-2.633 7.75-6.557h1.442Z" fill="#044C6A" fill-rule="evenodd" clip-rule="evenodd"/><path d="M277.165 176.117c-2.119-20.121 5.781-29.883 11.543-32.47l.591 1.315c-5.012 2.25-12.779 11.277-10.701 31.004 1.422 13.498 8.058 25.819 15.333 37.473 11.085 17.757 18.243 27.951 20.813 31.261a.72.72 0 0 1-1.138.884c-2.616-3.369-9.805-13.613-20.897-31.382-7.288-11.674-14.085-24.235-15.544-38.085Z" fill="#0D6E97" fill-rule="evenodd" clip-rule="evenodd"/><path d="M186.16 228.575c0 8.354-6.762 15.126-15.103 15.126-8.341 0-15.103-6.772-15.103-15.126 0-8.353 6.762-15.125 15.103-15.125 8.341 0 15.103 6.772 15.103 15.125Z" fill="#DAB75D"/><path d="M127.187 255.228a5.765 5.765 0 0 1 5.765-5.765h67.58a5.765 5.765 0 0 1 5.765 5.765V357.5a5.765 5.765 0 0 1-5.765 5.765h-67.58a5.765 5.765 0 0 1-5.765-5.765V255.228Z" fill="#F1D386"/><path d="m76.41 146.692-28.982-13.761 1.237-2.605 28.982 13.761a1.442 1.442 0 0 1-1.237 2.605Zm46-48.46a1.44 1.44 0 0 0-1.689 1.14l-6.136 31.53 2.827.55 6.136-31.529a1.442 1.442 0 0 0-1.138-1.691Zm-29.533 35.981L81.418 104.21l2.691-1.028 11.459 30.002a1.441 1.441 0 1 1-2.691 1.029Z" fill="#F1D386" fill-rule="evenodd" clip-rule="evenodd"/><path d="M301.074 230.865c2.179 5.043 4.666 10.961 8.067 14.997-50.343 42.496-20.377 89.793-7.911 117.403h65.445c8.391-4.561 22.87-21.896 25.172-60.502 2.301-38.606-21.816-54.98-36.679-59.782l4.126-25.385c.564-3.47-.619-7.211-3.814-8.679-8.087-3.715-14.695 1.129-14.695 5.973-6.473-9.363-20.377-4.801-21.576 2.882-5.774-5.175-11.067-5.285-15.306-3.493-5.498 2.323-5.197 11.106-2.829 16.586Z" fill="#F1D386"/><path d="M243.054 258.436c-20.19-39.285-24.774-74.647-24.532-87.495l1.441.027c-.237 12.601 4.288 47.728 24.373 86.809 20.214 39.333 22.858 84.802 21.653 102.656a.72.72 0 1 1-1.438-.097c1.193-17.68-1.437-62.868-21.497-101.9Z" fill="#0D6E97" fill-rule="evenodd" clip-rule="evenodd"/><path d="M203.873 326.959h9.54v35.034h-9.54v-35.034Z" fill="#52ADD2"/><path d="m226.134 324.781 3.782 4.298-20.119 17.226-3.782-4.298 20.119-17.226Z" fill="#52ADD2"/><path d="M137.255 262.429c0-.796.646-1.442 1.442-1.442h11.501c.796 0 1.441.646 1.441 1.442v99.395a1.44 1.44 0 0 1-1.441 1.441h-11.501a1.442 1.442 0 0 1-1.442-1.441v-99.395Zm23.015 0c0-.796.645-1.442 1.441-1.442h11.501c.796 0 1.441.646 1.441 1.442v99.395a1.44 1.44 0 0 1-1.441 1.441h-11.501a1.44 1.44 0 0 1-1.441-1.441v-99.395Zm23.013 0c0-.796.646-1.442 1.442-1.442h11.501c.796 0 1.441.646 1.441 1.442v99.395a1.44 1.44 0 0 1-1.441 1.441h-11.501a1.442 1.442 0 0 1-1.442-1.441v-99.395Z" fill="#BEE9FA"/><path d="M163.865 167.353c-16.109-11.524-35.959-.96-43.87 5.762l8.63 13.685c8.342-12.809 24.521-10.053 32.305-6.819a2.19 2.19 0 0 0 1.577.051c4.487-1.605 5.991-7.196 2.916-10.835l-1.558-1.844Z" fill="#FBFAF1"/><path d="M139.035 164.09c-7.84 2.008-14.685 6.27-18.573 9.574l-.933-1.098c4.022-3.418 11.058-7.8 19.148-9.873 8.103-2.076 17.33-1.848 25.608 4.074l.073.052 1.616 1.913c3.399 4.024 1.736 10.204-3.224 11.978a2.902 2.902 0 0 1-2.096-.064c-3.815-1.585-9.689-3.05-15.607-2.554-5.896.494-11.796 2.926-15.818 9.101a.72.72 0 1 1-1.207-.786c4.32-6.634 10.679-9.229 16.905-9.751 6.203-.52 12.31 1.01 16.28 2.659.347.145.724.158 1.058.038 4.013-1.435 5.358-6.436 2.608-9.691l-1.5-1.775c-7.813-5.552-16.536-5.797-24.338-3.797Z" fill="#044C6A" fill-rule="evenodd" clip-rule="evenodd"/><path d="M224.544 314.219c0 10.554-8.543 19.11-19.081 19.11s-19.081-8.556-19.081-19.11 8.543-19.11 19.081-19.11 19.081 8.556 19.081 19.11Z" fill="#08668D"/><path d="M238.855 320.589c0 7.915-6.764 14.332-15.106 14.332-8.343 0-15.106-6.417-15.106-14.332 0-7.915 6.763-14.332 15.106-14.332 8.342 0 15.106 6.417 15.106 14.332Z" fill="#11729A"/><path d="M166.255 114.795a3.599 3.599 0 0 1-3.595 3.602 3.6 3.6 0 0 1-3.596-3.602 3.598 3.598 0 0 1 3.596-3.601 3.598 3.598 0 0 1 3.595 3.601Zm37.398-12.964a3.599 3.599 0 0 1-3.596 3.601 3.599 3.599 0 0 1-3.596-3.601c0-1.99 1.61-3.602 3.596-3.602a3.599 3.599 0 0 1 3.596 3.602Z" fill="#198AB9"/><path d="M207.768 133.294c-3.353 1.79-6.888 2.389-9.149 2.389v-1.441c2.053 0 5.35-.553 8.47-2.22 3.105-1.658 6.012-4.404 7.383-8.798l1.376.429c-1.506 4.825-4.712 7.842-8.08 9.641Zm27.815-59.337c-1.767.404-3.211 1.82-3.993 3.05l-1.216-.772c.896-1.41 2.616-3.163 4.888-3.683 2.359-.54 5.075.297 7.785 3.613l-1.116.912c-2.469-3.021-4.667-3.505-6.348-3.12Z" fill="#044C6A" fill-rule="evenodd" clip-rule="evenodd"/><path d="M237.532 78.85c-.376-2.58-1.002-4.117-1.397-4.71l1.2-.8c.564.848 1.233 2.625 1.624 5.302.393 2.7.512 6.366-.07 11.033l-1.431-.178c.569-4.553.448-8.089.074-10.647Z" fill="#044C6A" fill-rule="evenodd" clip-rule="evenodd"/><path d="M107.281 364.008v-69.866h1.441v69.866h-1.441Zm12.226-.721V289.82h1.441v73.467h-1.441Z" fill="#044C6A" fill-rule="evenodd" clip-rule="evenodd" opacity=".5"/><path d="M97.214 307.826h30.205v1.442H97.214v-1.442Zm0 15.846h30.205v1.441H97.214v-1.441Zm0 14.406h30.205v1.441H97.214v-1.441Zm0 14.405h30.205v1.441H97.214v-1.441Z" fill="#044C6A" fill-rule="evenodd" clip-rule="evenodd" opacity=".5"/><path d="M328.999 251.196c-8.619-.091-16.226-2.092-20.623-3.927l.555-1.33c4.233 1.767 11.657 3.727 20.083 3.816 8.421.089 17.791-1.691 25.977-7.345l.819 1.186c-8.499 5.87-18.188 7.691-26.811 7.6Z" fill="#1577A0" fill-rule="evenodd" clip-rule="evenodd"/><path d="M161.676 221.498h4.467c.934 0 1.737.14 2.407.422.67.281 1.185.698 1.545 1.25.36.552.541 1.23.541 2.035 0 .636-.113 1.188-.338 1.655a3.212 3.212 0 0 1-.954 1.174 4.69 4.69 0 0 1-1.436.743l-.726.372h-3.944l-.017-1.833h2.947c.479 0 .876-.084 1.191-.253.315-.169.552-.403.709-.701.164-.298.245-.639.245-1.022 0-.411-.079-.766-.236-1.064a1.603 1.603 0 0 0-.718-.701c-.321-.163-.726-.245-1.216-.245h-2.145v10.464h-2.322v-12.296Zm6.941 12.296-2.846-5.507 2.458-.008 2.88 5.396v.119h-2.492Zm6.114-7.381v10.894h-2.237v-12.651h2.069l.168 1.757Zm5.87 2.719v.177a6.89 6.89 0 0 1-.237 1.85 4.64 4.64 0 0 1-.675 1.478c-.299.416-.67.743-1.115.979-.439.231-.946.346-1.52.346-.563 0-1.053-.107-1.47-.32a3.04 3.04 0 0 1-1.055-.929 5.147 5.147 0 0 1-.693-1.394 10.417 10.417 0 0 1-.38-1.748v-.566c.085-.67.211-1.278.38-1.824a5.041 5.041 0 0 1 .693-1.427 3.014 3.014 0 0 1 1.047-.937c.417-.22.904-.33 1.461-.33.58 0 1.089.11 1.528.33.445.219.82.534 1.124.945.304.411.532.901.684 1.47.152.568.228 1.202.228 1.9Zm-2.238.177v-.177a5.4 5.4 0 0 0-.11-1.123 3.007 3.007 0 0 0-.338-.912 1.686 1.686 0 0 0-.591-.617c-.242-.146-.535-.219-.878-.219-.344 0-.639.056-.887.169-.248.112-.45.273-.608.481a2.408 2.408 0 0 0-.372.743 4.59 4.59 0 0 0-.168.937v1.402c.05.417.149.791.295 1.123.146.333.36.597.642.794.287.197.659.296 1.115.296.343 0 .636-.076.878-.228a1.75 1.75 0 0 0 .591-.625c.152-.27.262-.58.329-.929.068-.349.102-.721.102-1.115Z" fill="#fff"/><path d="M317.398 277.107h10.212c2.136 0 3.97.322 5.501.965 1.531.644 2.709 1.596 3.532 2.857.824 1.261 1.236 2.812 1.236 4.652 0 1.454-.258 2.715-.772 3.784a7.369 7.369 0 0 1-2.182 2.683c-.926.72-2.02 1.286-3.281 1.698l-1.66.85h-9.015l-.038-4.189h6.736c1.094 0 2.002-.193 2.722-.579.721-.386 1.261-.92 1.622-1.602.373-.682.559-1.461.559-2.336 0-.939-.18-1.75-.54-2.432-.36-.695-.907-1.229-1.641-1.602-.733-.373-1.66-.56-2.779-.56h-4.903v23.916h-5.309v-28.105Zm15.867 28.105-6.505-12.585 5.617-.02 6.583 12.335v.27h-5.695Zm13.975-16.871v24.901h-5.115v-28.915h4.729l.386 4.014Zm13.416 6.216v.405c0 1.519-.18 2.928-.541 4.228-.347 1.286-.862 2.412-1.544 3.378a7.337 7.337 0 0 1-2.548 2.239c-1.004.527-2.162.791-3.474.791-1.287 0-2.407-.244-3.359-.733a6.917 6.917 0 0 1-2.413-2.124c-.656-.913-1.184-1.975-1.583-3.185a23.717 23.717 0 0 1-.868-3.995v-1.294c.193-1.531.482-2.921.868-4.169.399-1.261.927-2.348 1.583-3.262.656-.927 1.454-1.641 2.394-2.143.952-.502 2.065-.753 3.339-.753 1.326 0 2.49.251 3.494.753a7.04 7.04 0 0 1 2.567 2.162c.695.94 1.216 2.059 1.564 3.359.347 1.3.521 2.747.521 4.343Zm-5.115.405v-.405c0-.927-.084-1.782-.251-2.567-.168-.798-.425-1.493-.772-2.085a3.841 3.841 0 0 0-1.352-1.409c-.553-.335-1.222-.502-2.007-.502-.785 0-1.461.129-2.027.386a3.56 3.56 0 0 0-1.39 1.1 5.544 5.544 0 0 0-.849 1.699 10.4 10.4 0 0 0-.386 2.143v3.204c.116.952.341 1.808.676 2.567a4.257 4.257 0 0 0 1.467 1.815c.656.45 1.505.675 2.548.675.784 0 1.454-.174 2.007-.521a4.008 4.008 0 0 0 1.351-1.428c.348-.618.599-1.326.753-2.124.154-.798.232-1.647.232-2.548Z" fill="#198AB9"/><path d="M248.242 343.12h27.329v7.202h-27.329v-7.202Z" fill="#F1D386"/><path d="M243.927 350.323h27.329v7.202h-27.329v-7.202Z" fill="#DAB75D"/><path d="M248.242 357.525h27.329v7.203h-27.329v-7.203Z" fill="#EFEDD8"/><path d="M268.298 318.938h62.841v45.772h-62.841v-45.772Z" fill="#86C5DF"/><path d="M279.908 337.264h19.424v27.463h-19.424v-27.463Z" fill="#198AB9"/><path d="M297.794 282.817a2.289 2.289 0 0 1 3.252 0l37.053 37.369c1.433 1.445.41 3.902-1.626 3.902h-74.106c-2.035 0-3.059-2.457-1.626-3.902l37.053-37.369Z" fill="#055F85"/><path d="M242.489 206.269a4.319 4.319 0 0 1-4.316 4.322 4.319 4.319 0 0 1-4.315-4.322 4.318 4.318 0 0 1 4.315-4.321 4.318 4.318 0 0 1 4.316 4.321Zm18.698 50.419a4.318 4.318 0 0 1-4.315 4.322 4.319 4.319 0 0 1-4.315-4.322 4.319 4.319 0 0 1 4.315-4.322 4.318 4.318 0 0 1 4.315 4.322Z" fill="#40B1E0"/><path d="M148.995 85.985c-8.055 2.88-14.384-1.2-16.541-3.602l-10.069-18.726 62.569-5.763h24.452l15.103 24.49c-4.027 8.066-11.746-3.362-15.103-10.084-2.876 10.371-16.061 9.123-22.294 7.202-3.452 7.491-15.343 5.042-20.857 2.881-4.602 5.763-13.424 4.802-17.26 3.602Z" fill="#EFEDD8"/><path d="M110.646 65.075c1.151-10.948 17.74-14.645 25.89-15.126h24.453l41.712-4.321 6.473 12.244c-1.151 20.168-16.781 18.967-24.452 15.846-8.63 9.22-17.021 6.243-20.137 3.602-6.905 6.338-14.863 4.081-17.98 2.16-1.726 2.305-5.993 3.362-7.911 3.602-17.98 2.88-29.486-4.322-28.048-18.007Z" fill="#09648A"/><path d="M181.443 67.623c.206-.445.571-.78 1.031-1.01 1.106-.553 2.1-.79 2.884-.425.839.389 1.075 1.275 1.124 2.012.052.774-.077 1.683-.248 2.541-.088.437-.19.877-.292 1.297a16.645 16.645 0 0 0 5.269 2.127c3.044.653 6.449.461 9.557-1.366 3.105-1.825 6.011-5.339 7.951-11.52l1.375.432c-2.016 6.425-5.106 10.28-8.596 12.331-3.488 2.05-7.279 2.243-10.59 1.532a18.162 18.162 0 0 1-5.39-2.106l-.007.01c-5.199 6.321-11.045 7.511-15.641 6.457a13.208 13.208 0 0 1-4.601-2.027c-4.915 4.874-11.316 5.035-16.162 3.261a16.217 16.217 0 0 1-3.289-1.638c-4.644 4.217-10.435 5.066-15.921 4.387-5.805-.719-11.349-3.153-15.056-5.227l.704-1.258c3.618 2.025 8.978 4.368 14.529 5.055 5.131.635 10.352-.148 14.555-3.827a11.06 11.06 0 0 1-1.396-1.358c-1.342-1.572-2.056-3.466-1.386-5.256.458-1.222 1.124-2.034 2.034-2.304.895-.266 1.773.07 2.474.528 1.476.963 2.121 2.524 2.109 4.097-.01 1.458-.579 2.962-1.597 4.123.818.509 1.739.96 2.735 1.325 4.426 1.62 10.129 1.455 14.533-2.815-1.303-1.193-2.196-2.635-2.196-3.981 0-1.377.74-2.325 1.723-2.768a3.419 3.419 0 0 1 2.988.107c.944.517 1.584 1.524 1.432 2.889-.116 1.045-.689 2.246-1.824 3.592a11.834 11.834 0 0 0 3.934 1.69c4.006.92 9.26-.031 14.103-5.844l.004-.019c-.481-.35-.914-.713-1.292-1.077-.848-.818-1.491-1.719-1.684-2.595-.1-.453-.086-.93.12-1.372Zm3.231 3.516c.052-.226.101-.453.146-.68.166-.83.262-1.586.224-2.163-.041-.614-.21-.763-.292-.801-.137-.064-.581-.12-1.633.407-.232.116-.327.237-.369.328-.044.094-.068.235-.02.454.104.468.509 1.127 1.277 1.869.203.195.426.391.667.586Zm-19.552 4.812c1.047-1.232 1.453-2.188 1.528-2.863.085-.763-.242-1.219-.693-1.465a1.978 1.978 0 0 0-1.702-.058c-.491.222-.875.671-.875 1.455 0 .758.556 1.85 1.742 2.931Zm-19.443 1.705c.859-.92 1.336-2.145 1.344-3.299.009-1.17-.459-2.229-1.456-2.88-.557-.363-.977-.441-1.276-.352-.284.084-.708.396-1.094 1.427-.409 1.091-.044 2.438 1.132 3.815.379.444.833.878 1.35 1.29Z" fill="#044C6A" fill-rule="evenodd" clip-rule="evenodd"/><path d="M225.715 83.082c-4.027 8.067-14.623-13.445-19.418-25.21 10.788-2.16 30.925-4.754 25.172 2.161-7.192 8.643-.72 12.965-5.754 23.049Z" fill="#09648A"/><path d="m323.78 243.192-4.315-15.846 1.391-.378 4.315 15.845-1.391.379Zm14.336-.72 4.315-15.846-1.39-.379-4.315 15.846 1.39.379ZM51.602 202.348c10.366-6.415 20.73-11.726 27.118-14.658l.665 1.448c-6.333 2.908-16.64 8.187-26.944 14.565-10.32 6.387-20.57 13.833-26.85 21.064l-1.202-1.044c6.442-7.42 16.862-14.969 27.213-21.375Z" fill="#1577A0" fill-rule="evenodd" clip-rule="evenodd"/><path d="M382.416 365.876H51.922v-1.481h330.494v1.481Z" fill="#0F678C" fill-rule="evenodd" clip-rule="evenodd"/><path d="M199.528 374.529H8v-1.48h191.528v1.48Zm155.527 7.211h-237.61v-1.48h237.61v1.48Z" fill="#1577A0" fill-rule="evenodd" clip-rule="evenodd"/></svg>