<svg xmlns="http://www.w3.org/2000/svg" fill="none" viewBox="69.2 50.65 594.05 589.86">
<g opacity="0.5">
<path d="M260.005 244.759L230.089 261.575V246.432V230.164L260.005 213.348V244.759ZM258.965 211.638L229.089 228.432L199.213 211.638L229.089 194.845L258.965 211.638ZM198.172 244.759V213.348L228.089 230.164V246.432V261.575L198.172 244.759Z" stroke="#1F9ED3" stroke-width="2"/>
<path d="M164.868 193.571L228.657 156.298L293.31 193.575V266.096L228.657 302.707L164.868 266.1V193.571Z" stroke="#1F9ED3" stroke-width="2"/>
<path d="M135.15 176.136L229.089 123.242L323.028 176.136V280.551L229.089 333.007L135.15 280.551L135.15 176.136Z" stroke="#1F9ED3" stroke-width="2"/>
<path d="M165.256 193.622L136.115 176.881" stroke="#1F9ED3" stroke-width="2"/>
<path d="M292.79 193.698L322.746 176.489" stroke="#1F9ED3" stroke-width="2"/>
<path d="M229.089 301.844L229.089 331.905" stroke="#1F9ED3" stroke-width="2"/>
<path d="M229.089 368.577L229.089 405.756" stroke="#1F9ED3" stroke-width="2"/>
<path d="M351.208 160.138L383.124 141.802" stroke="#1F9ED3" stroke-width="2"/>
<path d="M106.977 160.141L75.0603 141.805" stroke="#1F9ED3" stroke-width="2"/>
<path d="M106.311 159.856L229.092 90.1964L351.874 159.856V299.145L229.092 368.805L106.311 299.145V159.856Z" stroke="#1F9ED3" stroke-width="2"/>
<path d="M75.065 141.374L229.092 51.6473L383.119 141.374V318.428L229.092 407.355L75.0649 318.428L75.065 141.374Z" stroke="#1F9ED3" stroke-width="2"/>
</g>
<path d="M399.824 636.951C351.133 624.229 323.142 575.507 276.841 558.642C216.668 536.807 178.272 620.763 121.317 598.916C14.1963 526.331 94.9556 352.964 161.089 275.083C177.492 255.916 194.49 242.792 219.989 239.974C298.534 231.794 351.831 300.492 423.4 316.451C455.468 323.481 483.177 313.315 506.649 289.637C532.807 263.292 556.197 226.944 595.557 222.91C658.37 216.557 674.768 291.629 655.847 341.121C642.155 402.956 583.522 424.072 536.135 453.122C461.164 496.022 515.642 667.18 399.824 636.951Z" fill="url(#paint0_linear_127_2404)"/>
<defs>
<linearGradient id="paint0_linear_127_2404" x1="340.125" y1="340.5" x2="355.44" y2="653.463" gradientUnits="userSpaceOnUse">
<stop stop-color="#EAF6FB"/>
<stop offset="1" stop-color="#EAF6FB" stop-opacity="0"/>
</linearGradient>
</defs>
</svg>