<svg width="666" height="559" viewBox="0 0 666 559" fill="none" xmlns="http://www.w3.org/2000/svg">
<path fill-rule="evenodd" clip-rule="evenodd" d="M-130.5 -186.333L-288 141.611L-192.343 208.003L-91.1001 -2.80442L513.711 416.972L412.468 627.779L508.125 694.171L665.625 366.227L-130.5 -186.333ZM3.13077 254.143C7.31973 245.343 12.9247 237.64 19.5959 231.509C26.2686 225.379 33.8683 220.947 41.9271 218.493C49.8649 215.547 58.1757 214.612 66.3428 215.745C74.5099 216.878 82.3562 220.056 89.3947 225.079C96.5846 229.927 102.848 236.539 107.802 244.51C112.754 252.48 116.293 261.643 118.2 271.431C120.325 281.101 120.833 291.235 119.696 301.242C118.561 311.251 115.803 320.928 111.585 329.71C107.368 338.493 101.774 346.204 95.1322 352.389C88.4914 358.575 80.9369 363.113 72.9077 365.738C64.9032 368.647 56.5335 369.542 48.3158 368.371C40.0966 367.199 32.2012 363.985 25.1135 358.925C17.9754 354.109 11.7636 347.527 6.8638 339.591C1.96401 331.655 -1.51743 322.535 -3.36524 312.8C-5.62862 303.097 -6.22094 292.885 -5.10274 282.793C-3.98543 272.703 -1.1835 262.95 3.13077 254.143ZM197.784 355.182C191.111 361.312 185.506 369.015 181.317 377.815L181.285 377.792C176.97 386.6 174.168 396.352 173.051 406.443C171.933 416.535 172.525 426.747 174.789 436.45C176.636 446.185 180.118 455.305 185.018 463.241C189.917 471.177 196.129 477.759 203.269 482.576C210.355 487.635 218.25 490.849 226.47 492.021C234.689 493.192 243.057 492.297 251.062 489.388C259.091 486.763 266.645 482.225 273.288 476.04C279.928 469.853 285.522 462.142 289.739 453.36C293.957 444.578 296.715 434.901 297.852 424.892C298.986 414.884 298.478 404.75 296.354 395.081C294.449 385.301 290.914 376.146 285.966 368.179C281.018 360.212 274.762 353.6 267.582 348.752C260.542 343.728 252.696 340.55 244.529 339.417C236.362 338.284 228.051 339.219 220.113 342.165C212.056 344.62 204.455 349.051 197.784 355.182Z" fill="url(#paint0_linear_169_6655)" fill-opacity="0.1"/>
<defs>
<linearGradient id="paint0_linear_169_6655" x1="507.674" y1="250.812" x2="364.852" y2="373.01" gradientUnits="userSpaceOnUse">
<stop stop-color="#EAF6FB" stop-opacity="0.6"/>
<stop offset="1" stop-color="#EAF6FB" stop-opacity="0"/>
</linearGradient>
</defs>
</svg>
