<svg width="433" height="559" viewBox="0 0 433 559" fill="none" xmlns="http://www.w3.org/2000/svg">
<path fill-rule="evenodd" clip-rule="evenodd" d="M467.502 565.389L658.413 372.813L602.241 292.337L479.521 416.128L124.362 -92.6964L247.083 -216.487L190.911 -296.963L-8.28185e-05 -104.386L467.502 565.389ZM467.302 194.448C462.207 199.628 456.306 203.531 449.966 205.919C443.626 208.306 436.978 209.129 430.435 208.332C423.87 207.939 417.481 205.931 411.664 202.432C405.847 198.933 400.729 194.018 396.627 187.994C392.373 182.051 389.205 175.098 387.316 167.56C385.429 160.024 384.86 152.061 385.645 144.164C386.243 136.284 388.146 128.584 391.243 121.514C394.34 114.442 398.569 108.145 403.681 102.988C408.794 97.8305 414.688 93.917 421.018 91.4794C427.348 89.0404 433.986 88.124 440.546 88.7843C447.151 89.2255 453.575 91.283 459.421 94.8265C465.268 98.3712 470.414 103.329 474.545 109.397C478.767 115.299 481.904 122.213 483.761 129.707C485.617 137.201 486.152 145.114 485.335 152.952C484.833 160.902 482.975 168.687 479.872 175.826C476.77 182.964 472.492 189.304 467.302 194.448ZM345.33 56.011C351.671 53.6242 357.572 49.7207 362.667 44.5411L362.686 44.5683C367.876 39.4238 372.154 33.0846 375.256 25.9465C378.359 18.8074 380.217 11.0226 380.719 3.07248C381.536 -4.76601 381.001 -12.6788 379.145 -20.1729C377.288 -27.6669 374.151 -34.5805 369.928 -40.4843C365.798 -46.5505 360.652 -51.5086 354.805 -55.0534C348.958 -58.5981 342.535 -60.6543 335.93 -61.0955C329.37 -61.7558 322.732 -60.8394 316.401 -58.4017C310.072 -55.9628 304.178 -52.0494 299.065 -46.8922C293.953 -41.7351 289.724 -35.4378 286.626 -28.3668C283.53 -21.2956 281.626 -13.5961 281.029 -5.7161C280.244 2.17403 280.812 10.1304 282.697 17.6629C284.582 25.1955 287.745 32.1463 291.991 38.0858C296.094 44.1112 301.212 49.0263 307.029 52.5254C312.846 56.0244 319.235 58.0324 325.799 58.4247C332.342 59.2205 338.991 58.3991 345.33 56.011Z" fill="url(#paint0_linear_169_6662)" fill-opacity="0.1"/>
<defs>
<linearGradient id="paint0_linear_169_6662" x1="369.583" y1="251.626" x2="371.337" y2="82.6972" gradientUnits="userSpaceOnUse">
<stop stop-color="#EAF6FB" stop-opacity="0.6"/>
<stop offset="1" stop-color="#EAF6FB" stop-opacity="0"/>
</linearGradient>
</defs>
</svg>
