<svg width="48" height="48" viewBox="0 0 48 48" fill="none" xmlns="http://www.w3.org/2000/svg">
<g>
<path d="M41 24C42.6569 24 44.023 25.3506 43.7754 26.9888C43.3381 29.8826 42.2689 32.6578 40.6294 35.1114C38.4318 38.4004 35.3082 40.9638 31.6537 42.4776C27.9992 43.9913 23.9778 44.3874 20.0982 43.6157C16.2186 42.844 12.6549 40.9392 9.85787 38.1421C7.06082 35.3451 5.15601 31.7814 4.3843 27.9018C3.6126 24.0222 4.00867 20.0009 5.52242 16.3463C7.03617 12.6918 9.59962 9.56823 12.8886 7.37061C15.3422 5.73114 18.1174 4.66194 21.0112 4.22457C22.6494 3.97696 24 5.34314 24 7V21C24 22.6569 25.3432 24 27 24H41Z" fill="#F1D386"/>
</g>
<g>
<path d="M43 17C44.6569 17 46.0302 15.6438 45.701 14.0199C45.5099 13.0772 45.2281 12.1527 44.8582 11.2598C44.1044 9.43987 42.9995 7.78628 41.6066 6.3934C40.2137 5.00052 38.5601 3.89563 36.7403 3.14181C35.8473 2.77192 34.9228 2.49011 33.9801 2.29901C32.3562 1.96984 31 3.34315 31 5L31 14C31 15.6569 32.3431 17 34 17H43Z" fill="white"/>
</g>
<defs>
<filter id="filter0_b_160_7478" x="-76" y="-75.8046" width="199.805" height="199.805" filterUnits="userSpaceOnUse" color-interpolation-filters="sRGB">
<feFlood flood-opacity="0" result="BackgroundImageFix"/>
<feGaussianBlur in="BackgroundImage" stdDeviation="40"/>
<feComposite in2="SourceAlpha" operator="in" result="effect1_backgroundBlur_160_7478"/>
<feBlend mode="normal" in="SourceGraphic" in2="effect1_backgroundBlur_160_7478" result="shape"/>
</filter>
<filter id="filter1_b_160_7478" x="-49" y="-77.7501" width="174.75" height="174.75" filterUnits="userSpaceOnUse" color-interpolation-filters="sRGB">
<feFlood flood-opacity="0" result="BackgroundImageFix"/>
<feGaussianBlur in="BackgroundImage" stdDeviation="40"/>
<feComposite in2="SourceAlpha" operator="in" result="effect1_backgroundBlur_160_7478"/>
<feBlend mode="normal" in="SourceGraphic" in2="effect1_backgroundBlur_160_7478" result="shape"/>
</filter>
</defs>
</svg>
