<svg width="48" height="48" viewBox="0 0 48 48" fill="none" xmlns="http://www.w3.org/2000/svg">
<path fill-rule="evenodd" clip-rule="evenodd" d="M24.0003 1.39999C24.5526 1.39999 25.0003 1.84771 25.0003 2.39999V4.66867C26.3111 4.79971 27.5702 5.09953 28.471 5.40252C28.9945 5.57858 29.2761 6.14567 29.1001 6.66914C28.924 7.19261 28.3569 7.47424 27.8334 7.29817C26.6395 6.8966 24.7356 6.51363 23.1334 6.61707C22.331 6.66888 21.699 6.83725 21.2742 7.10187C20.893 7.33928 20.6535 7.66375 20.5912 8.18885C20.5144 8.83473 20.6002 9.26624 20.7391 9.56625C20.8769 9.86363 21.1034 10.1106 21.4422 10.3288C22.1776 10.8022 23.2636 11.0414 24.5827 11.3003C24.6251 11.3087 24.6677 11.317 24.7106 11.3254C25.2964 11.4402 25.9171 11.5618 26.4932 11.7175C27.1094 11.884 27.7428 12.1065 28.2873 12.4495C28.8464 12.8016 29.3383 13.2985 29.6035 14.0042C29.8652 14.7004 29.863 15.4847 29.654 16.338C29.365 17.5183 28.5414 18.2826 27.5823 18.7366C26.805 19.1045 25.9021 19.2907 25.0003 19.363V21.6C25.0003 22.1523 24.5526 22.6 24.0003 22.6C23.448 22.6 23.0003 22.1523 23.0003 21.6V19.3598C21.3166 19.2334 19.6829 18.8231 18.7341 18.3231C18.2455 18.0656 18.0581 17.4608 18.3156 16.9722C18.5731 16.4836 19.1779 16.2962 19.6665 16.5537C20.5013 16.9937 22.4899 17.4546 24.3823 17.3948C25.3164 17.3652 26.1323 17.2102 26.7266 16.9288C27.2989 16.658 27.6025 16.307 27.7114 15.8624C27.8558 15.2726 27.8113 14.9203 27.7314 14.7079C27.6552 14.505 27.5062 14.3212 27.2214 14.1418C26.9221 13.9532 26.5086 13.7934 25.9713 13.6482C25.4662 13.5117 24.9117 13.4029 24.3064 13.2843C24.2703 13.2772 24.2339 13.2701 24.1974 13.2629L24.1863 13.2607C22.9661 13.0212 21.4749 12.7285 20.3596 12.0104C19.7713 11.6316 19.253 11.1162 18.9244 10.407C18.597 9.70031 18.4949 8.88091 18.6051 7.95296C18.7438 6.78524 19.3551 5.94094 20.2168 5.40424C21.0336 4.89549 22.0348 4.68427 23.0003 4.6215V2.39999C23.0003 1.84771 23.448 1.39999 24.0003 1.39999Z" fill="white"/>
<g>
<path d="M15.746 34.5723H21.9212C26.3395 34.5723 29.941 29.4494 25.538 29.0826C23.5882 28.9202 21.3465 29.2168 19.612 28.5147C14.9053 26.6095 11.1134 25.3496 8.44342 26.3547C7.37495 26.7569 6.34463 27.4644 5.39732 28.2747C3.12369 30.2195 2.66878 33.5162 3.73356 36.3122L4.3333 37.8871C5.51478 40.9896 8.48705 43.0377 11.8057 43.126C15.4512 43.2231 20.308 43.4296 24.4687 43.8693C25.238 43.9506 26.0131 43.9399 26.7707 43.7838C33.4646 42.4046 40.9785 38.9192 44.4293 36.792C45.3763 36.2083 46.1914 35.2606 45.88 34.1926C45.3705 32.4455 43.2437 30.5786 39.5866 32C34.6467 33.92 35.8924 33.824 32.2841 35.36C30.2011 36.2467 27.9313 36.3496 26.233 36.1396C24.5187 35.9277 22.7906 35.2682 21.0716 35.0984L15.746 34.5723Z" fill="#F1D386"/>
</g>
<defs>
<filter id="filter0_b_169_6731" x="-76.8137" y="-54" width="202.761" height="177.919" filterUnits="userSpaceOnUse" color-interpolation-filters="sRGB">
<feFlood flood-opacity="0" result="BackgroundImageFix"/>
<feGaussianBlur in="BackgroundImage" stdDeviation="40"/>
<feComposite in2="SourceAlpha" operator="in" result="effect1_backgroundBlur_169_6731"/>
<feBlend mode="normal" in="SourceGraphic" in2="effect1_backgroundBlur_169_6731" result="shape"/>
</filter>
</defs>
</svg>
