<svg width="48" height="48" viewBox="0 0 48 48" fill="none" xmlns="http://www.w3.org/2000/svg">
<g clip-path="url(#clip0_169_6702)">
<path d="M28.8066 30.741C30.4966 29.051 31.1544 26.9688 30.2758 26.0902C29.3973 25.2117 27.3151 25.8695 25.6251 27.5595C23.9351 29.2495 23.2773 31.3317 24.1558 32.2103C25.0344 33.0888 27.1166 32.431 28.8066 30.741Z" fill="#F1D386"/>
<path d="M28.8057 38.8267C30.4957 37.1367 31.1535 35.0544 30.275 34.1759C29.3964 33.2974 27.3142 33.9552 25.6242 35.6452C23.9342 37.3352 23.2764 39.4174 24.155 40.2959C25.0335 41.1745 27.1157 40.5167 28.8057 38.8267Z" fill="#F1D386"/>
<path d="M23.8383 32.2096C24.7169 31.3311 24.059 29.2489 22.3691 27.5589C20.6791 25.8689 18.5969 25.2111 17.7183 26.0896C16.8398 26.9682 17.4976 29.0504 19.1876 30.7404C20.8776 32.4304 22.9598 33.0882 23.8383 32.2096Z" fill="#F1D386"/>
<path d="M23.8375 40.2953C24.716 39.4168 24.0582 37.3346 22.3682 35.6446C20.6782 33.9546 18.596 33.2968 17.7175 34.1753C16.8389 35.0538 17.4967 37.1361 19.1867 38.8261C20.8767 40.5161 22.9589 41.1739 23.8375 40.2953Z" fill="#F1D386"/>
<path d="M45.4387 30.7428C47.1287 29.0528 47.7865 26.9706 46.908 26.0921C46.0295 25.2135 43.9472 25.8713 42.2573 27.5613C40.5673 29.2513 39.9095 31.3335 40.788 32.2121C41.6666 33.0906 43.7488 32.4328 45.4387 30.7428Z" fill="#F1D386"/>
<path d="M45.4378 38.8285C47.1278 37.1385 47.7856 35.0563 46.907 34.1777C46.0285 33.2992 43.9463 33.957 42.2563 35.647C40.5663 37.337 39.9085 39.4192 40.787 40.2977C41.6656 41.1763 43.7478 40.5185 45.4378 38.8285Z" fill="#F1D386"/>
<path d="M40.4705 32.2114C41.3491 31.3329 40.6913 29.2506 39.0013 27.5606C37.3113 25.8707 35.2291 25.2128 34.3505 26.0914C33.472 26.9699 34.1298 29.0522 35.8198 30.7421C37.5098 32.4321 39.592 33.09 40.4705 32.2114Z" fill="#F1D386"/>
<path d="M40.4695 40.2971C41.3481 39.4185 40.6903 37.3363 39.0003 35.6463C37.3103 33.9563 35.2281 33.2985 34.3495 34.1771C33.471 35.0556 34.1288 37.1378 35.8188 38.8278C37.5088 40.5178 39.591 41.1756 40.4695 40.2971Z" fill="#F1D386"/>
<path d="M45.4395 22.4465C47.1295 20.7565 47.7873 18.6743 46.9087 17.7957C46.0302 16.9172 43.948 17.575 42.258 19.265C40.568 20.955 39.9102 23.0372 40.7887 23.9157C41.6673 24.7943 43.7495 24.1365 45.4395 22.4465Z" fill="#F1D386"/>
<path d="M40.4715 23.9151C41.35 23.0365 40.6922 20.9543 39.0022 19.2643C37.3123 17.5743 35.23 16.9165 34.3515 17.7951C33.4729 18.6736 34.1308 20.7558 35.8207 22.4458C37.5107 24.1358 39.593 24.7936 40.4715 23.9151Z" fill="#F1D386"/>
<path d="M12.168 38.8249C13.858 37.1349 14.5158 35.0527 13.6373 34.1742C12.7587 33.2956 10.6765 33.9534 8.98652 35.6434C7.29653 37.3334 6.63872 39.4156 7.51726 40.2942C8.39581 41.1727 10.478 40.5149 12.168 38.8249Z" fill="#F1D386"/>
<path d="M7.1999 40.2935C8.07845 39.415 7.42064 37.3327 5.73064 35.6427C4.04065 33.9527 1.95843 33.2949 1.07989 34.1735C0.201339 35.052 0.859147 37.1342 2.54914 38.8242C4.23914 40.5142 6.32135 41.172 7.1999 40.2935Z" fill="#F1D386"/>
<path d="M7.36335 45.4769C6.96323 45.4769 6.63904 45.1526 6.63904 44.7526V29.716C6.63904 29.316 6.96332 28.9917 7.36335 28.9917C7.76348 28.9917 8.08766 29.316 8.08766 29.716V44.7526C8.08776 45.1526 7.76348 45.4769 7.36335 45.4769Z" fill="#F9EDCF"/>
<path d="M24.0028 46.0117C23.6026 46.0117 23.2784 45.6874 23.2784 45.2874V22.3859C23.2784 21.9859 23.6027 21.6616 24.0028 21.6616C24.4028 21.6616 24.7271 21.9859 24.7271 22.3859V45.2874C24.7272 45.6874 24.4029 46.0117 24.0028 46.0117Z" fill="#F9EDCF"/>
<path d="M40.6367 45.2104C40.2365 45.2104 39.9124 44.8861 39.9124 44.4861V14.8139C39.9124 14.4139 40.2366 14.0896 40.6367 14.0896C41.0368 14.0896 41.361 14.4139 41.361 14.8139V44.4861C41.361 44.886 41.0367 45.2104 40.6367 45.2104Z" fill="#F9EDCF"/>
<path d="M7.36331 31.2885C11.43 31.2885 14.7266 27.9918 14.7266 23.9252C14.7266 19.8585 11.43 16.5619 7.36331 16.5619C3.29667 16.5619 0 19.8585 0 23.9252C0 27.9918 3.29667 31.2885 7.36331 31.2885Z" fill="#F1D386"/>
<path fill-rule="evenodd" clip-rule="evenodd" d="M7.49864 18.5C7.78416 18.5 8.01563 18.7315 8.01563 19.017V20.1899C8.69332 20.2576 9.34424 20.4126 9.80997 20.5693C10.0806 20.6603 10.2262 20.9535 10.1352 21.2241C10.0441 21.4947 9.75097 21.6403 9.48035 21.5493C8.86309 21.3417 7.87879 21.1437 7.05049 21.1972C6.63562 21.224 6.30892 21.311 6.08928 21.4478C5.89222 21.5705 5.76841 21.7383 5.73616 22.0098C5.6965 22.3437 5.74081 22.5668 5.81267 22.7219C5.88389 22.8756 6.00101 23.0033 6.17616 23.1161C6.55633 23.3608 7.11779 23.4845 7.79972 23.6184C7.82166 23.6227 7.84371 23.627 7.86585 23.6313C8.16874 23.6907 8.48959 23.7535 8.78744 23.834C9.10604 23.9201 9.4335 24.0352 9.715 24.2125C10.004 24.3945 10.2583 24.6514 10.3955 25.0162C10.5308 25.3762 10.5296 25.7816 10.4216 26.2228C10.2722 26.833 9.84635 27.2281 9.35051 27.4628C8.94865 27.653 8.48185 27.7493 8.01563 27.7867V28.9432C8.01563 29.2287 7.78416 29.4602 7.49864 29.4602C7.21311 29.4602 6.98165 29.2287 6.98165 28.9432V27.785C6.11123 27.7197 5.26659 27.5076 4.77606 27.249C4.52347 27.1159 4.42661 26.8032 4.55973 26.5506C4.69285 26.2981 5.00553 26.2012 5.25812 26.3343C5.68971 26.5618 6.7178 26.8001 7.69616 26.7691C8.17907 26.7538 8.60087 26.6737 8.90813 26.5282C9.20399 26.3882 9.36097 26.2068 9.41726 25.9769C9.49191 25.672 9.46889 25.4899 9.42761 25.38C9.38817 25.2751 9.31117 25.1801 9.16393 25.0874C9.00917 24.9899 8.79542 24.9073 8.51766 24.8322C8.25651 24.7616 7.96983 24.7054 7.65692 24.644C7.63823 24.6404 7.61944 24.6367 7.60056 24.633L7.59482 24.6319C6.964 24.508 6.19307 24.3567 5.61643 23.9854C5.31232 23.7896 5.04435 23.5232 4.87448 23.1565C4.70523 22.7912 4.65242 22.3676 4.7094 21.8878C4.78111 21.2841 5.09715 20.8476 5.54263 20.5702C5.9649 20.3071 6.48251 20.1979 6.98165 20.1655V19.017C6.98165 18.7315 7.21311 18.5 7.49864 18.5Z" fill="white"/>
<path d="M24.0027 24.4932C28.0694 24.4932 31.366 21.1966 31.366 17.1299C31.366 13.0633 28.0694 9.7666 24.0027 9.7666C19.9361 9.7666 16.6394 13.0633 16.6394 17.1299C16.6394 21.1966 19.9361 24.4932 24.0027 24.4932Z" fill="#F1D386"/>
<path fill-rule="evenodd" clip-rule="evenodd" d="M23.9986 12C24.2842 12 24.5156 12.2315 24.5156 12.517V13.6899C25.1933 13.7576 25.8442 13.9126 26.31 14.0693C26.5806 14.1603 26.7262 14.4535 26.6352 14.7241C26.5441 14.9947 26.251 15.1403 25.9803 15.0493C25.3631 14.8417 24.3788 14.6437 23.5505 14.6972C23.1356 14.724 22.8089 14.811 22.5893 14.9478C22.3922 15.0705 22.2684 15.2383 22.2362 15.5098C22.1965 15.8437 22.2408 16.0668 22.3127 16.2219C22.3839 16.3756 22.501 16.5033 22.6762 16.6161C23.0563 16.8608 23.6178 16.9845 24.2997 17.1184C24.3217 17.1227 24.3437 17.127 24.3658 17.1313C24.6687 17.1907 24.9896 17.2535 25.2874 17.334C25.606 17.4201 25.9335 17.5352 26.215 17.7125C26.504 17.8945 26.7583 18.1514 26.8955 18.5162C27.0308 18.8762 27.0296 19.2816 26.9216 19.7228C26.7722 20.333 26.3464 20.7281 25.8505 20.9628C25.4486 21.153 24.9819 21.2493 24.5156 21.2867V22.4432C24.5156 22.7287 24.2842 22.9602 23.9986 22.9602C23.7131 22.9602 23.4816 22.7287 23.4816 22.4432V21.285C22.6112 21.2197 21.7666 21.0076 21.2761 20.749C21.0235 20.6159 20.9266 20.3032 21.0597 20.0506C21.1928 19.7981 21.5055 19.7012 21.7581 19.8343C22.1897 20.0618 23.2178 20.3001 24.1962 20.2691C24.6791 20.2538 25.1009 20.1737 25.4081 20.0282C25.704 19.8882 25.861 19.7068 25.9173 19.4769C25.9919 19.172 25.9689 18.9899 25.9276 18.88C25.8882 18.7751 25.8112 18.6801 25.6639 18.5874C25.5092 18.4899 25.2954 18.4073 25.0177 18.3322C24.7565 18.2616 24.4698 18.2054 24.1569 18.144C24.1382 18.1404 24.1194 18.1367 24.1006 18.133L24.0948 18.1319C23.464 18.008 22.6931 17.8567 22.1164 17.4854C21.8123 17.2896 21.5444 17.0232 21.3745 16.6565C21.2052 16.2912 21.1524 15.8676 21.2094 15.3878C21.2811 14.7841 21.5972 14.3476 22.0426 14.0702C22.4649 13.8071 22.9825 13.6979 23.4816 13.6655V12.517C23.4816 12.2315 23.7131 12 23.9986 12Z" fill="white"/>
<path d="M40.6368 16.1199C44.7034 16.1199 48.0001 12.8232 48.0001 8.75654C48.0001 4.68989 44.7034 1.39322 40.6368 1.39322C36.5701 1.39322 33.2734 4.68989 33.2734 8.75654C33.2734 12.8232 36.5701 16.1199 40.6368 16.1199Z" fill="#F1D386"/>
<path fill-rule="evenodd" clip-rule="evenodd" d="M40.7987 3C41.0842 3 41.3157 3.23146 41.3157 3.51699V4.68987C41.9934 4.75762 42.6443 4.91262 43.11 5.06926C43.3806 5.16028 43.5262 5.45346 43.4352 5.72409C43.3442 5.99472 43.051 6.14031 42.7804 6.04929C42.1631 5.84168 41.1788 5.64369 40.3505 5.69717C39.9357 5.72395 39.609 5.811 39.3893 5.94781C39.1923 6.07055 39.0685 6.23829 39.0362 6.50976C38.9966 6.84368 39.0409 7.06676 39.1127 7.22186C39.1839 7.37561 39.3011 7.5033 39.4762 7.61608C39.8564 7.86084 40.4178 7.98451 41.0998 8.11837C41.1217 8.12267 41.1438 8.12699 41.1659 8.13133C41.4688 8.19067 41.7896 8.25352 42.0875 8.33402C42.4061 8.42013 42.7335 8.53516 43.015 8.71246C43.3041 8.8945 43.5584 9.15139 43.6955 9.51623C43.8308 9.87616 43.8296 10.2816 43.7216 10.7228C43.5722 11.333 43.1464 11.7281 42.6506 11.9628C42.2487 12.153 41.7819 12.2493 41.3157 12.2867V13.4432C41.3157 13.7287 41.0842 13.9602 40.7987 13.9602C40.5132 13.9602 40.2817 13.7287 40.2817 13.4432V12.285C39.4113 12.2197 38.5666 12.0076 38.0761 11.749C37.8235 11.6159 37.7267 11.3032 37.8598 11.0506C37.9929 10.7981 38.3056 10.7012 38.5582 10.8343C38.9898 11.0618 40.0178 11.3001 40.9962 11.2691C41.4791 11.2538 41.9009 11.1737 42.2082 11.0282C42.504 10.8882 42.661 10.7068 42.7173 10.4769C42.792 10.172 42.7689 9.98986 42.7277 9.88004C42.6882 9.77513 42.6112 9.68009 42.464 9.58735C42.3092 9.48987 42.0955 9.40726 41.8177 9.33218C41.5566 9.2616 41.2699 9.20539 40.957 9.14404C40.9383 9.14037 40.9195 9.13669 40.9006 9.13298L40.8949 9.13186C40.264 9.00803 39.4931 8.85671 38.9165 8.48545C38.6124 8.28965 38.3444 8.02319 38.1745 7.6565C38.0053 7.29117 37.9525 6.86755 38.0095 6.38781C38.0812 5.78411 38.3972 5.34762 38.8427 5.07015C39.265 4.80713 39.7826 4.69793 40.2817 4.66548V3.51699C40.2817 3.23146 40.5132 3 40.7987 3Z" fill="white"/>
</g>
<defs>
<clipPath id="clip0_169_6702">
<rect width="48" height="48" fill="white"/>
</clipPath>
</defs>
</svg>
